<svg xmlns="http://www.w3.org/2000/svg" xmlns:xlink="http://www.w3.org/1999/xlink" contentStyleType="text/css" data-diagram-type="CLASS" height="1070px" preserveAspectRatio="none" style="width:1471px;height:1070px;background:#FFFFFF;" version="1.1" viewBox="0 0 1471 1070" width="1471px" zoomAndPan="magnify"><defs/><g><!--class Collector--><g class="entity" data-entity="Collector" data-source-line="17" data-uid="ent0002" id="entity_Collector"><rect fill="#FFFFFF" height="118.6158" rx="2.5" ry="2.5" style="stroke:#555555;stroke-width:0.5;" width="188.4553" x="645" y="7"/><ellipse cx="707.6008" cy="29.706" fill="#B4A7E5" rx="11" ry="11" style="stroke:#181818;stroke-width:1;"/><path d="M703.7726,23.2841 L711.1789,23.2841 L711.1789,25.2216 L708.5851,25.2216 L708.5851,34.2685 L711.1789,34.2685 L711.1789,36.206 L703.7726,36.206 L703.7726,34.2685 L706.3664,34.2685 L706.3664,25.2216 L703.7726,25.2216 L703.7726,23.2841 Z " fill="#000000"/><text fill="#000000" font-family="sans-serif" font-size="12" font-style="italic" lengthAdjust="spacing" textLength="58.2964" x="726.3295" y="24.8281">&#171;interface&#187;</text><text fill="#000000" font-family="sans-serif" font-size="14" font-style="italic" lengthAdjust="spacing" textLength="54.7538" x="728.1008" y="43.31">Collector</text><line style="stroke:#555555;stroke-width:0.5;" x1="646" x2="832.4553" y1="52.412" y2="52.412"/><line style="stroke:#555555;stroke-width:0.5;" x1="646" x2="832.4553" y1="60.412" y2="60.412"/><text fill="#000000" font-family="sans-serif" font-size="14" lengthAdjust="spacing" textLength="171.2053" x="651" y="79.378">+collect(hostname: String,</text><text fill="#000000" font-family="sans-serif" font-size="14" lengthAdjust="spacing" textLength="102.1576" x="683.7599" y="98.4459">instances: Map,</text><text fill="#000000" font-family="sans-serif" font-size="14" lengthAdjust="spacing" textLength="143.6954" x="683.7599" y="117.5138">vrfVplsList: Map): void</text></g><!--class AbstractJuniperCollector--><g class="entity" data-entity="AbstractJuniperCollector" data-source-line="21" data-uid="ent0003" id="entity_AbstractJuniperCollector"><rect fill="#FFFFFF" height="162.4075" rx="2.5" ry="2.5" style="stroke:#555555;stroke-width:0.5;" width="311.1929" x="368.5" y="205"/><ellipse cx="444.7227" cy="221" fill="#A9DCDF" rx="11" ry="11" style="stroke:#181818;stroke-width:1;"/><path d="M445.0977,216.7969 L443.6758,221.8906 L446.5196,221.8906 L445.0977,216.7969 Z M443.879,214.0781 L446.3321,214.0781 L450.2696,227 L447.9727,227 L447.0665,223.7656 L443.129,223.7656 L442.2383,227 L439.9415,227 L443.879,214.0781 Z " fill="#000000"/><text fill="#000000" font-family="sans-serif" font-size="14" font-style="italic" lengthAdjust="spacing" textLength="150.2474" x="465.2227" y="226.432">AbstractJuniperCollector</text><line style="stroke:#555555;stroke-width:0.5;" x1="369.5" x2="678.6929" y1="237" y2="237"/><text fill="#000000" font-family="sans-serif" font-size="14" lengthAdjust="spacing" textLength="84.2517" x="374.5" y="255.9659">-login: String</text><text fill="#000000" font-family="sans-serif" font-size="14" lengthAdjust="spacing" textLength="81.1717" x="374.5" y="275.0339">-pass: String</text><line style="stroke:#555555;stroke-width:1;" x1="369.5" x2="678.6929" y1="283.1358" y2="283.1358"/><text fill="#000000" font-family="sans-serif" font-size="14" lengthAdjust="spacing" textLength="259.839" x="374.5" y="302.1018">#readOrFetch(hostname: String): String</text><text fill="#000000" font-family="sans-serif" font-size="14" lengthAdjust="spacing" textLength="226.2391" x="374.5" y="321.1697">#parseXml(xml: String): Document</text><text fill="#000000" font-family="sans-serif" font-size="14" lengthAdjust="spacing" textLength="299.1929" x="374.5" y="340.2376">#extractRouterName(doc, xp, fallback): String</text><text fill="#000000" font-family="sans-serif" font-size="14" lengthAdjust="spacing" textLength="262.779" x="374.5" y="359.3055">#fetchNetconf(hostname: String): String</text></g><!--class JuniperCollector--><g class="entity" data-entity="JuniperCollector" data-source-line="31" data-uid="ent0004" id="entity_JuniperCollector"><rect fill="#FFFFFF" height="67.0679" rx="2.5" ry="2.5" style="stroke:#555555;stroke-width:0.5;" width="137.4896" x="39.5" y="551"/><ellipse cx="54.5" cy="567" fill="#ADD1B2" rx="11" ry="11" style="stroke:#181818;stroke-width:1;"/><path d="M57.4375,572.7031 Q56.625,573.1406 55.9219,573.3125 Q55.2188,573.4844 54.4375,573.4844 Q51.9219,573.4844 50.5313,571.7188 Q49.1563,569.9531 49.1563,566.7969 Q49.1563,563.6719 50.5469,561.8906 Q51.9375,560.0938 54.4375,560.0938 Q55.2188,560.0938 55.9219,560.2813 Q56.625,560.4531 57.4375,560.8906 L57.4375,563.3281 Q56.4219,562.5 55.75,562.25 Q55.0938,562 54.4375,562 Q52.9375,562 52.1875,563.1719 Q51.4375,564.3281 51.4375,566.7969 Q51.4375,569.2656 52.1875,570.4375 Q52.9375,571.5938 54.4375,571.5938 Q55.1094,571.5938 55.7656,571.3438 Q56.4219,571.0938 57.4375,570.2656 L57.4375,572.7031 Z " fill="#000000"/><text fill="#000000" font-family="sans-serif" font-size="14" lengthAdjust="spacing" textLength="105.4896" x="68.5" y="572.432">JuniperCollector</text><line style="stroke:#555555;stroke-width:0.5;" x1="40.5" x2="175.9896" y1="583" y2="583"/><line style="stroke:#555555;stroke-width:0.5;" x1="40.5" x2="175.9896" y1="591" y2="591"/><text fill="#000000" font-family="sans-serif" font-size="14" lengthAdjust="spacing" textLength="69.7477" x="45.5" y="609.9659">+collect(...)</text></g><!--class JuniperSwitchCollector--><g class="entity" data-entity="JuniperSwitchCollector" data-source-line="35" data-uid="ent0005" id="entity_JuniperSwitchCollector"><rect fill="#FFFFFF" height="67.0679" rx="2.5" ry="2.5" style="stroke:#555555;stroke-width:0.5;" width="180.2174" x="212" y="551"/><ellipse cx="227" cy="567" fill="#ADD1B2" rx="11" ry="11" style="stroke:#181818;stroke-width:1;"/><path d="M229.9375,572.7031 Q229.125,573.1406 228.4219,573.3125 Q227.7188,573.4844 226.9375,573.4844 Q224.4219,573.4844 223.0313,571.7188 Q221.6563,569.9531 221.6563,566.7969 Q221.6563,563.6719 223.0469,561.8906 Q224.4375,560.0938 226.9375,560.0938 Q227.7188,560.0938 228.4219,560.2813 Q229.125,560.4531 229.9375,560.8906 L229.9375,563.3281 Q228.9219,562.5 228.25,562.25 Q227.5938,562 226.9375,562 Q225.4375,562 224.6875,563.1719 Q223.9375,564.3281 223.9375,566.7969 Q223.9375,569.2656 224.6875,570.4375 Q225.4375,571.5938 226.9375,571.5938 Q227.6094,571.5938 228.2656,571.3438 Q228.9219,571.0938 229.9375,570.2656 L229.9375,572.7031 Z " fill="#000000"/><text fill="#000000" font-family="sans-serif" font-size="14" lengthAdjust="spacing" textLength="148.2174" x="241" y="572.432">JuniperSwitchCollector</text><line style="stroke:#555555;stroke-width:0.5;" x1="213" x2="391.2174" y1="583" y2="583"/><line style="stroke:#555555;stroke-width:0.5;" x1="213" x2="391.2174" y1="591" y2="591"/><text fill="#000000" font-family="sans-serif" font-size="14" lengthAdjust="spacing" textLength="69.7477" x="218" y="609.9659">+collect(...)</text></g><!--class JuniperL2circuitCollector--><g class="entity" data-entity="JuniperL2circuitCollector" data-source-line="39" data-uid="ent0006" id="entity_JuniperL2circuitCollector"><rect fill="#FFFFFF" height="67.0679" rx="2.5" ry="2.5" style="stroke:#555555;stroke-width:0.5;" width="192.9854" x="427.5" y="551"/><ellipse cx="442.5" cy="567" fill="#ADD1B2" rx="11" ry="11" style="stroke:#181818;stroke-width:1;"/><path d="M445.4375,572.7031 Q444.625,573.1406 443.9219,573.3125 Q443.2188,573.4844 442.4375,573.4844 Q439.9219,573.4844 438.5313,571.7188 Q437.1563,569.9531 437.1563,566.7969 Q437.1563,563.6719 438.5469,561.8906 Q439.9375,560.0938 442.4375,560.0938 Q443.2188,560.0938 443.9219,560.2813 Q444.625,560.4531 445.4375,560.8906 L445.4375,563.3281 Q444.4219,562.5 443.75,562.25 Q443.0938,562 442.4375,562 Q440.9375,562 440.1875,563.1719 Q439.4375,564.3281 439.4375,566.7969 Q439.4375,569.2656 440.1875,570.4375 Q440.9375,571.5938 442.4375,571.5938 Q443.1094,571.5938 443.7656,571.3438 Q444.4219,571.0938 445.4375,570.2656 L445.4375,572.7031 Z " fill="#000000"/><text fill="#000000" font-family="sans-serif" font-size="14" lengthAdjust="spacing" textLength="160.9854" x="456.5" y="572.432">JuniperL2circuitCollector</text><line style="stroke:#555555;stroke-width:0.5;" x1="428.5" x2="619.4854" y1="583" y2="583"/><line style="stroke:#555555;stroke-width:0.5;" x1="428.5" x2="619.4854" y1="591" y2="591"/><text fill="#000000" font-family="sans-serif" font-size="14" lengthAdjust="spacing" textLength="69.7477" x="433.5" y="609.9659">+collect(...)</text></g><!--class JuniperBridgedomainsCollector--><g class="entity" data-entity="JuniperBridgedomainsCollector" data-source-line="43" data-uid="ent0007" id="entity_JuniperBridgedomainsCollector"><rect fill="#FFFFFF" height="67.0679" rx="2.5" ry="2.5" style="stroke:#555555;stroke-width:0.5;" width="238.0932" x="656" y="551"/><ellipse cx="671" cy="567" fill="#ADD1B2" rx="11" ry="11" style="stroke:#181818;stroke-width:1;"/><path d="M673.9375,572.7031 Q673.125,573.1406 672.4219,573.3125 Q671.7188,573.4844 670.9375,573.4844 Q668.4219,573.4844 667.0313,571.7188 Q665.6563,569.9531 665.6563,566.7969 Q665.6563,563.6719 667.0469,561.8906 Q668.4375,560.0938 670.9375,560.0938 Q671.7188,560.0938 672.4219,560.2813 Q673.125,560.4531 673.9375,560.8906 L673.9375,563.3281 Q672.9219,562.5 672.25,562.25 Q671.5938,562 670.9375,562 Q669.4375,562 668.6875,563.1719 Q667.9375,564.3281 667.9375,566.7969 Q667.9375,569.2656 668.6875,570.4375 Q669.4375,571.5938 670.9375,571.5938 Q671.6094,571.5938 672.2656,571.3438 Q672.9219,571.0938 673.9375,570.2656 L673.9375,572.7031 Z " fill="#000000"/><text fill="#000000" font-family="sans-serif" font-size="14" lengthAdjust="spacing" textLength="206.0932" x="685" y="572.432">JuniperBridgedomainsCollector</text><line style="stroke:#555555;stroke-width:0.5;" x1="657" x2="893.0932" y1="583" y2="583"/><line style="stroke:#555555;stroke-width:0.5;" x1="657" x2="893.0932" y1="591" y2="591"/><text fill="#000000" font-family="sans-serif" font-size="14" lengthAdjust="spacing" textLength="69.7477" x="662" y="609.9659">+collect(...)</text></g><!--class CiscoCollector--><g class="entity" data-entity="CiscoCollector" data-source-line="47" data-uid="ent0008" id="entity_CiscoCollector"><rect fill="#FFFFFF" height="124.2717" rx="2.5" ry="2.5" style="stroke:#555555;stroke-width:0.5;" width="137.5515" x="715" y="224"/><ellipse cx="735.7293" cy="240" fill="#ADD1B2" rx="11" ry="11" style="stroke:#181818;stroke-width:1;"/><path d="M738.6668,245.7031 Q737.8543,246.1406 737.1512,246.3125 Q736.4481,246.4844 735.6668,246.4844 Q733.1512,246.4844 731.7606,244.7188 Q730.3856,242.9531 730.3856,239.7969 Q730.3856,236.6719 731.7762,234.8906 Q733.1668,233.0938 735.6668,233.0938 Q736.4481,233.0938 737.1512,233.2813 Q737.8543,233.4531 738.6668,233.8906 L738.6668,236.3281 Q737.6512,235.5 736.9793,235.25 Q736.3231,235 735.6668,235 Q734.1668,235 733.4168,236.1719 Q732.6668,237.3281 732.6668,239.7969 Q732.6668,242.2656 733.4168,243.4375 Q734.1668,244.5938 735.6668,244.5938 Q736.3387,244.5938 736.995,244.3438 Q737.6512,244.0938 738.6668,243.2656 L738.6668,245.7031 Z " fill="#000000"/><text fill="#000000" font-family="sans-serif" font-size="14" lengthAdjust="spacing" textLength="92.8196" x="751.0025" y="245.432">CiscoCollector</text><line style="stroke:#555555;stroke-width:0.5;" x1="716" x2="851.5515" y1="256" y2="256"/><text fill="#000000" font-family="sans-serif" font-size="14" lengthAdjust="spacing" textLength="84.2517" x="721" y="274.9659">-login: String</text><text fill="#000000" font-family="sans-serif" font-size="14" lengthAdjust="spacing" textLength="81.1717" x="721" y="294.0339">-pass: String</text><text fill="#000000" font-family="sans-serif" font-size="14" lengthAdjust="spacing" textLength="125.5515" x="721" y="313.1018">-enablePass: String</text><line style="stroke:#555555;stroke-width:1;" x1="716" x2="851.5515" y1="321.2038" y2="321.2038"/><text fill="#000000" font-family="sans-serif" font-size="14" lengthAdjust="spacing" textLength="69.7477" x="721" y="340.1697">+collect(...)</text></g><!--class RouterOSCollector--><g class="entity" data-entity="RouterOSCollector" data-source-line="55" data-uid="ent0009" id="entity_RouterOSCollector"><rect fill="#FFFFFF" height="105.2038" rx="2.5" ry="2.5" style="stroke:#555555;stroke-width:0.5;" width="153.6455" x="888" y="233.5"/><ellipse cx="903" cy="249.5" fill="#ADD1B2" rx="11" ry="11" style="stroke:#181818;stroke-width:1;"/><path d="M905.9375,255.2031 Q905.125,255.6406 904.4219,255.8125 Q903.7188,255.9844 902.9375,255.9844 Q900.4219,255.9844 899.0313,254.2188 Q897.6563,252.4531 897.6563,249.2969 Q897.6563,246.1719 899.0469,244.3906 Q900.4375,242.5938 902.9375,242.5938 Q903.7188,242.5938 904.4219,242.7813 Q905.125,242.9531 905.9375,243.3906 L905.9375,245.8281 Q904.9219,245 904.25,244.75 Q903.5938,244.5 902.9375,244.5 Q901.4375,244.5 900.6875,245.6719 Q899.9375,246.8281 899.9375,249.2969 Q899.9375,251.7656 900.6875,252.9375 Q901.4375,254.0938 902.9375,254.0938 Q903.6094,254.0938 904.2656,253.8438 Q904.9219,253.5938 905.9375,252.7656 L905.9375,255.2031 Z " fill="#000000"/><text fill="#000000" font-family="sans-serif" font-size="14" lengthAdjust="spacing" textLength="121.6455" x="917" y="254.932">RouterOSCollector</text><line style="stroke:#555555;stroke-width:0.5;" x1="889" x2="1040.6455" y1="265.5" y2="265.5"/><text fill="#000000" font-family="sans-serif" font-size="14" lengthAdjust="spacing" textLength="84.2517" x="894" y="284.4659">-login: String</text><text fill="#000000" font-family="sans-serif" font-size="14" lengthAdjust="spacing" textLength="81.1717" x="894" y="303.5339">-pass: String</text><line style="stroke:#555555;stroke-width:1;" x1="889" x2="1040.6455" y1="311.6358" y2="311.6358"/><text fill="#000000" font-family="sans-serif" font-size="14" lengthAdjust="spacing" textLength="69.7477" x="894" y="330.6018">+collect(...)</text></g><!--class RoutingInstance--><g class="entity" data-entity="RoutingInstance" data-source-line="62" data-uid="ent0010" id="entity_RoutingInstance"><rect fill="#FFFFFF" height="200.5433" rx="2.5" ry="2.5" style="stroke:#555555;stroke-width:0.5;" width="208.2232" x="671" y="697"/><ellipse cx="716.8428" cy="713" fill="#ADD1B2" rx="11" ry="11" style="stroke:#181818;stroke-width:1;"/><path d="M719.7803,718.7031 Q718.9678,719.1406 718.2647,719.3125 Q717.5616,719.4844 716.7803,719.4844 Q714.2647,719.4844 712.8741,717.7188 Q711.4991,715.9531 711.4991,712.7969 Q711.4991,709.6719 712.8897,707.8906 Q714.2803,706.0938 716.7803,706.0938 Q717.5616,706.0938 718.2647,706.2813 Q718.9678,706.4531 719.7803,706.8906 L719.7803,709.3281 Q718.7647,708.5 718.0928,708.25 Q717.4366,708 716.7803,708 Q715.2803,708 714.5303,709.1719 Q713.7803,710.3281 713.7803,712.7969 Q713.7803,715.2656 714.5303,716.4375 Q715.2803,717.5938 716.7803,717.5938 Q717.4522,717.5938 718.1085,717.3438 Q718.7647,717.0938 719.7803,716.2656 L719.7803,718.7031 Z " fill="#000000"/><text fill="#000000" font-family="sans-serif" font-size="14" lengthAdjust="spacing" textLength="108.0376" x="737.3428" y="718.432">RoutingInstance</text><line style="stroke:#555555;stroke-width:0.5;" x1="672" x2="878.2232" y1="729" y2="729"/><text fill="#000000" font-family="sans-serif" font-size="14" lengthAdjust="spacing" textLength="88.7877" x="677" y="747.9659">-name: String</text><text fill="#000000" font-family="sans-serif" font-size="14" lengthAdjust="spacing" textLength="79.9957" x="677" y="767.0339">-type: String</text><text fill="#000000" font-family="sans-serif" font-size="14" lengthAdjust="spacing" textLength="65.6878" x="677" y="786.1018">-rd: String</text><text fill="#000000" font-family="sans-serif" font-size="14" lengthAdjust="spacing" textLength="115.9335" x="677" y="805.1697">-hrefname: String</text><text fill="#000000" font-family="sans-serif" font-size="14" lengthAdjust="spacing" textLength="125.6075" x="677" y="824.2376">-hosts: List&lt;String&gt;</text><line style="stroke:#555555;stroke-width:1;" x1="672" x2="878.2232" y1="832.3396" y2="832.3396"/><text fill="#000000" font-family="sans-serif" font-size="14" lengthAdjust="spacing" text-decoration="underline" textLength="196.2232" x="677" y="851.3055">+merge(instances, vrfVplsList,</text><text fill="#000000" font-family="sans-serif" font-size="14" lengthAdjust="spacing" text-decoration="underline" textLength="99.1196" x="735.2397" y="870.3734">name, type, rd,</text><text fill="#000000" font-family="sans-serif" font-size="14" lengthAdjust="spacing" text-decoration="underline" textLength="102.6896" x="735.2397" y="889.4414">hostEntry): void</text></g><!--class HashUtils--><g class="entity" data-entity="HashUtils" data-source-line="72" data-uid="ent0011" id="entity_HashUtils"><rect fill="#FFFFFF" height="86.1358" rx="2.5" ry="2.5" style="stroke:#555555;stroke-width:0.5;" width="246.6111" x="651.5" y="977"/><ellipse cx="739.1537" cy="993" fill="#ADD1B2" rx="11" ry="11" style="stroke:#181818;stroke-width:1;"/><path d="M742.0912,998.7031 Q741.2787,999.1406 740.5755,999.3125 Q739.8724,999.4844 739.0912,999.4844 Q736.5755,999.4844 735.1849,997.7188 Q733.8099,995.9531 733.8099,992.7969 Q733.8099,989.6719 735.2005,987.8906 Q736.5912,986.0938 739.0912,986.0938 Q739.8724,986.0938 740.5755,986.2813 Q741.2787,986.4531 742.0912,986.8906 L742.0912,989.3281 Q741.0755,988.5 740.4037,988.25 Q739.7474,988 739.0912,988 Q737.5912,988 736.8412,989.1719 Q736.0912,990.3281 736.0912,992.7969 Q736.0912,995.2656 736.8412,996.4375 Q737.5912,997.5938 739.0912,997.5938 Q739.763,997.5938 740.4193,997.3438 Q741.0755,997.0938 742.0912,996.2656 L742.0912,998.7031 Z " fill="#000000"/><text fill="#000000" font-family="sans-serif" font-size="14" lengthAdjust="spacing" textLength="62.8038" x="759.6537" y="998.432">HashUtils</text><line style="stroke:#555555;stroke-width:0.5;" x1="652.5" x2="897.1111" y1="1009" y2="1009"/><line style="stroke:#555555;stroke-width:0.5;" x1="652.5" x2="897.1111" y1="1017" y2="1017"/><text fill="#000000" font-family="sans-serif" font-size="14" lengthAdjust="spacing" text-decoration="underline" textLength="234.6111" x="657.5" y="1035.9659">+computeKey(paddedName: String,</text><text fill="#000000" font-family="sans-serif" font-size="14" lengthAdjust="spacing" text-decoration="underline" textLength="126.4755" x="741.2196" y="1055.0339">type: String): String</text></g><!--class LoAddressMapper--><g class="entity" data-entity="LoAddressMapper" data-source-line="76" data-uid="ent0012" id="entity_LoAddressMapper"><rect fill="#FFFFFF" height="67.0679" rx="2.5" ry="2.5" style="stroke:#555555;stroke-width:0.5;" width="321.3568" x="1077.5" y="252.5"/><ellipse cx="1173.6726" cy="268.5" fill="#ADD1B2" rx="11" ry="11" style="stroke:#181818;stroke-width:1;"/><path d="M1176.6101,274.2031 Q1175.7976,274.6406 1175.0945,274.8125 Q1174.3914,274.9844 1173.6101,274.9844 Q1171.0945,274.9844 1169.7039,273.2188 Q1168.3289,271.4531 1168.3289,268.2969 Q1168.3289,265.1719 1169.7195,263.3906 Q1171.1101,261.5938 1173.6101,261.5938 Q1174.3914,261.5938 1175.0945,261.7813 Q1175.7976,261.9531 1176.6101,262.3906 L1176.6101,264.8281 Q1175.5945,264 1174.9226,263.75 Q1174.2664,263.5 1173.6101,263.5 Q1172.1101,263.5 1171.3601,264.6719 Q1170.6101,265.8281 1170.6101,268.2969 Q1170.6101,270.7656 1171.3601,271.9375 Q1172.1101,273.0938 1173.6101,273.0938 Q1174.282,273.0938 1174.9383,272.8438 Q1175.5945,272.5938 1176.6101,271.7656 L1176.6101,274.2031 Z " fill="#000000"/><text fill="#000000" font-family="sans-serif" font-size="14" lengthAdjust="spacing" textLength="120.5116" x="1194.1726" y="273.932">LoAddressMapper</text><line style="stroke:#555555;stroke-width:0.5;" x1="1078.5" x2="1397.8568" y1="284.5" y2="284.5"/><line style="stroke:#555555;stroke-width:0.5;" x1="1078.5" x2="1397.8568" y1="292.5" y2="292.5"/><text fill="#000000" font-family="sans-serif" font-size="14" lengthAdjust="spacing" text-decoration="underline" textLength="309.3568" x="1083.5" y="311.4659">+build(hosts: List&lt;String&gt;): Map&lt;String, String&gt;</text></g><!--class ReportGenerator--><g class="entity" data-entity="ReportGenerator" data-source-line="80" data-uid="ent0013" id="entity_ReportGenerator"><rect fill="#FFFFFF" height="124.2717" rx="2.5" ry="2.5" style="stroke:#555555;stroke-width:0.5;" width="247.9691" x="1217" y="397"/><ellipse cx="1280.6857" cy="413" fill="#ADD1B2" rx="11" ry="11" style="stroke:#181818;stroke-width:1;"/><path d="M1283.6232,418.7031 Q1282.8107,419.1406 1282.1076,419.3125 Q1281.4045,419.4844 1280.6232,419.4844 Q1278.1076,419.4844 1276.717,417.7188 Q1275.342,415.9531 1275.342,412.7969 Q1275.342,409.6719 1276.7326,407.8906 Q1278.1232,406.0938 1280.6232,406.0938 Q1281.4045,406.0938 1282.1076,406.2813 Q1282.8107,406.4531 1283.6232,406.8906 L1283.6232,409.3281 Q1282.6076,408.5 1281.9357,408.25 Q1281.2795,408 1280.6232,408 Q1279.1232,408 1278.3732,409.1719 Q1277.6232,410.3281 1277.6232,412.7969 Q1277.6232,415.2656 1278.3732,416.4375 Q1279.1232,417.5938 1280.6232,417.5938 Q1281.2951,417.5938 1281.9514,417.3438 Q1282.6076,417.0938 1283.6232,416.2656 L1283.6232,418.7031 Z " fill="#000000"/><text fill="#000000" font-family="sans-serif" font-size="14" lengthAdjust="spacing" textLength="112.0976" x="1301.1857" y="418.432">ReportGenerator</text><line style="stroke:#555555;stroke-width:0.5;" x1="1218" x2="1463.9691" y1="429" y2="429"/><line style="stroke:#555555;stroke-width:0.5;" x1="1218" x2="1463.9691" y1="437" y2="437"/><text fill="#000000" font-family="sans-serif" font-size="14" lengthAdjust="spacing" text-decoration="underline" textLength="174.0053" x="1223" y="455.9659">+generate(instances: Map,</text><text fill="#000000" font-family="sans-serif" font-size="14" lengthAdjust="spacing" text-decoration="underline" textLength="108.0516" x="1303.0797" y="475.0339">vrfVplsList: Map,</text><text fill="#000000" font-family="sans-serif" font-size="14" lengthAdjust="spacing" text-decoration="underline" textLength="125.0615" x="1303.0797" y="494.1018">outputPath: String,</text><text fill="#000000" font-family="sans-serif" font-size="14" lengthAdjust="spacing" text-decoration="underline" textLength="155.8894" x="1303.0797" y="513.1697">loAddresses: Map): void</text></g><!--class RoutingInstancesReport--><g class="entity" data-entity="RoutingInstancesReport" data-source-line="84" data-uid="ent0014" id="entity_RoutingInstancesReport"><rect fill="#FFFFFF" height="67.0679" rx="2.5" ry="2.5" style="stroke:#555555;stroke-width:0.5;" width="191.2634" x="914.5" y="33"/><ellipse cx="929.5" cy="49" fill="#ADD1B2" rx="11" ry="11" style="stroke:#181818;stroke-width:1;"/><path d="M932.4375,54.7031 Q931.625,55.1406 930.9219,55.3125 Q930.2188,55.4844 929.4375,55.4844 Q926.9219,55.4844 925.5313,53.7188 Q924.1563,51.9531 924.1563,48.7969 Q924.1563,45.6719 925.5469,43.8906 Q926.9375,42.0938 929.4375,42.0938 Q930.2188,42.0938 930.9219,42.2813 Q931.625,42.4531 932.4375,42.8906 L932.4375,45.3281 Q931.4219,44.5 930.75,44.25 Q930.0938,44 929.4375,44 Q927.9375,44 927.1875,45.1719 Q926.4375,46.3281 926.4375,48.7969 Q926.4375,51.2656 927.1875,52.4375 Q927.9375,53.5938 929.4375,53.5938 Q930.1094,53.5938 930.7656,53.3438 Q931.4219,53.0938 932.4375,52.2656 L932.4375,54.7031 Z " fill="#000000"/><text fill="#000000" font-family="sans-serif" font-size="14" lengthAdjust="spacing" textLength="159.2634" x="943.5" y="54.432">RoutingInstancesReport</text><line style="stroke:#555555;stroke-width:0.5;" x1="915.5" x2="1104.7634" y1="65" y2="65"/><line style="stroke:#555555;stroke-width:0.5;" x1="915.5" x2="1104.7634" y1="73" y2="73"/><text fill="#000000" font-family="sans-serif" font-size="14" lengthAdjust="spacing" text-decoration="underline" textLength="169.7634" x="920.5" y="91.9659">+main(args: String[]): void</text></g><g class="entity" data-entity="GMN35" data-source-line="115" data-uid="ent0036" id="entity_GMN35"><path d="M6,775 L6,820.412 A0,0 0 0 0 6,820.412 L209.5072,820.412 A0,0 0 0 0 209.5072,820.412 L209.5072,785 L199.5072,775 L112,775 L108,618.01 L104,775 L6,775 A0,0 0 0 0 6,775" fill="#FEFFDD" style="stroke:#181818;stroke-width:0.5;"/><path d="M199.5072,775 L199.5072,785 L209.5072,785 L199.5072,775" fill="#FEFFDD" style="stroke:#181818;stroke-width:0.5;"/><text fill="#000000" font-family="sans-serif" font-size="13" lengthAdjust="spacing" textLength="182.5072" x="12" y="793.897">Reads /tmp/juniper-HOST.xml</text><text fill="#000000" font-family="sans-serif" font-size="13" lengthAdjust="spacing" textLength="169.7151" x="12" y="811.603">from JuniperCollector cache</text></g><!--reverse link Collector to AbstractJuniperCollector--><g class="link" data-entity-1="Collector" data-entity-2="AbstractJuniperCollector" data-source-line="88" data-uid="lnk15" id="link_Collector_AbstractJuniperCollector"><path codeLine="88" d="M668.4465,138.8719 C644.5665,163.0319 629.16,178.62 603.41,204.67" fill="none" id="Collector-backto-AbstractJuniperCollector" style="stroke:#555555;stroke-width:1;stroke-dasharray:7.0,7.0;"/><polygon fill="none" points="681.1,126.07,664.1792,134.654,672.7138,143.0897,681.1,126.07" style="stroke:#555555;stroke-width:1;"/></g><!--reverse link Collector to CiscoCollector--><g class="link" data-entity-1="Collector" data-entity-2="CiscoCollector" data-source-line="89" data-uid="lnk16" id="link_Collector_CiscoCollector"><path codeLine="89" d="M754.5491,143.7245 C757.7991,159.6045 757.72,159.14 761,175 C764.28,190.86 767.85,208 771.18,223.92" fill="none" id="Collector-backto-CiscoCollector" style="stroke:#555555;stroke-width:1;stroke-dasharray:7.0,7.0;"/><polygon fill="none" points="750.94,126.09,748.6709,144.9275,760.4272,142.5214,750.94,126.09" style="stroke:#555555;stroke-width:1;"/></g><!--reverse link Collector to RouterOSCollector--><g class="link" data-entity-1="Collector" data-entity-2="RouterOSCollector" data-source-line="90" data-uid="lnk17" id="link_Collector_RouterOSCollector"><path codeLine="90" d="M773.4328,141.9306 C783.1828,159.3206 786.87,161.58 802,175 C827.02,197.19 842.63,187.3 871,205 C884.27,213.28 897.62,223.34 909.92,233.5" fill="none" id="Collector-backto-RouterOSCollector" style="stroke:#555555;stroke-width:1;stroke-dasharray:7.0,7.0;"/><polygon fill="none" points="764.63,126.23,768.1993,144.8649,778.6664,138.9964,764.63,126.23" style="stroke:#555555;stroke-width:1;"/></g><!--reverse link AbstractJuniperCollector to JuniperCollector--><g class="link" data-entity-1="AbstractJuniperCollector" data-entity-2="JuniperCollector" data-source-line="92" data-uid="lnk18" id="link_AbstractJuniperCollector_JuniperCollector"><path codeLine="92" d="M371.1115,376.6581 C355.6315,386.4581 355.45,386.94 341,397 C269.13,447.03 190.61,512.28 145.54,550.86" fill="none" id="AbstractJuniperCollector-backto-JuniperCollector" style="stroke:#555555;stroke-width:1;"/><polygon fill="none" points="386.32,367.03,367.9021,371.5886,374.3209,381.7276,386.32,367.03" style="stroke:#555555;stroke-width:1;"/></g><!--reverse link AbstractJuniperCollector to JuniperSwitchCollector--><g class="link" data-entity-1="AbstractJuniperCollector" data-entity-2="JuniperSwitchCollector" data-source-line="93" data-uid="lnk19" id="link_AbstractJuniperCollector_JuniperSwitchCollector"><path codeLine="93" d="M453.1311,381.6483 C408.0611,441.8383 359.48,506.73 326.59,550.65" fill="none" id="AbstractJuniperCollector-backto-JuniperSwitchCollector" style="stroke:#555555;stroke-width:1;"/><polygon fill="none" points="463.92,367.24,448.3283,378.052,457.9339,385.2446,463.92,367.24" style="stroke:#555555;stroke-width:1;"/></g><!--reverse link AbstractJuniperCollector to JuniperL2circuitCollector--><g class="link" data-entity-1="AbstractJuniperCollector" data-entity-2="JuniperL2circuitCollector" data-source-line="94" data-uid="lnk20" id="link_AbstractJuniperCollector_JuniperL2circuitCollector"><path codeLine="94" d="M524,385.24 C524,445.43 524,506.73 524,550.65" fill="none" id="AbstractJuniperCollector-backto-JuniperL2circuitCollector" style="stroke:#555555;stroke-width:1;"/><polygon fill="none" points="524,367.24,518,385.24,530,385.24,524,367.24" style="stroke:#555555;stroke-width:1;"/></g><!--reverse link AbstractJuniperCollector to JuniperBridgedomainsCollector--><g class="link" data-entity-1="AbstractJuniperCollector" data-entity-2="JuniperBridgedomainsCollector" data-source-line="95" data-uid="lnk21" id="link_AbstractJuniperCollector_JuniperBridgedomainsCollector"><path codeLine="95" d="M603.551,380.9776 C654.511,441.1676 710.01,506.73 747.19,550.65" fill="none" id="AbstractJuniperCollector-backto-JuniperBridgedomainsCollector" style="stroke:#555555;stroke-width:1;"/><polygon fill="none" points="591.92,367.24,598.9718,384.8546,608.1301,377.1006,591.92,367.24" style="stroke:#555555;stroke-width:1;"/></g><!--link RoutingInstancesReport to AbstractJuniperCollector--><g class="link" data-entity-1="RoutingInstancesReport" data-entity-2="AbstractJuniperCollector" data-source-line="97" data-uid="lnk22" id="link_RoutingInstancesReport_AbstractJuniperCollector"><path codeLine="97" d="M935.15,100.09 C871.85,127.74 778.83,168.61 698,205 C691.94,207.73 691.2243,208.0418 684.9843,210.8718" fill="none" id="RoutingInstancesReport-to-AbstractJuniperCollector" style="stroke:#555555;stroke-width:1;"/><polygon fill="#555555" points="679.52,213.35,689.3686,213.2756,684.0736,211.2848,686.0643,205.9898,679.52,213.35" style="stroke:#555555;stroke-width:1;"/><text fill="#000000" font-family="sans-serif" font-size="13" lengthAdjust="spacing" textLength="44.486" x="801" y="170.897">creates</text><text fill="#000000" font-family="sans-serif" font-size="13" lengthAdjust="spacing" textLength="7.436" x="687.7257" y="206.0704">4</text></g><!--link RoutingInstancesReport to CiscoCollector--><g class="link" data-entity-1="RoutingInstancesReport" data-entity-2="CiscoCollector" data-source-line="98" data-uid="lnk23" id="link_RoutingInstancesReport_CiscoCollector"><path codeLine="98" d="M976.17,100.06 C942.3,132.65 893.7032,179.4194 851.9632,219.5894" fill="none" id="RoutingInstancesReport-to-CiscoCollector" style="stroke:#555555;stroke-width:1;"/><polygon fill="#555555" points="847.64,223.75,856.8985,220.3913,851.2426,220.2829,851.351,214.6271,847.64,223.75" style="stroke:#555555;stroke-width:1;"/><text fill="#000000" font-family="sans-serif" font-size="13" lengthAdjust="spacing" textLength="44.486" x="918" y="170.897">creates</text></g><!--link RoutingInstancesReport to RouterOSCollector--><g class="link" data-entity-1="RoutingInstancesReport" data-entity-2="RouterOSCollector" data-source-line="99" data-uid="lnk24" id="link_RoutingInstancesReport_RouterOSCollector"><path codeLine="99" d="M1003.26,100.06 C995.98,135.26 985.4858,185.9745 976.9358,227.2945" fill="none" id="RoutingInstancesReport-to-RouterOSCollector" style="stroke:#555555;stroke-width:1;"/><polygon fill="#555555" points="975.72,233.17,981.4607,225.1672,976.7331,228.2737,973.6266,223.5462,975.72,233.17" style="stroke:#555555;stroke-width:1;"/><text fill="#000000" font-family="sans-serif" font-size="13" lengthAdjust="spacing" textLength="44.486" x="992" y="170.897">creates</text></g><!--link RoutingInstancesReport to LoAddressMapper--><g class="link" data-entity-1="RoutingInstancesReport" data-entity-2="LoAddressMapper" data-source-line="100" data-uid="lnk25" id="link_RoutingInstancesReport_LoAddressMapper"><path codeLine="100" d="M1044.13,100.06 C1087.12,141.07 1156.1988,206.9683 1199.2888,248.0783" fill="none" id="RoutingInstancesReport-to-LoAddressMapper" style="stroke:#555555;stroke-width:1;"/><polygon fill="#555555" points="1203.63,252.22,1199.8793,243.1133,1200.0123,248.7686,1194.357,248.9015,1203.63,252.22" style="stroke:#555555;stroke-width:1;"/><text fill="#000000" font-family="sans-serif" font-size="13" lengthAdjust="spacing" textLength="27.82" x="1118" y="170.897">uses</text></g><!--link RoutingInstancesReport to ReportGenerator--><g class="link" data-entity-1="RoutingInstancesReport" data-entity-2="ReportGenerator" data-source-line="101" data-uid="lnk26" id="link_RoutingInstancesReport_ReportGenerator"><path codeLine="101" d="M1105.6,69.87 C1201.82,77.99 1345.74,107.03 1416,205 C1457.96,263.51 1440.33,299.23 1416,367 C1412.26,377.41 1410.1287,382.4981 1403.7787,391.8981" fill="none" id="RoutingInstancesReport-to-ReportGenerator" style="stroke:#555555;stroke-width:1;"/><polygon fill="#555555" points="1400.42,396.87,1408.7726,391.6513,1403.2189,392.7268,1402.1434,387.1731,1400.42,396.87" style="stroke:#555555;stroke-width:1;"/><text fill="#000000" font-family="sans-serif" font-size="13" lengthAdjust="spacing" textLength="27.82" x="1390" y="170.897">uses</text></g><!--link ReportGenerator to RoutingInstance--><g class="link" data-entity-1="ReportGenerator" data-entity-2="RoutingInstance" data-source-line="103" data-uid="lnk27" id="link_ReportGenerator_RoutingInstance"><path codeLine="103" d="M1284.25,521.37 C1239.97,566.42 1175.07,626.57 1109,667 C1036.99,711.07 953.1413,742.9812 884.9013,764.9512" fill="none" id="ReportGenerator-to-RoutingInstance" style="stroke:#555555;stroke-width:1;"/><polygon fill="#555555" points="879.19,766.79,888.9828,767.8394,883.9494,765.2577,886.5311,760.2243,879.19,766.79" style="stroke:#555555;stroke-width:1;"/><text fill="#000000" font-family="sans-serif" font-size="13" lengthAdjust="spacing" textLength="34.216" x="1254" y="589.897">reads</text></g><!--link JuniperCollector to RoutingInstance--><g class="link" data-entity-1="JuniperCollector" data-entity-2="RoutingInstance" data-source-line="105" data-uid="lnk28" id="link_JuniperCollector_RoutingInstance"><path codeLine="105" d="M176.86,611.96 C182.64,614.05 188.41,616.09 194,618 C359.48,674.63 548.4786,731.0746 665.2286,765.0246" fill="none" id="JuniperCollector-to-RoutingInstance" style="stroke:#555555;stroke-width:1;stroke-dasharray:7.0,7.0;"/><polygon fill="#555555" points="670.99,766.7,663.4649,760.3461,666.1889,765.3039,661.2311,768.0279,670.99,766.7" style="stroke:#555555;stroke-width:1;"/><text fill="#000000" font-family="sans-serif" font-size="13" lengthAdjust="spacing" textLength="47.983" x="338" y="662.897">merge()</text></g><!--link JuniperSwitchCollector to RoutingInstance--><g class="link" data-entity-1="JuniperSwitchCollector" data-entity-2="RoutingInstance" data-source-line="106" data-uid="lnk29" id="link_JuniperSwitchCollector_RoutingInstance"><path codeLine="106" d="M374.87,618.01 C454.04,653.32 575.7106,707.5954 665.3906,747.6054" fill="none" id="JuniperSwitchCollector-to-RoutingInstance" style="stroke:#555555;stroke-width:1;stroke-dasharray:7.0,7.0;"/><polygon fill="#555555" points="670.87,750.05,664.2806,742.7302,666.3038,748.0128,661.0212,750.036,670.87,750.05" style="stroke:#555555;stroke-width:1;"/><text fill="#000000" font-family="sans-serif" font-size="13" lengthAdjust="spacing" textLength="47.983" x="483" y="662.897">merge()</text></g><!--link JuniperL2circuitCollector to RoutingInstance--><g class="link" data-entity-1="JuniperL2circuitCollector" data-entity-2="RoutingInstance" data-source-line="107" data-uid="lnk30" id="link_JuniperL2circuitCollector_RoutingInstance"><path codeLine="107" d="M562.67,618.01 C591.62,642.34 628.0567,672.9797 666.3467,705.1597" fill="none" id="JuniperL2circuitCollector-to-RoutingInstance" style="stroke:#555555;stroke-width:1;stroke-dasharray:7.0,7.0;"/><polygon fill="#555555" points="670.94,709.02,666.6236,700.1674,667.1123,705.8031,661.4766,706.2917,670.94,709.02" style="stroke:#555555;stroke-width:1;"/><text fill="#000000" font-family="sans-serif" font-size="13" lengthAdjust="spacing" textLength="47.983" x="620" y="662.897">merge()</text></g><!--link JuniperBridgedomainsCollector to RoutingInstance--><g class="link" data-entity-1="JuniperBridgedomainsCollector" data-entity-2="RoutingInstance" data-source-line="108" data-uid="lnk31" id="link_JuniperBridgedomainsCollector_RoutingInstance"><path codeLine="108" d="M775,618.01 C775,639.28 775,662.31 775,690.78" fill="none" id="JuniperBridgedomainsCollector-to-RoutingInstance" style="stroke:#555555;stroke-width:1;stroke-dasharray:7.0,7.0;"/><polygon fill="#555555" points="775,696.78,779,687.78,775,691.78,771,687.78,775,696.78" style="stroke:#555555;stroke-width:1;"/><text fill="#000000" font-family="sans-serif" font-size="13" lengthAdjust="spacing" textLength="47.983" x="776" y="662.897">merge()</text></g><!--link CiscoCollector to RoutingInstance--><g class="link" data-entity-1="CiscoCollector" data-entity-2="RoutingInstance" data-source-line="109" data-uid="lnk32" id="link_CiscoCollector_RoutingInstance"><path codeLine="109" d="M834.74,348.05 C883.19,414.05 944.39,522.61 912,618 C902.58,645.74 890.4419,667.6924 873.0119,691.7324" fill="none" id="CiscoCollector-to-RoutingInstance" style="stroke:#555555;stroke-width:1;stroke-dasharray:7.0,7.0;"/><polygon fill="#555555" points="869.49,696.59,878.0113,691.6516,872.4249,692.542,871.5345,686.9557,869.49,696.59" style="stroke:#555555;stroke-width:1;"/><text fill="#000000" font-family="sans-serif" font-size="13" lengthAdjust="spacing" textLength="47.983" x="922" y="589.897">merge()</text></g><!--link RouterOSCollector to RoutingInstance--><g class="link" data-entity-1="RouterOSCollector" data-entity-2="RoutingInstance" data-source-line="110" data-uid="lnk33" id="link_RouterOSCollector_RoutingInstance"><path codeLine="110" d="M980.76,338.77 C998.35,406.33 1019.3,526.69 978,618 C957.11,664.18 922.4775,699.514 883.9075,729.154" fill="none" id="RouterOSCollector-to-RoutingInstance" style="stroke:#555555;stroke-width:1;stroke-dasharray:7.0,7.0;"/><polygon fill="#555555" points="879.15,732.81,888.7236,730.4977,883.1146,729.7633,883.8489,724.1543,879.15,732.81" style="stroke:#555555;stroke-width:1;"/><text fill="#000000" font-family="sans-serif" font-size="13" lengthAdjust="spacing" textLength="47.983" x="998" y="589.897">merge()</text></g><!--link RoutingInstance to HashUtils--><g class="link" data-entity-1="RoutingInstance" data-entity-2="HashUtils" data-source-line="112" data-uid="lnk34" id="link_RoutingInstance_HashUtils"><path codeLine="112" d="M775,898.11 C775,925.84 775,948.48 775,970.92" fill="none" id="RoutingInstance-to-HashUtils" style="stroke:#555555;stroke-width:1;stroke-dasharray:7.0,7.0;"/><polygon fill="#555555" points="775,976.92,779,967.92,775,971.92,771,967.92,775,976.92" style="stroke:#555555;stroke-width:1;"/><text fill="#000000" font-family="sans-serif" font-size="13" lengthAdjust="spacing" textLength="84.1231" x="776" y="942.897">computeKey()</text></g><!--SRC=[fLPjJzim4FwUNs7HBwtM1ZGn2LLLfSBQmSO0hNkJjdrmxKlYaTYHxV8ouB_FYTFMIPeIDdy0vUwUk_EzFAwwPZp54YU8n5YfYTQIBPOQpeZWS_O7q86drYOgmbJSCXwY0CSA74qEHWyUCkSOa-jGYYMd9o8M4dsBc0Qh4PA2jDBEc_payecKuhOiVdASCwv11fX0Gu3Ez6XsE3rg3E7wmWkb9IQwoTLiDZkQ7knmvMsoCQeOY3RgqMWj7OyBrw-8LNSZeJJ72GpHt1INX_sV7AqEuqfZJa0DqKUSkfeR6NnDOtNEbCvrlI6w4Onc6QplOAi-AJxVBpbByuIBh6mUWrY4ZA-2Mr5gS6N98F_NaO3ffPo19b4jxru9qJ7rLF0zYRjtIUoOl1LacG3NrWZkyjG-2JDIyi8uwr91-kWkxMSZ52zC-IjkWopsXVaZUB0Z1LC6U_k6Mw-hx_j-hsOzlsKcoiimvwy9asJ9zCjWnvBH4AX8iEbrI-W9KqJyMn-1uqKCLmtzROXdstCv_v_HsU7QM9uLSxvox3RLIlHzMf58MlwE90HrN3OY9g5iJqPMFYwbzM02QqQUK08oXEvwuVhkXhcBLvmiKXzbMVMHf5iCii1JhkMzivdspgTOHLyqYrU4kCc1Y2GrfVu0zzqKKmhqee4NoiUjpPOLE1SJIYKePMZ2J5mjwcB9OjhTKgXUpYp5Ln-johTf7gH2wdV0GM9dQDUEGwjngbgZiTAfSbgZeHaQKwShhADdYnElBby4htMZCe7ANgfsbsm_krY6w-7-ySjnvL3ze-ytKcxLhhp8LMrjxJolaSj7ZuD1ZUlQcLV8hXsepdRjSDlfplCQkZ0OZD7UuLxp6pP4nBn96jGk3nM-R8MfSruhM7NNXcYfdWbKMQ82uLNbgwHSjXoYx44snhMw-FusQyjnFQ_XcMi5slBEjS8rF7IxiPNExJQkjsotVRKhkVc6d8Sk7HjhBZIWXT1Q94W4zML3ffMc6MXV9-d-RwiTd5xEF_lc5v3H1j80QuqYc4JW0QSey-_z1G00]--></g></svg>