<svg xmlns="http://www.w3.org/2000/svg" xmlns:xlink="http://www.w3.org/1999/xlink" contentStyleType="text/css" data-diagram-type="CLASS" height="1166px" preserveAspectRatio="none" style="width:1573px;height:1166px;background:#FFFFFF;" version="1.1" viewBox="0 0 1573 1166" width="1573px" zoomAndPan="magnify"><defs/><g><!--class Collector--><g class="entity" data-entity="Collector" data-source-line="21" data-uid="ent0002" id="entity_Collector"><rect fill="#FFFFFF" height="118.6158" rx="2.5" ry="2.5" style="stroke:#555555;stroke-width:0.5;" width="188.4553" x="1354.5" y="7"/><ellipse cx="1417.1008" cy="29.706" fill="#B4A7E5" rx="11" ry="11" style="stroke:#181818;stroke-width:1;"/><path d="M1413.2726,23.2841 L1420.6789,23.2841 L1420.6789,25.2216 L1418.0851,25.2216 L1418.0851,34.2685 L1420.6789,34.2685 L1420.6789,36.206 L1413.2726,36.206 L1413.2726,34.2685 L1415.8664,34.2685 L1415.8664,25.2216 L1413.2726,25.2216 L1413.2726,23.2841 Z " fill="#000000"/><text fill="#000000" font-family="sans-serif" font-size="12" font-style="italic" lengthAdjust="spacing" textLength="58.2964" x="1435.8295" y="24.8281">&#171;interface&#187;</text><text fill="#000000" font-family="sans-serif" font-size="14" font-style="italic" lengthAdjust="spacing" textLength="54.7538" x="1437.6008" y="43.31">Collector</text><line style="stroke:#555555;stroke-width:0.5;" x1="1355.5" x2="1541.9553" y1="52.412" y2="52.412"/><line style="stroke:#555555;stroke-width:0.5;" x1="1355.5" x2="1541.9553" y1="60.412" y2="60.412"/><text fill="#000000" font-family="sans-serif" font-size="14" lengthAdjust="spacing" textLength="171.2053" x="1360.5" y="79.378">+collect(hostname: String,</text><text fill="#000000" font-family="sans-serif" font-size="14" lengthAdjust="spacing" textLength="102.1576" x="1393.2599" y="98.4459">instances: Map,</text><text fill="#000000" font-family="sans-serif" font-size="14" lengthAdjust="spacing" textLength="143.6954" x="1393.2599" y="117.5138">vrfVplsList: Map): void</text></g><!--class AbstractJuniperCollector--><g class="entity" data-entity="AbstractJuniperCollector" data-source-line="25" data-uid="ent0003" id="entity_AbstractJuniperCollector"><rect fill="#FFFFFF" height="200.5433" rx="2.5" ry="2.5" style="stroke:#555555;stroke-width:0.5;" width="311.1929" x="621" y="205"/><ellipse cx="697.2227" cy="221" fill="#A9DCDF" rx="11" ry="11" style="stroke:#181818;stroke-width:1;"/><path d="M697.5977,216.7969 L696.1758,221.8906 L699.0196,221.8906 L697.5977,216.7969 Z M696.379,214.0781 L698.8321,214.0781 L702.7696,227 L700.4727,227 L699.5665,223.7656 L695.629,223.7656 L694.7383,227 L692.4415,227 L696.379,214.0781 Z " fill="#000000"/><text fill="#000000" font-family="sans-serif" font-size="14" font-style="italic" lengthAdjust="spacing" textLength="150.2474" x="717.7227" y="226.432">AbstractJuniperCollector</text><line style="stroke:#555555;stroke-width:0.5;" x1="622" x2="931.1929" y1="237" y2="237"/><text fill="#000000" font-family="sans-serif" font-size="14" lengthAdjust="spacing" textLength="84.2517" x="627" y="255.9659">-login: String</text><text fill="#000000" font-family="sans-serif" font-size="14" lengthAdjust="spacing" textLength="81.1717" x="627" y="275.0339">-pass: String</text><line style="stroke:#555555;stroke-width:1;" x1="622" x2="931.1929" y1="283.1358" y2="283.1358"/><text fill="#000000" font-family="sans-serif" font-size="14" lengthAdjust="spacing" textLength="259.839" x="627" y="302.1018">#readOrFetch(hostname: String): String</text><text fill="#000000" font-family="sans-serif" font-size="14" lengthAdjust="spacing" textLength="226.2391" x="627" y="321.1697">#parseXml(xml: String): Document</text><text fill="#000000" font-family="sans-serif" font-size="14" lengthAdjust="spacing" textLength="299.1929" x="627" y="340.2376">#extractRouterName(doc, xp, fallback): String</text><text fill="#000000" font-family="sans-serif" font-size="14" lengthAdjust="spacing" textLength="262.779" x="627" y="359.3055">#fetchNetconf(hostname: String): String</text><text fill="#000000" font-family="sans-serif" font-size="14" lengthAdjust="spacing" textLength="194.0392" x="627" y="378.3734">#fetchRpcs(hostname: String,</text><text fill="#000000" font-family="sans-serif" font-size="14" lengthAdjust="spacing" textLength="203.0412" x="667.0398" y="397.4414">rpcs: List&lt;String&gt;): List&lt;String&gt;</text></g><!--class JuniperCollector--><g class="entity" data-entity="JuniperCollector" data-source-line="36" data-uid="ent0004" id="entity_JuniperCollector"><rect fill="#FFFFFF" height="67.0679" rx="2.5" ry="2.5" style="stroke:#555555;stroke-width:0.5;" width="137.4896" x="1057" y="637.5"/><ellipse cx="1072" cy="653.5" fill="#ADD1B2" rx="11" ry="11" style="stroke:#181818;stroke-width:1;"/><path d="M1074.9375,659.2031 Q1074.125,659.6406 1073.4219,659.8125 Q1072.7188,659.9844 1071.9375,659.9844 Q1069.4219,659.9844 1068.0313,658.2188 Q1066.6563,656.4531 1066.6563,653.2969 Q1066.6563,650.1719 1068.0469,648.3906 Q1069.4375,646.5938 1071.9375,646.5938 Q1072.7188,646.5938 1073.4219,646.7813 Q1074.125,646.9531 1074.9375,647.3906 L1074.9375,649.8281 Q1073.9219,649 1073.25,648.75 Q1072.5938,648.5 1071.9375,648.5 Q1070.4375,648.5 1069.6875,649.6719 Q1068.9375,650.8281 1068.9375,653.2969 Q1068.9375,655.7656 1069.6875,656.9375 Q1070.4375,658.0938 1071.9375,658.0938 Q1072.6094,658.0938 1073.2656,657.8438 Q1073.9219,657.5938 1074.9375,656.7656 L1074.9375,659.2031 Z " fill="#000000"/><text fill="#000000" font-family="sans-serif" font-size="14" lengthAdjust="spacing" textLength="105.4896" x="1086" y="658.932">JuniperCollector</text><line style="stroke:#555555;stroke-width:0.5;" x1="1058" x2="1193.4896" y1="669.5" y2="669.5"/><line style="stroke:#555555;stroke-width:0.5;" x1="1058" x2="1193.4896" y1="677.5" y2="677.5"/><text fill="#000000" font-family="sans-serif" font-size="14" lengthAdjust="spacing" textLength="69.7477" x="1063" y="696.4659">+collect(...)</text></g><!--class JuniperSwitchCollector--><g class="entity" data-entity="JuniperSwitchCollector" data-source-line="40" data-uid="ent0005" id="entity_JuniperSwitchCollector"><rect fill="#FFFFFF" height="67.0679" rx="2.5" ry="2.5" style="stroke:#555555;stroke-width:0.5;" width="180.2174" x="339.5" y="637.5"/><ellipse cx="354.5" cy="653.5" fill="#ADD1B2" rx="11" ry="11" style="stroke:#181818;stroke-width:1;"/><path d="M357.4375,659.2031 Q356.625,659.6406 355.9219,659.8125 Q355.2188,659.9844 354.4375,659.9844 Q351.9219,659.9844 350.5313,658.2188 Q349.1563,656.4531 349.1563,653.2969 Q349.1563,650.1719 350.5469,648.3906 Q351.9375,646.5938 354.4375,646.5938 Q355.2188,646.5938 355.9219,646.7813 Q356.625,646.9531 357.4375,647.3906 L357.4375,649.8281 Q356.4219,649 355.75,648.75 Q355.0938,648.5 354.4375,648.5 Q352.9375,648.5 352.1875,649.6719 Q351.4375,650.8281 351.4375,653.2969 Q351.4375,655.7656 352.1875,656.9375 Q352.9375,658.0938 354.4375,658.0938 Q355.1094,658.0938 355.7656,657.8438 Q356.4219,657.5938 357.4375,656.7656 L357.4375,659.2031 Z " fill="#000000"/><text fill="#000000" font-family="sans-serif" font-size="14" lengthAdjust="spacing" textLength="148.2174" x="368.5" y="658.932">JuniperSwitchCollector</text><line style="stroke:#555555;stroke-width:0.5;" x1="340.5" x2="518.7174" y1="669.5" y2="669.5"/><line style="stroke:#555555;stroke-width:0.5;" x1="340.5" x2="518.7174" y1="677.5" y2="677.5"/><text fill="#000000" font-family="sans-serif" font-size="14" lengthAdjust="spacing" textLength="69.7477" x="345.5" y="696.4659">+collect(...)</text></g><!--class JuniperL2circuitCollector--><g class="entity" data-entity="JuniperL2circuitCollector" data-source-line="44" data-uid="ent0006" id="entity_JuniperL2circuitCollector"><rect fill="#FFFFFF" height="67.0679" rx="2.5" ry="2.5" style="stroke:#555555;stroke-width:0.5;" width="192.9854" x="555" y="637.5"/><ellipse cx="570" cy="653.5" fill="#ADD1B2" rx="11" ry="11" style="stroke:#181818;stroke-width:1;"/><path d="M572.9375,659.2031 Q572.125,659.6406 571.4219,659.8125 Q570.7188,659.9844 569.9375,659.9844 Q567.4219,659.9844 566.0313,658.2188 Q564.6563,656.4531 564.6563,653.2969 Q564.6563,650.1719 566.0469,648.3906 Q567.4375,646.5938 569.9375,646.5938 Q570.7188,646.5938 571.4219,646.7813 Q572.125,646.9531 572.9375,647.3906 L572.9375,649.8281 Q571.9219,649 571.25,648.75 Q570.5938,648.5 569.9375,648.5 Q568.4375,648.5 567.6875,649.6719 Q566.9375,650.8281 566.9375,653.2969 Q566.9375,655.7656 567.6875,656.9375 Q568.4375,658.0938 569.9375,658.0938 Q570.6094,658.0938 571.2656,657.8438 Q571.9219,657.5938 572.9375,656.7656 L572.9375,659.2031 Z " fill="#000000"/><text fill="#000000" font-family="sans-serif" font-size="14" lengthAdjust="spacing" textLength="160.9854" x="584" y="658.932">JuniperL2circuitCollector</text><line style="stroke:#555555;stroke-width:0.5;" x1="556" x2="746.9854" y1="669.5" y2="669.5"/><line style="stroke:#555555;stroke-width:0.5;" x1="556" x2="746.9854" y1="677.5" y2="677.5"/><text fill="#000000" font-family="sans-serif" font-size="14" lengthAdjust="spacing" textLength="69.7477" x="561" y="696.4659">+collect(...)</text></g><!--class JuniperBridgedomainsCollector--><g class="entity" data-entity="JuniperBridgedomainsCollector" data-source-line="48" data-uid="ent0007" id="entity_JuniperBridgedomainsCollector"><rect fill="#FFFFFF" height="67.0679" rx="2.5" ry="2.5" style="stroke:#555555;stroke-width:0.5;" width="238.0932" x="783.5" y="637.5"/><ellipse cx="798.5" cy="653.5" fill="#ADD1B2" rx="11" ry="11" style="stroke:#181818;stroke-width:1;"/><path d="M801.4375,659.2031 Q800.625,659.6406 799.9219,659.8125 Q799.2188,659.9844 798.4375,659.9844 Q795.9219,659.9844 794.5313,658.2188 Q793.1563,656.4531 793.1563,653.2969 Q793.1563,650.1719 794.5469,648.3906 Q795.9375,646.5938 798.4375,646.5938 Q799.2188,646.5938 799.9219,646.7813 Q800.625,646.9531 801.4375,647.3906 L801.4375,649.8281 Q800.4219,649 799.75,648.75 Q799.0938,648.5 798.4375,648.5 Q796.9375,648.5 796.1875,649.6719 Q795.4375,650.8281 795.4375,653.2969 Q795.4375,655.7656 796.1875,656.9375 Q796.9375,658.0938 798.4375,658.0938 Q799.1094,658.0938 799.7656,657.8438 Q800.4219,657.5938 801.4375,656.7656 L801.4375,659.2031 Z " fill="#000000"/><text fill="#000000" font-family="sans-serif" font-size="14" lengthAdjust="spacing" textLength="206.0932" x="812.5" y="658.932">JuniperBridgedomainsCollector</text><line style="stroke:#555555;stroke-width:0.5;" x1="784.5" x2="1020.5932" y1="669.5" y2="669.5"/><line style="stroke:#555555;stroke-width:0.5;" x1="784.5" x2="1020.5932" y1="677.5" y2="677.5"/><text fill="#000000" font-family="sans-serif" font-size="14" lengthAdjust="spacing" textLength="69.7477" x="789.5" y="696.4659">+collect(...)</text></g><!--class JuniperDownStateCollector--><g class="entity" data-entity="JuniperDownStateCollector" data-source-line="52" data-uid="ent0008" id="entity_JuniperDownStateCollector"><rect fill="#FFFFFF" height="86.1358" rx="2.5" ry="2.5" style="stroke:#555555;stroke-width:0.5;" width="296.5769" x="7" y="628"/><ellipse cx="62.3488" cy="644" fill="#ADD1B2" rx="11" ry="11" style="stroke:#181818;stroke-width:1;"/><path d="M65.2863,649.7031 Q64.4738,650.1406 63.7707,650.3125 Q63.0676,650.4844 62.2863,650.4844 Q59.7707,650.4844 58.3801,648.7188 Q57.0051,646.9531 57.0051,643.7969 Q57.0051,640.6719 58.3957,638.8906 Q59.7863,637.0938 62.2863,637.0938 Q63.0676,637.0938 63.7707,637.2813 Q64.4738,637.4531 65.2863,637.8906 L65.2863,640.3281 Q64.2707,639.5 63.5988,639.25 Q62.9426,639 62.2863,639 Q60.7863,639 60.0363,640.1719 Q59.2863,641.3281 59.2863,643.7969 Q59.2863,646.2656 60.0363,647.4375 Q60.7863,648.5938 62.2863,648.5938 Q62.9582,648.5938 63.6144,648.3438 Q64.2707,648.0938 65.2863,647.2656 L65.2863,649.7031 Z " fill="#000000"/><text fill="#000000" font-family="sans-serif" font-size="14" lengthAdjust="spacing" textLength="177.3793" x="82.8488" y="649.432">JuniperDownStateCollector</text><line style="stroke:#555555;stroke-width:0.5;" x1="8" x2="302.5769" y1="660" y2="660"/><line style="stroke:#555555;stroke-width:0.5;" x1="8" x2="302.5769" y1="668" y2="668"/><text fill="#000000" font-family="sans-serif" font-size="14" lengthAdjust="spacing" textLength="243.0951" x="13" y="686.9659">+collectDownState(hostname: String,</text><text fill="#000000" font-family="sans-serif" font-size="14" lengthAdjust="spacing" textLength="215.4172" x="82.1597" y="706.0339">loAddresses: Map): List&lt;String[]&gt;</text></g><!--class CiscoCollector--><g class="entity" data-entity="CiscoCollector" data-source-line="56" data-uid="ent0009" id="entity_CiscoCollector"><rect fill="#FFFFFF" height="124.2717" rx="2.5" ry="2.5" style="stroke:#555555;stroke-width:0.5;" width="137.5515" x="1239.5" y="243.5"/><ellipse cx="1260.2293" cy="259.5" fill="#ADD1B2" rx="11" ry="11" style="stroke:#181818;stroke-width:1;"/><path d="M1263.1668,265.2031 Q1262.3543,265.6406 1261.6512,265.8125 Q1260.9481,265.9844 1260.1668,265.9844 Q1257.6512,265.9844 1256.2606,264.2188 Q1254.8856,262.4531 1254.8856,259.2969 Q1254.8856,256.1719 1256.2762,254.3906 Q1257.6668,252.5938 1260.1668,252.5938 Q1260.9481,252.5938 1261.6512,252.7813 Q1262.3543,252.9531 1263.1668,253.3906 L1263.1668,255.8281 Q1262.1512,255 1261.4793,254.75 Q1260.8231,254.5 1260.1668,254.5 Q1258.6668,254.5 1257.9168,255.6719 Q1257.1668,256.8281 1257.1668,259.2969 Q1257.1668,261.7656 1257.9168,262.9375 Q1258.6668,264.0938 1260.1668,264.0938 Q1260.8387,264.0938 1261.495,263.8438 Q1262.1512,263.5938 1263.1668,262.7656 L1263.1668,265.2031 Z " fill="#000000"/><text fill="#000000" font-family="sans-serif" font-size="14" lengthAdjust="spacing" textLength="92.8196" x="1275.5025" y="264.932">CiscoCollector</text><line style="stroke:#555555;stroke-width:0.5;" x1="1240.5" x2="1376.0515" y1="275.5" y2="275.5"/><text fill="#000000" font-family="sans-serif" font-size="14" lengthAdjust="spacing" textLength="84.2517" x="1245.5" y="294.4659">-login: String</text><text fill="#000000" font-family="sans-serif" font-size="14" lengthAdjust="spacing" textLength="81.1717" x="1245.5" y="313.5339">-pass: String</text><text fill="#000000" font-family="sans-serif" font-size="14" lengthAdjust="spacing" textLength="125.5515" x="1245.5" y="332.6018">-enablePass: String</text><line style="stroke:#555555;stroke-width:1;" x1="1240.5" x2="1376.0515" y1="340.7038" y2="340.7038"/><text fill="#000000" font-family="sans-serif" font-size="14" lengthAdjust="spacing" textLength="69.7477" x="1245.5" y="359.6697">+collect(...)</text></g><!--class RouterOSCollector--><g class="entity" data-entity="RouterOSCollector" data-source-line="64" data-uid="ent0010" id="entity_RouterOSCollector"><rect fill="#FFFFFF" height="105.2038" rx="2.5" ry="2.5" style="stroke:#555555;stroke-width:0.5;" width="153.6455" x="1412.5" y="253"/><ellipse cx="1427.5" cy="269" fill="#ADD1B2" rx="11" ry="11" style="stroke:#181818;stroke-width:1;"/><path d="M1430.4375,274.7031 Q1429.625,275.1406 1428.9219,275.3125 Q1428.2188,275.4844 1427.4375,275.4844 Q1424.9219,275.4844 1423.5313,273.7188 Q1422.1563,271.9531 1422.1563,268.7969 Q1422.1563,265.6719 1423.5469,263.8906 Q1424.9375,262.0938 1427.4375,262.0938 Q1428.2188,262.0938 1428.9219,262.2813 Q1429.625,262.4531 1430.4375,262.8906 L1430.4375,265.3281 Q1429.4219,264.5 1428.75,264.25 Q1428.0938,264 1427.4375,264 Q1425.9375,264 1425.1875,265.1719 Q1424.4375,266.3281 1424.4375,268.7969 Q1424.4375,271.2656 1425.1875,272.4375 Q1425.9375,273.5938 1427.4375,273.5938 Q1428.1094,273.5938 1428.7656,273.3438 Q1429.4219,273.0938 1430.4375,272.2656 L1430.4375,274.7031 Z " fill="#000000"/><text fill="#000000" font-family="sans-serif" font-size="14" lengthAdjust="spacing" textLength="121.6455" x="1441.5" y="274.432">RouterOSCollector</text><line style="stroke:#555555;stroke-width:0.5;" x1="1413.5" x2="1565.1455" y1="285" y2="285"/><text fill="#000000" font-family="sans-serif" font-size="14" lengthAdjust="spacing" textLength="84.2517" x="1418.5" y="303.9659">-login: String</text><text fill="#000000" font-family="sans-serif" font-size="14" lengthAdjust="spacing" textLength="81.1717" x="1418.5" y="323.0339">-pass: String</text><line style="stroke:#555555;stroke-width:1;" x1="1413.5" x2="1565.1455" y1="331.1358" y2="331.1358"/><text fill="#000000" font-family="sans-serif" font-size="14" lengthAdjust="spacing" textLength="69.7477" x="1418.5" y="350.1018">+collect(...)</text></g><!--class RoutingInstance--><g class="entity" data-entity="RoutingInstance" data-source-line="71" data-uid="ent0011" id="entity_RoutingInstance"><rect fill="#FFFFFF" height="200.5433" rx="2.5" ry="2.5" style="stroke:#555555;stroke-width:0.5;" width="208.2232" x="1021.5" y="793"/><ellipse cx="1067.3428" cy="809" fill="#ADD1B2" rx="11" ry="11" style="stroke:#181818;stroke-width:1;"/><path d="M1070.2803,814.7031 Q1069.4678,815.1406 1068.7647,815.3125 Q1068.0616,815.4844 1067.2803,815.4844 Q1064.7647,815.4844 1063.3741,813.7188 Q1061.9991,811.9531 1061.9991,808.7969 Q1061.9991,805.6719 1063.3897,803.8906 Q1064.7803,802.0938 1067.2803,802.0938 Q1068.0616,802.0938 1068.7647,802.2813 Q1069.4678,802.4531 1070.2803,802.8906 L1070.2803,805.3281 Q1069.2647,804.5 1068.5928,804.25 Q1067.9366,804 1067.2803,804 Q1065.7803,804 1065.0303,805.1719 Q1064.2803,806.3281 1064.2803,808.7969 Q1064.2803,811.2656 1065.0303,812.4375 Q1065.7803,813.5938 1067.2803,813.5938 Q1067.9522,813.5938 1068.6085,813.3438 Q1069.2647,813.0938 1070.2803,812.2656 L1070.2803,814.7031 Z " fill="#000000"/><text fill="#000000" font-family="sans-serif" font-size="14" lengthAdjust="spacing" textLength="108.0376" x="1087.8428" y="814.432">RoutingInstance</text><line style="stroke:#555555;stroke-width:0.5;" x1="1022.5" x2="1228.7232" y1="825" y2="825"/><text fill="#000000" font-family="sans-serif" font-size="14" lengthAdjust="spacing" textLength="88.7877" x="1027.5" y="843.9659">-name: String</text><text fill="#000000" font-family="sans-serif" font-size="14" lengthAdjust="spacing" textLength="79.9957" x="1027.5" y="863.0339">-type: String</text><text fill="#000000" font-family="sans-serif" font-size="14" lengthAdjust="spacing" textLength="65.6878" x="1027.5" y="882.1018">-rd: String</text><text fill="#000000" font-family="sans-serif" font-size="14" lengthAdjust="spacing" textLength="115.9335" x="1027.5" y="901.1697">-hrefname: String</text><text fill="#000000" font-family="sans-serif" font-size="14" lengthAdjust="spacing" textLength="125.6075" x="1027.5" y="920.2376">-hosts: List&lt;String&gt;</text><line style="stroke:#555555;stroke-width:1;" x1="1022.5" x2="1228.7232" y1="928.3396" y2="928.3396"/><text fill="#000000" font-family="sans-serif" font-size="14" lengthAdjust="spacing" text-decoration="underline" textLength="196.2232" x="1027.5" y="947.3055">+merge(instances, vrfVplsList,</text><text fill="#000000" font-family="sans-serif" font-size="14" lengthAdjust="spacing" text-decoration="underline" textLength="99.1196" x="1085.7397" y="966.3734">name, type, rd,</text><text fill="#000000" font-family="sans-serif" font-size="14" lengthAdjust="spacing" text-decoration="underline" textLength="102.6896" x="1085.7397" y="985.4414">hostEntry): void</text></g><!--class HashUtils--><g class="entity" data-entity="HashUtils" data-source-line="81" data-uid="ent0012" id="entity_HashUtils"><rect fill="#FFFFFF" height="86.1358" rx="2.5" ry="2.5" style="stroke:#555555;stroke-width:0.5;" width="246.6111" x="1002" y="1073"/><ellipse cx="1089.6537" cy="1089" fill="#ADD1B2" rx="11" ry="11" style="stroke:#181818;stroke-width:1;"/><path d="M1092.5912,1094.7031 Q1091.7787,1095.1406 1091.0755,1095.3125 Q1090.3724,1095.4844 1089.5912,1095.4844 Q1087.0755,1095.4844 1085.6849,1093.7188 Q1084.3099,1091.9531 1084.3099,1088.7969 Q1084.3099,1085.6719 1085.7005,1083.8906 Q1087.0912,1082.0938 1089.5912,1082.0938 Q1090.3724,1082.0938 1091.0755,1082.2813 Q1091.7787,1082.4531 1092.5912,1082.8906 L1092.5912,1085.3281 Q1091.5755,1084.5 1090.9037,1084.25 Q1090.2474,1084 1089.5912,1084 Q1088.0912,1084 1087.3412,1085.1719 Q1086.5912,1086.3281 1086.5912,1088.7969 Q1086.5912,1091.2656 1087.3412,1092.4375 Q1088.0912,1093.5938 1089.5912,1093.5938 Q1090.263,1093.5938 1090.9193,1093.3438 Q1091.5755,1093.0938 1092.5912,1092.2656 L1092.5912,1094.7031 Z " fill="#000000"/><text fill="#000000" font-family="sans-serif" font-size="14" lengthAdjust="spacing" textLength="62.8038" x="1110.1537" y="1094.432">HashUtils</text><line style="stroke:#555555;stroke-width:0.5;" x1="1003" x2="1247.6111" y1="1105" y2="1105"/><line style="stroke:#555555;stroke-width:0.5;" x1="1003" x2="1247.6111" y1="1113" y2="1113"/><text fill="#000000" font-family="sans-serif" font-size="14" lengthAdjust="spacing" text-decoration="underline" textLength="234.6111" x="1008" y="1131.9659">+computeKey(paddedName: String,</text><text fill="#000000" font-family="sans-serif" font-size="14" lengthAdjust="spacing" text-decoration="underline" textLength="126.4755" x="1091.7196" y="1151.0339">type: String): String</text></g><!--class LoAddressMapper--><g class="entity" data-entity="LoAddressMapper" data-source-line="85" data-uid="ent0013" id="entity_LoAddressMapper"><rect fill="#FFFFFF" height="67.0679" rx="2.5" ry="2.5" style="stroke:#555555;stroke-width:0.5;" width="321.3568" x="265" y="272"/><ellipse cx="361.1726" cy="288" fill="#ADD1B2" rx="11" ry="11" style="stroke:#181818;stroke-width:1;"/><path d="M364.1101,293.7031 Q363.2976,294.1406 362.5945,294.3125 Q361.8914,294.4844 361.1101,294.4844 Q358.5945,294.4844 357.2039,292.7188 Q355.8289,290.9531 355.8289,287.7969 Q355.8289,284.6719 357.2195,282.8906 Q358.6101,281.0938 361.1101,281.0938 Q361.8914,281.0938 362.5945,281.2813 Q363.2976,281.4531 364.1101,281.8906 L364.1101,284.3281 Q363.0945,283.5 362.4226,283.25 Q361.7664,283 361.1101,283 Q359.6101,283 358.8601,284.1719 Q358.1101,285.3281 358.1101,287.7969 Q358.1101,290.2656 358.8601,291.4375 Q359.6101,292.5938 361.1101,292.5938 Q361.782,292.5938 362.4383,292.3438 Q363.0945,292.0938 364.1101,291.2656 L364.1101,293.7031 Z " fill="#000000"/><text fill="#000000" font-family="sans-serif" font-size="14" lengthAdjust="spacing" textLength="120.5116" x="381.6726" y="293.432">LoAddressMapper</text><line style="stroke:#555555;stroke-width:0.5;" x1="266" x2="585.3568" y1="304" y2="304"/><line style="stroke:#555555;stroke-width:0.5;" x1="266" x2="585.3568" y1="312" y2="312"/><text fill="#000000" font-family="sans-serif" font-size="14" lengthAdjust="spacing" text-decoration="underline" textLength="309.3568" x="271" y="330.9659">+build(hosts: List&lt;String&gt;): Map&lt;String, String&gt;</text></g><!--class ConnectionStatus--><g class="entity" data-entity="ConnectionStatus" data-source-line="89" data-uid="ent0014" id="entity_ConnectionStatus"><rect fill="#FFFFFF" height="105.2038" rx="2.5" ry="2.5" style="stroke:#555555;stroke-width:0.5;" width="209.5112" x="50.5" y="841"/><ellipse cx="93.1659" cy="857" fill="#EB937F" rx="11" ry="11" style="stroke:#181818;stroke-width:1;"/><path d="M89.3065,850.5781 L97.1815,850.5781 L97.1815,852.5156 L91.5096,852.5156 L91.5096,855.6563 L96.9315,855.6563 L96.9315,857.5938 L91.5096,857.5938 L91.5096,861.5625 L97.3377,861.5625 L97.3377,863.5 L89.3065,863.5 L89.3065,850.5781 Z " fill="#000000"/><text fill="#000000" font-family="sans-serif" font-size="14" lengthAdjust="spacing" textLength="116.0316" x="113.3138" y="862.432">ConnectionStatus</text><line style="stroke:#555555;stroke-width:0.5;" x1="51.5" x2="259.0112" y1="873" y2="873"/><text fill="#000000" font-family="sans-serif" font-size="14" lengthAdjust="spacing" textLength="148.7494" x="56.5" y="891.9659">EI, NP, MM, OL, RD, LD</text><text fill="#000000" font-family="sans-serif" font-size="14" lengthAdjust="spacing" textLength="114.2675" x="60.14" y="911.0339">NP, VM, BK, ST, ...</text><line style="stroke:#555555;stroke-width:1;" x1="51.5" x2="259.0112" y1="919.1358" y2="919.1358"/><text fill="#000000" font-family="sans-serif" font-size="14" lengthAdjust="spacing" text-decoration="underline" textLength="197.5112" x="56.5" y="938.1018">+describe(code: String): String</text></g><!--class ReportGenerator--><g class="entity" data-entity="ReportGenerator" data-source-line="95" data-uid="ent0015" id="entity_ReportGenerator"><rect fill="#FFFFFF" height="162.4075" rx="2.5" ry="2.5" style="stroke:#555555;stroke-width:0.5;" width="280.0429" x="1055.5" y="436"/><ellipse cx="1135.2227" cy="452" fill="#ADD1B2" rx="11" ry="11" style="stroke:#181818;stroke-width:1;"/><path d="M1138.1602,457.7031 Q1137.3477,458.1406 1136.6445,458.3125 Q1135.9414,458.4844 1135.1602,458.4844 Q1132.6445,458.4844 1131.2539,456.7188 Q1129.8789,454.9531 1129.8789,451.7969 Q1129.8789,448.6719 1131.2695,446.8906 Q1132.6602,445.0938 1135.1602,445.0938 Q1135.9414,445.0938 1136.6445,445.2813 Q1137.3477,445.4531 1138.1602,445.8906 L1138.1602,448.3281 Q1137.1445,447.5 1136.4727,447.25 Q1135.8164,447 1135.1602,447 Q1133.6602,447 1132.9102,448.1719 Q1132.1602,449.3281 1132.1602,451.7969 Q1132.1602,454.2656 1132.9102,455.4375 Q1133.6602,456.5938 1135.1602,456.5938 Q1135.832,456.5938 1136.4883,456.3438 Q1137.1445,456.0938 1138.1602,455.2656 L1138.1602,457.7031 Z " fill="#000000"/><text fill="#000000" font-family="sans-serif" font-size="14" lengthAdjust="spacing" textLength="112.0976" x="1155.7227" y="457.432">ReportGenerator</text><line style="stroke:#555555;stroke-width:0.5;" x1="1056.5" x2="1334.5429" y1="468" y2="468"/><line style="stroke:#555555;stroke-width:0.5;" x1="1056.5" x2="1334.5429" y1="476" y2="476"/><text fill="#000000" font-family="sans-serif" font-size="14" lengthAdjust="spacing" text-decoration="underline" textLength="174.0053" x="1061.5" y="494.9659">+generate(instances: Map,</text><text fill="#000000" font-family="sans-serif" font-size="14" lengthAdjust="spacing" text-decoration="underline" textLength="108.0516" x="1141.5797" y="514.0339">vrfVplsList: Map,</text><text fill="#000000" font-family="sans-serif" font-size="14" lengthAdjust="spacing" text-decoration="underline" textLength="125.0615" x="1141.5797" y="533.1018">outputPath: String,</text><text fill="#000000" font-family="sans-serif" font-size="14" lengthAdjust="spacing" text-decoration="underline" textLength="120.2456" x="1141.5797" y="552.1697">loAddresses: Map,</text><text fill="#000000" font-family="sans-serif" font-size="14" lengthAdjust="spacing" text-decoration="underline" textLength="88.5777" x="1141.5797" y="571.2376">orphans: List,</text><text fill="#000000" font-family="sans-serif" font-size="14" lengthAdjust="spacing" text-decoration="underline" textLength="187.9633" x="1141.5797" y="590.3055">downConnections: List): void</text></g><!--class RoutingInstancesReport--><g class="entity" data-entity="RoutingInstancesReport" data-source-line="99" data-uid="ent0016" id="entity_RoutingInstancesReport"><rect fill="#FFFFFF" height="105.2038" rx="2.5" ry="2.5" style="stroke:#555555;stroke-width:0.5;" width="311.1369" x="815" y="14"/><ellipse cx="886.6867" cy="30" fill="#ADD1B2" rx="11" ry="11" style="stroke:#181818;stroke-width:1;"/><path d="M889.6242,35.7031 Q888.8117,36.1406 888.1086,36.3125 Q887.4055,36.4844 886.6242,36.4844 Q884.1086,36.4844 882.718,34.7188 Q881.343,32.9531 881.343,29.7969 Q881.343,26.6719 882.7336,24.8906 Q884.1242,23.0938 886.6242,23.0938 Q887.4055,23.0938 888.1086,23.2813 Q888.8117,23.4531 889.6242,23.8906 L889.6242,26.3281 Q888.6086,25.5 887.9367,25.25 Q887.2805,25 886.6242,25 Q885.1242,25 884.3742,26.1719 Q883.6242,27.3281 883.6242,29.7969 Q883.6242,32.2656 884.3742,33.4375 Q885.1242,34.5938 886.6242,34.5938 Q887.2961,34.5938 887.9524,34.3438 Q888.6086,34.0938 889.6242,33.2656 L889.6242,35.7031 Z " fill="#000000"/><text fill="#000000" font-family="sans-serif" font-size="14" lengthAdjust="spacing" textLength="159.2634" x="907.1867" y="35.432">RoutingInstancesReport</text><line style="stroke:#555555;stroke-width:0.5;" x1="816" x2="1125.1369" y1="46" y2="46"/><line style="stroke:#555555;stroke-width:0.5;" x1="816" x2="1125.1369" y1="54" y2="54"/><text fill="#000000" font-family="sans-serif" font-size="14" lengthAdjust="spacing" text-decoration="underline" textLength="169.7634" x="821" y="72.9659">+main(args: String[]): void</text><text fill="#000000" font-family="sans-serif" font-size="14" lengthAdjust="spacing" text-decoration="underline" textLength="193.7453" x="821" y="92.0339">-findOrphans(instances: Map,</text><text fill="#000000" font-family="sans-serif" font-size="14" lengthAdjust="spacing" text-decoration="underline" textLength="215.4172" x="904.7196" y="111.1018">loAddresses: Map): List&lt;String[]&gt;</text></g><g class="entity" data-entity="GMN40" data-source-line="135" data-uid="ent0041" id="entity_GMN40"><path d="M967,274 L967,301.5 L932.16,305.5 L967,309.5 L967,337.118 A0,0 0 0 0 967,337.118 L1130.1942,337.118 A0,0 0 0 0 1130.1942,337.118 L1130.1942,284 L1120.1942,274 L967,274 A0,0 0 0 0 967,274" fill="#FEFFDD" style="stroke:#181818;stroke-width:0.5;"/><path d="M1120.1942,274 L1120.1942,284 L1130.1942,284 L1120.1942,274" fill="#FEFFDD" style="stroke:#181818;stroke-width:0.5;"/><text fill="#000000" font-family="sans-serif" font-size="13" lengthAdjust="spacing" textLength="100.6201" x="973" y="292.897">Caches config to</text><text fill="#000000" font-family="sans-serif" font-size="13" lengthAdjust="spacing" textLength="142.1942" x="973" y="310.603">/tmp/juniper-HOST.xml</text><text fill="#000000" font-family="sans-serif" font-size="13" lengthAdjust="spacing" textLength="84.3571" x="973" y="328.309">(readOrFetch)</text></g><!--reverse link Collector to AbstractJuniperCollector--><g class="link" data-entity-1="Collector" data-entity-2="AbstractJuniperCollector" data-source-line="104" data-uid="lnk17" id="link_Collector_AbstractJuniperCollector"><path codeLine="104" d="M1361.5805,136.4532 C1334.6205,155.2732 1317.5,163.82 1285.5,175 C1143.96,224.44 1092.49,159.91 949.5,205 C943.72,206.82 937.92,208.86 932.13,211.08" fill="none" id="Collector-backto-AbstractJuniperCollector" style="stroke:#555555;stroke-width:1;stroke-dasharray:7.0,7.0;"/><polygon fill="none" points="1376.34,126.15,1358.1461,131.5334,1365.0149,141.3731,1376.34,126.15" style="stroke:#555555;stroke-width:1;"/></g><!--reverse link Collector to CiscoCollector--><g class="link" data-entity-1="Collector" data-entity-2="CiscoCollector" data-source-line="105" data-uid="lnk18" id="link_Collector_CiscoCollector"><path codeLine="105" d="M1439.5778,143.7439 C1436.3378,160.2739 1434.66,160.14 1426.5,175 C1417.28,191.81 1408.71,191.1 1395.5,205 C1383.96,217.14 1371.92,230.45 1360.62,243.27" fill="none" id="Collector-backto-CiscoCollector" style="stroke:#555555;stroke-width:1;stroke-dasharray:7.0,7.0;"/><polygon fill="none" points="1443.04,126.08,1433.6898,142.5898,1445.4657,144.898,1443.04,126.08" style="stroke:#555555;stroke-width:1;"/></g><!--reverse link Collector to RouterOSCollector--><g class="link" data-entity-1="Collector" data-entity-2="RouterOSCollector" data-source-line="106" data-uid="lnk19" id="link_Collector_RouterOSCollector"><path codeLine="106" d="M1465.364,144.0431 C1467.414,153.9031 1465.76,146.41 1467.5,156 C1473.31,188.06 1478.69,224.21 1482.68,252.82" fill="none" id="Collector-backto-RouterOSCollector" style="stroke:#555555;stroke-width:1;stroke-dasharray:7.0,7.0;"/><polygon fill="none" points="1461.7,126.42,1459.4897,145.2645,1471.2384,142.8218,1461.7,126.42" style="stroke:#555555;stroke-width:1;"/></g><!--reverse link AbstractJuniperCollector to JuniperCollector--><g class="link" data-entity-1="AbstractJuniperCollector" data-entity-2="JuniperCollector" data-source-line="108" data-uid="lnk20" id="link_AbstractJuniperCollector_JuniperCollector"><path codeLine="108" d="M870.7043,419.8351 C920.3543,477.8451 974.3,537.55 1037.5,598 C1051.62,611.51 1067.98,625.34 1082.74,637.22" fill="none" id="AbstractJuniperCollector-backto-JuniperCollector" style="stroke:#555555;stroke-width:1;"/><polygon fill="none" points="859,406.16,866.146,423.7365,875.2627,415.9337,859,406.16" style="stroke:#555555;stroke-width:1;"/></g><!--reverse link AbstractJuniperCollector to JuniperSwitchCollector--><g class="link" data-entity-1="AbstractJuniperCollector" data-entity-2="JuniperSwitchCollector" data-source-line="109" data-uid="lnk21" id="link_AbstractJuniperCollector_JuniperSwitchCollector"><path codeLine="109" d="M668.7909,419.3299 C595.1609,496.4599 510.18,585.48 460.91,637.09" fill="none" id="AbstractJuniperCollector-backto-JuniperSwitchCollector" style="stroke:#555555;stroke-width:1;"/><polygon fill="none" points="681.22,406.31,664.4509,415.1869,673.1309,423.4729,681.22,406.31" style="stroke:#555555;stroke-width:1;"/></g><!--reverse link AbstractJuniperCollector to JuniperL2circuitCollector--><g class="link" data-entity-1="AbstractJuniperCollector" data-entity-2="JuniperL2circuitCollector" data-source-line="110" data-uid="lnk22" id="link_AbstractJuniperCollector_JuniperL2circuitCollector"><path codeLine="110" d="M736.3253,423.3312 C709.7953,500.4612 680.56,585.48 662.82,637.09" fill="none" id="AbstractJuniperCollector-backto-JuniperL2circuitCollector" style="stroke:#555555;stroke-width:1;"/><polygon fill="none" points="742.18,406.31,730.6516,421.3797,741.999,425.2828,742.18,406.31" style="stroke:#555555;stroke-width:1;"/></g><!--reverse link AbstractJuniperCollector to JuniperBridgedomainsCollector--><g class="link" data-entity-1="AbstractJuniperCollector" data-entity-2="JuniperBridgedomainsCollector" data-source-line="111" data-uid="lnk23" id="link_AbstractJuniperCollector_JuniperBridgedomainsCollector"><path codeLine="111" d="M816.9941,423.3176 C843.7241,500.4476 873.2,585.48 891.09,637.09" fill="none" id="AbstractJuniperCollector-backto-JuniperBridgedomainsCollector" style="stroke:#555555;stroke-width:1;"/><polygon fill="none" points="811.1,406.31,811.3249,425.2823,822.6633,421.3529,811.1,406.31" style="stroke:#555555;stroke-width:1;"/></g><!--reverse link AbstractJuniperCollector to JuniperDownStateCollector--><g class="link" data-entity-1="AbstractJuniperCollector" data-entity-2="JuniperDownStateCollector" data-source-line="112" data-uid="lnk24" id="link_AbstractJuniperCollector_JuniperDownStateCollector"><path codeLine="112" d="M604.5258,405.8927 C598.7158,408.5827 609.25,403.58 603.5,406 C557.96,425.13 541.24,415.08 496.5,436 C384.63,488.31 269.15,575.96 205.41,627.85" fill="none" id="AbstractJuniperCollector-backto-JuniperDownStateCollector" style="stroke:#555555;stroke-width:1;"/><polygon fill="none" points="620.86,398.33,602.0049,400.4479,607.0467,411.3374,620.86,398.33" style="stroke:#555555;stroke-width:1;"/></g><!--link RoutingInstancesReport to AbstractJuniperCollector--><g class="link" data-entity-1="RoutingInstancesReport" data-entity-2="AbstractJuniperCollector" data-source-line="114" data-uid="lnk25" id="link_RoutingInstancesReport_AbstractJuniperCollector"><path codeLine="114" d="M928.17,119.22 C907.65,144.28 886.0909,170.6175 862.0209,200.0175" fill="none" id="RoutingInstancesReport-to-AbstractJuniperCollector" style="stroke:#555555;stroke-width:1;"/><polygon fill="#555555" points="858.22,204.66,867.0164,200.2301,861.3874,200.7912,860.8263,195.1623,858.22,204.66" style="stroke:#555555;stroke-width:1;"/><text fill="#000000" font-family="sans-serif" font-size="13" lengthAdjust="spacing" textLength="44.486" x="898.5" y="170.897">creates</text><text fill="#000000" font-family="sans-serif" font-size="13" lengthAdjust="spacing" textLength="7.436" x="857.218" y="193.2302">4</text></g><!--link RoutingInstancesReport to JuniperDownStateCollector--><g class="link" data-entity-1="RoutingInstancesReport" data-entity-2="JuniperDownStateCollector" data-source-line="115" data-uid="lnk26" id="link_RoutingInstancesReport_JuniperDownStateCollector"><path codeLine="115" d="M814.6,73.79 C614.19,85.38 282.35,117.55 201.5,205 C92.32,323.09 123.3468,531.2932 143.4968,621.8532" fill="none" id="RoutingInstancesReport-to-JuniperDownStateCollector" style="stroke:#555555;stroke-width:1;"/><polygon fill="#555555" points="144.8,627.71,146.7498,618.0561,143.714,622.8294,138.9407,619.7936,144.8,627.71" style="stroke:#555555;stroke-width:1;"/><text fill="#000000" font-family="sans-serif" font-size="13" lengthAdjust="spacing" textLength="44.486" x="202.5" y="310.897">creates</text></g><!--link RoutingInstancesReport to CiscoCollector--><g class="link" data-entity-1="RoutingInstancesReport" data-entity-2="CiscoCollector" data-source-line="116" data-uid="lnk27" id="link_RoutingInstancesReport_CiscoCollector"><path codeLine="116" d="M1126.28,107.1 C1157.17,119.5 1187.92,135.51 1213.5,156 C1242.4,179.16 1262.3649,208.3121 1278.3849,238.1921" fill="none" id="RoutingInstancesReport-to-CiscoCollector" style="stroke:#555555;stroke-width:1;"/><polygon fill="#555555" points="1281.22,243.48,1280.4926,233.658,1278.8574,239.0734,1273.4421,237.4382,1281.22,243.48" style="stroke:#555555;stroke-width:1;"/><text fill="#000000" font-family="sans-serif" font-size="13" lengthAdjust="spacing" textLength="44.486" x="1232.5" y="170.897">creates</text></g><!--link RoutingInstancesReport to RouterOSCollector--><g class="link" data-entity-1="RoutingInstancesReport" data-entity-2="RouterOSCollector" data-source-line="117" data-uid="lnk28" id="link_RoutingInstancesReport_RouterOSCollector"><path codeLine="117" d="M1126.05,94.1 C1211.36,114.25 1315.69,148.45 1395.5,205 C1414.5,218.46 1428.6919,231.7623 1443.9519,248.5323" fill="none" id="RoutingInstancesReport-to-RouterOSCollector" style="stroke:#555555;stroke-width:1;"/><polygon fill="#555555" points="1447.99,252.97,1444.8913,243.6213,1444.6249,249.2719,1438.9743,249.0055,1447.99,252.97" style="stroke:#555555;stroke-width:1;"/><text fill="#000000" font-family="sans-serif" font-size="13" lengthAdjust="spacing" textLength="44.486" x="1344.5" y="170.897">creates</text></g><!--link RoutingInstancesReport to LoAddressMapper--><g class="link" data-entity-1="RoutingInstancesReport" data-entity-2="LoAddressMapper" data-source-line="118" data-uid="lnk29" id="link_RoutingInstancesReport_LoAddressMapper"><path codeLine="118" d="M817.05,119.13 C750.47,143.03 672.17,173.16 603.5,205 C560.46,224.95 518.8754,248.2274 484.0854,268.7874" fill="none" id="RoutingInstancesReport-to-LoAddressMapper" style="stroke:#555555;stroke-width:1;"/><polygon fill="#555555" points="478.92,271.84,488.7032,270.7047,483.2245,269.2961,484.633,263.8175,478.92,271.84" style="stroke:#555555;stroke-width:1;"/><text fill="#000000" font-family="sans-serif" font-size="13" lengthAdjust="spacing" textLength="27.82" x="713.5" y="170.897">uses</text></g><!--link RoutingInstancesReport to ReportGenerator--><g class="link" data-entity-1="RoutingInstancesReport" data-entity-2="ReportGenerator" data-source-line="119" data-uid="lnk30" id="link_RoutingInstancesReport_ReportGenerator"><path codeLine="119" d="M1062.82,119.12 C1094.56,141.45 1127.18,170.45 1147.5,205 C1188.91,275.4 1198.2702,363.6403 1198.9302,429.8603" fill="none" id="RoutingInstancesReport-to-ReportGenerator" style="stroke:#555555;stroke-width:1;"/><polygon fill="#555555" points="1198.99,435.86,1202.9001,426.8206,1198.9402,430.8602,1194.9005,426.9003,1198.99,435.86" style="stroke:#555555;stroke-width:1;"/><text fill="#000000" font-family="sans-serif" font-size="13" lengthAdjust="spacing" textLength="27.82" x="1126.5" y="170.897">uses</text></g><!--link ReportGenerator to RoutingInstance--><g class="link" data-entity-1="ReportGenerator" data-entity-2="RoutingInstance" data-source-line="121" data-uid="lnk31" id="link_ReportGenerator_RoutingInstance"><path codeLine="121" d="M1213.01,598.42 C1218,634.17 1220.05,676.56 1211.5,714 C1205.41,740.66 1197.3577,762.5477 1185.6377,787.5377" fill="none" id="ReportGenerator-to-RoutingInstance" style="stroke:#555555;stroke-width:1;"/><polygon fill="#555555" points="1183.09,792.97,1190.533,786.5201,1185.2131,788.4431,1183.29,783.1232,1183.09,792.97" style="stroke:#555555;stroke-width:1;"/><text fill="#000000" font-family="sans-serif" font-size="13" lengthAdjust="spacing" textLength="34.216" x="1218.5" y="676.397">reads</text></g><!--link JuniperCollector to RoutingInstance--><g class="link" data-entity-1="JuniperCollector" data-entity-2="RoutingInstance" data-source-line="123" data-uid="lnk32" id="link_JuniperCollector_RoutingInstance"><path codeLine="123" d="M1125.5,704.54 C1125.5,728.02 1125.5,755.06 1125.5,786.91" fill="none" id="JuniperCollector-to-RoutingInstance" style="stroke:#555555;stroke-width:1;stroke-dasharray:7.0,7.0;"/><polygon fill="#555555" points="1125.5,792.91,1129.5,783.91,1125.5,787.91,1121.5,783.91,1125.5,792.91" style="stroke:#555555;stroke-width:1;"/><text fill="#000000" font-family="sans-serif" font-size="13" lengthAdjust="spacing" textLength="47.983" x="1126.5" y="758.897">merge()</text></g><!--link JuniperSwitchCollector to RoutingInstance--><g class="link" data-entity-1="JuniperSwitchCollector" data-entity-2="RoutingInstance" data-source-line="124" data-uid="lnk33" id="link_JuniperSwitchCollector_RoutingInstance"><path codeLine="124" d="M511.22,704.54 C520.06,707.83 528.94,711.04 537.5,714 C705.26,771.99 897.5478,828.3625 1015.6678,861.8725" fill="none" id="JuniperSwitchCollector-to-RoutingInstance" style="stroke:#555555;stroke-width:1;stroke-dasharray:7.0,7.0;"/><polygon fill="#555555" points="1021.44,863.51,1013.8734,857.2055,1016.6298,862.1454,1011.69,864.9018,1021.44,863.51" style="stroke:#555555;stroke-width:1;"/><text fill="#000000" font-family="sans-serif" font-size="13" lengthAdjust="spacing" textLength="47.983" x="683.5" y="758.897">merge()</text></g><!--link JuniperL2circuitCollector to RoutingInstance--><g class="link" data-entity-1="JuniperL2circuitCollector" data-entity-2="RoutingInstance" data-source-line="125" data-uid="lnk34" id="link_JuniperL2circuitCollector_RoutingInstance"><path codeLine="125" d="M721.44,704.54 C800.5,741.31 924.5797,799.0396 1015.6297,841.3896" fill="none" id="JuniperL2circuitCollector-to-RoutingInstance" style="stroke:#555555;stroke-width:1;stroke-dasharray:7.0,7.0;"/><polygon fill="#555555" points="1021.07,843.92,1014.5965,836.4975,1016.5364,841.8113,1011.2226,843.7512,1021.07,843.92" style="stroke:#555555;stroke-width:1;"/><text fill="#000000" font-family="sans-serif" font-size="13" lengthAdjust="spacing" textLength="47.983" x="847.5" y="758.897">merge()</text></g><!--link JuniperBridgedomainsCollector to RoutingInstance--><g class="link" data-entity-1="JuniperBridgedomainsCollector" data-entity-2="RoutingInstance" data-source-line="126" data-uid="lnk35" id="link_JuniperBridgedomainsCollector_RoutingInstance"><path codeLine="126" d="M935.4,704.54 C959.15,728.02 988.3029,756.8419 1020.5229,788.6919" fill="none" id="JuniperBridgedomainsCollector-to-RoutingInstance" style="stroke:#555555;stroke-width:1;stroke-dasharray:7.0,7.0;"/><polygon fill="#555555" points="1024.79,792.91,1021.2014,783.7382,1021.2341,789.3949,1015.5773,789.4276,1024.79,792.91" style="stroke:#555555;stroke-width:1;"/><text fill="#000000" font-family="sans-serif" font-size="13" lengthAdjust="spacing" textLength="47.983" x="995.5" y="758.897">merge()</text></g><!--link CiscoCollector to RoutingInstance--><g class="link" data-entity-1="CiscoCollector" data-entity-2="RoutingInstance" data-source-line="127" data-uid="lnk36" id="link_CiscoCollector_RoutingInstance"><path codeLine="127" d="M1332.58,367.7 C1352.58,427.72 1373.99,521.15 1348.5,598 C1324.32,670.89 1277.9411,735.5322 1231.1911,788.4822" fill="none" id="CiscoCollector-to-RoutingInstance" style="stroke:#555555;stroke-width:1;stroke-dasharray:7.0,7.0;"/><polygon fill="#555555" points="1227.22,792.98,1236.1752,788.8807,1230.5293,789.2318,1230.1782,783.5859,1227.22,792.98" style="stroke:#555555;stroke-width:1;"/><text fill="#000000" font-family="sans-serif" font-size="13" lengthAdjust="spacing" textLength="47.983" x="1337.5" y="676.397">merge()</text></g><!--link RouterOSCollector to RoutingInstance--><g class="link" data-entity-1="RouterOSCollector" data-entity-2="RoutingInstance" data-source-line="128" data-uid="lnk37" id="link_RouterOSCollector_RoutingInstance"><path codeLine="128" d="M1489.14,358 C1486.15,440.38 1470.13,603.73 1393.5,714 C1352.83,772.53 1291.4951,814.2371 1234.8451,844.1671" fill="none" id="RouterOSCollector-to-RoutingInstance" style="stroke:#555555;stroke-width:1;stroke-dasharray:7.0,7.0;"/><polygon fill="#555555" points="1229.54,846.97,1239.3662,846.3025,1233.9609,844.6343,1235.6291,839.229,1229.54,846.97" style="stroke:#555555;stroke-width:1;"/><text fill="#000000" font-family="sans-serif" font-size="13" lengthAdjust="spacing" textLength="47.983" x="1437.5" y="676.397">merge()</text></g><!--link JuniperDownStateCollector to ConnectionStatus--><g class="link" data-entity-1="JuniperDownStateCollector" data-entity-2="ConnectionStatus" data-source-line="130" data-uid="lnk38" id="link_JuniperDownStateCollector_ConnectionStatus"><path codeLine="130" d="M155.5,714.25 C155.5,750.27 155.5,796.16 155.5,834.68" fill="none" id="JuniperDownStateCollector-to-ConnectionStatus" style="stroke:#555555;stroke-width:1;stroke-dasharray:7.0,7.0;"/><polygon fill="#555555" points="155.5,840.68,159.5,831.68,155.5,835.68,151.5,831.68,155.5,840.68" style="stroke:#555555;stroke-width:1;"/><text fill="#000000" font-family="sans-serif" font-size="13" lengthAdjust="spacing" textLength="59.6441" x="156.5" y="758.897">describe()</text></g><!--link RoutingInstance to HashUtils--><g class="link" data-entity-1="RoutingInstance" data-entity-2="HashUtils" data-source-line="132" data-uid="lnk39" id="link_RoutingInstance_HashUtils"><path codeLine="132" d="M1125.5,994.11 C1125.5,1021.84 1125.5,1044.48 1125.5,1066.92" fill="none" id="RoutingInstance-to-HashUtils" style="stroke:#555555;stroke-width:1;stroke-dasharray:7.0,7.0;"/><polygon fill="#555555" points="1125.5,1072.92,1129.5,1063.92,1125.5,1067.92,1121.5,1063.92,1125.5,1072.92" style="stroke:#555555;stroke-width:1;"/><text fill="#000000" font-family="sans-serif" font-size="13" lengthAdjust="spacing" textLength="84.1231" x="1126.5" y="1038.897">computeKey()</text></g><!--SRC=[fLTRRzis57xNho2Q5ncJtM3eW4080kHYhrcT2-9U1dHze4bQuYgH0aaroTh-znrTJKcchMnyIA33S-Dt3iz7wwzSP5ZX5944QtrkZEBhtB1h8iMA_yFGiQTR5HrZAX-vYD069vfPEwKn-kuXM1UOV8sKp0Mzb8bKw5FC3QjsfA9CLTAZtyfLoi-LaezTyK_BEHU6gGqcp17WQ7woU3C_SOQmVU6rDWeJutArM2nEviUZN36Hfqutnv3JOeyRRties4eOCR1zUjfApyvgrx-GQjkFfJO2fon4AwYHY8A_16eM5zfWGPWEqGtEx9rlQlCnI_IIQrFkJKBqJN9QPD12KHNllFxy8nSyAnEkiwhoc2Ooug89NeaoiEjAfkM_8yKmlLCBPaWyo7lIiJW2B3NxCqtyfpInLAuaoLCcJAN4dihK7YHqfhe5PpwL941FML1qOh86-7jkDqNiM_WZnUPG2gNkGqRqNemHKg0IeWBAqshxRDBzB52jm7I0s1PpDfjD1jghHmw9lCnc-IlXYkJSlCpiGd4QCIfJ3AtpCjCh-IXM1XlcCciL3i3Ph4IUKwgOrdNxTa7z_CM2zP9h8lzRPpA1rmcxTtIiuyXLmzsj_izbsECQDA_hcziujk6g9EOvwqaKxNx7Ycs6TWNulNRjfFKT0XjEVgAKgOZvxGW9x9cnes95f00LMGL8qHqAHU2vCEhPcZNLcTzY7NymF6cOOfi3aMa6KBzZptw6AMNqzc3R5Cl6PdkfstZBfhEWgw1p1r7NEK-elmEeITc8zLU0hEjT3lrBAGHKbCkop_FcEFFh0DtU1-Zc9a1tom0zN0LeUGN95yAF8Bnu1xxU1mWwONSfADC4-9VvHD9z1tjWcLJcToQOmjO5RFr4rOvLrG4nT5QV9PoAqBHGftjiueF5wLzhjq-LnLZK5N1gmSD3R76ljGSTrhjLkW9gW4ynzdoielR2VlxIk2hhqYfkk00YA_CRY-MuUMQH_e_Pp4c-VRtk0Epl3iQLvpbP_VJ7T3gWgN7gFPuQPpGagd5skvbgdEsGgZpFqI7JwHbwzUQL-nKK8WAl6iFqFWzkYXnbtgEtKJP3YXfbrX-D8ShrWK2zcLDRU7rvavHDRY4gNeIWF81rDjkbNL7In7CyZ4OPxNWPZR9pF8tss_OgjrzvMBBz-fwxhGh30Hk5MnwP31g-DDaISMXJBsWBQHXIF8eDaXltM4Be4fEOQLIyhtc4Z0JHQvDch_-kLATlxrRlP_2c1xbl_HoO08DIL4Jn_WK0]--></g></svg>