<svg xmlns="http://www.w3.org/2000/svg" xmlns:xlink="http://www.w3.org/1999/xlink" contentStyleType="text/css" data-diagram-type="CLASS" height="991px" preserveAspectRatio="none" style="width:1561px;height:991px;background:#FFFFFF;" version="1.1" viewBox="0 0 1561 991" width="1561px" zoomAndPan="magnify"><defs/><g><!--class Collector--><g class="entity" data-entity="Collector" data-source-line="17" data-uid="ent0002" id="entity_Collector"><rect fill="#FFFFFF" height="105.1563" rx="2.5" ry="2.5" style="stroke:#555555;stroke-width:0.5;" width="208.1094" x="676" y="7"/><ellipse cx="743.7031" cy="27.1328" fill="#B4A7E5" rx="11" ry="11" style="stroke:#181818;stroke-width:1;"/><path d="M739.625,22.8984 L739.625,20.7422 L747.0156,20.7422 L747.0156,22.8984 L744.5469,22.8984 L744.5469,30.9766 L747.0156,30.9766 L747.0156,33.1328 L739.625,33.1328 L739.625,30.9766 L742.0938,30.9766 L742.0938,22.8984 L739.625,22.8984 Z " fill="#000000"/><text fill="#000000" font-family="sans-serif" font-size="12" font-style="italic" lengthAdjust="spacing" textLength="68.2031" x="762.2031" y="23.1387">&#171;interface&#187;</text><text fill="#000000" font-family="sans-serif" font-size="14" font-style="italic" lengthAdjust="spacing" textLength="62.2412" x="765.1841" y="38.9639">Collector</text><line style="stroke:#555555;stroke-width:0.5;" x1="677" x2="883.1094" y1="47.2656" y2="47.2656"/><line style="stroke:#555555;stroke-width:0.5;" x1="677" x2="883.1094" y1="55.2656" y2="55.2656"/><text fill="#000000" font-family="sans-serif" font-size="14" lengthAdjust="spacing" textLength="188.3574" x="682" y="72.2607">+collect(hostname: String,</text><text fill="#000000" font-family="sans-serif" font-size="14" lengthAdjust="spacing" textLength="109.7646" x="722.0518" y="88.5576">instances: Map,</text><text fill="#000000" font-family="sans-serif" font-size="14" lengthAdjust="spacing" textLength="156.0576" x="722.0518" y="104.8545">vrfVplsList: Map): void</text></g><!--class AbstractJuniperCollector--><g class="entity" data-entity="AbstractJuniperCollector" data-source-line="21" data-uid="ent0003" id="entity_AbstractJuniperCollector"><rect fill="#FFFFFF" height="145.7813" rx="2.5" ry="2.5" style="stroke:#555555;stroke-width:0.5;" width="338.5186" x="377.5" y="189"/><ellipse cx="457.4941" cy="205" fill="#A9DCDF" rx="11" ry="11" style="stroke:#181818;stroke-width:1;"/><path d="M457.6035,200.3438 L456.4473,205.4219 L458.7754,205.4219 L457.6035,200.3438 Z M456.1191,198.1094 L459.1035,198.1094 L462.4629,210.5 L460.0098,210.5 L459.2441,207.4375 L455.9629,207.4375 L455.2129,210.5 L452.7754,210.5 L456.1191,198.1094 Z " fill="#000000"/><text fill="#000000" font-family="sans-serif" font-size="14" font-style="italic" lengthAdjust="spacing" textLength="170.0303" x="477.9941" y="209.8467">AbstractJuniperCollector</text><line style="stroke:#555555;stroke-width:0.5;" x1="378.5" x2="715.0186" y1="221" y2="221"/><text fill="#000000" font-family="sans-serif" font-size="14" lengthAdjust="spacing" textLength="90.1045" x="383.5" y="237.9951">-login: String</text><text fill="#000000" font-family="sans-serif" font-size="14" lengthAdjust="spacing" textLength="88.0537" x="383.5" y="254.292">-pass: String</text><line style="stroke:#555555;stroke-width:1;" x1="378.5" x2="715.0186" y1="261.5938" y2="261.5938"/><text fill="#000000" font-family="sans-serif" font-size="14" lengthAdjust="spacing" textLength="281.8115" x="383.5" y="278.5889">#readOrFetch(hostname: String): String</text><text fill="#000000" font-family="sans-serif" font-size="14" lengthAdjust="spacing" textLength="247.3584" x="383.5" y="294.8857">#parseXml(xml: String): Document</text><text fill="#000000" font-family="sans-serif" font-size="14" lengthAdjust="spacing" textLength="326.5186" x="383.5" y="311.1826">#extractRouterName(doc, xp, fallback): String</text><text fill="#000000" font-family="sans-serif" font-size="14" lengthAdjust="spacing" textLength="284.7168" x="383.5" y="327.4795">#fetchNetconf(hostname: String): String</text></g><!--class JuniperCollector--><g class="entity" data-entity="JuniperCollector" data-source-line="31" data-uid="ent0004" id="entity_JuniperCollector"><rect fill="#FFFFFF" height="64.2969" rx="2.5" ry="2.5" style="stroke:#555555;stroke-width:0.5;" width="143.2617" x="41.5" y="508"/><ellipse cx="56.5" cy="524" fill="#ADD1B2" rx="11" ry="11" style="stroke:#181818;stroke-width:1;"/><path d="M59.4688,529.6406 Q58.8906,529.9375 58.25,530.0781 Q57.6094,530.2344 56.9063,530.2344 Q54.4063,530.2344 53.0781,528.5938 Q51.7656,526.9375 51.7656,523.8125 Q51.7656,520.6875 53.0781,519.0313 Q54.4063,517.375 56.9063,517.375 Q57.6094,517.375 58.25,517.5313 Q58.9063,517.6875 59.4688,517.9844 L59.4688,520.7031 Q58.8438,520.125 58.25,519.8594 Q57.6563,519.5781 57.0313,519.5781 Q55.6875,519.5781 55,520.6563 Q54.3125,521.7188 54.3125,523.8125 Q54.3125,525.9063 55,526.9844 Q55.6875,528.0469 57.0313,528.0469 Q57.6563,528.0469 58.25,527.7813 Q58.8438,527.5 59.4688,526.9219 L59.4688,529.6406 Z " fill="#000000"/><text fill="#000000" font-family="sans-serif" font-size="14" lengthAdjust="spacing" textLength="111.2617" x="70.5" y="528.8467">JuniperCollector</text><line style="stroke:#555555;stroke-width:0.5;" x1="42.5" x2="183.7617" y1="540" y2="540"/><line style="stroke:#555555;stroke-width:0.5;" x1="42.5" x2="183.7617" y1="548" y2="548"/><text fill="#000000" font-family="sans-serif" font-size="14" lengthAdjust="spacing" textLength="81.8467" x="47.5" y="564.9951">+collect(...)</text></g><!--class JuniperSwitchCollector--><g class="entity" data-entity="JuniperSwitchCollector" data-source-line="35" data-uid="ent0005" id="entity_JuniperSwitchCollector"><rect fill="#FFFFFF" height="64.2969" rx="2.5" ry="2.5" style="stroke:#555555;stroke-width:0.5;" width="189.5479" x="220" y="508"/><ellipse cx="235" cy="524" fill="#ADD1B2" rx="11" ry="11" style="stroke:#181818;stroke-width:1;"/><path d="M237.9688,529.6406 Q237.3906,529.9375 236.75,530.0781 Q236.1094,530.2344 235.4063,530.2344 Q232.9063,530.2344 231.5781,528.5938 Q230.2656,526.9375 230.2656,523.8125 Q230.2656,520.6875 231.5781,519.0313 Q232.9063,517.375 235.4063,517.375 Q236.1094,517.375 236.75,517.5313 Q237.4063,517.6875 237.9688,517.9844 L237.9688,520.7031 Q237.3438,520.125 236.75,519.8594 Q236.1563,519.5781 235.5313,519.5781 Q234.1875,519.5781 233.5,520.6563 Q232.8125,521.7188 232.8125,523.8125 Q232.8125,525.9063 233.5,526.9844 Q234.1875,528.0469 235.5313,528.0469 Q236.1563,528.0469 236.75,527.7813 Q237.3438,527.5 237.9688,526.9219 L237.9688,529.6406 Z " fill="#000000"/><text fill="#000000" font-family="sans-serif" font-size="14" lengthAdjust="spacing" textLength="157.5479" x="249" y="528.8467">JuniperSwitchCollector</text><line style="stroke:#555555;stroke-width:0.5;" x1="221" x2="408.5479" y1="540" y2="540"/><line style="stroke:#555555;stroke-width:0.5;" x1="221" x2="408.5479" y1="548" y2="548"/><text fill="#000000" font-family="sans-serif" font-size="14" lengthAdjust="spacing" textLength="81.8467" x="226" y="564.9951">+collect(...)</text></g><!--class JuniperL2circuitCollector--><g class="entity" data-entity="JuniperL2circuitCollector" data-source-line="39" data-uid="ent0006" id="entity_JuniperL2circuitCollector"><rect fill="#FFFFFF" height="64.2969" rx="2.5" ry="2.5" style="stroke:#555555;stroke-width:0.5;" width="203.2607" x="445.5" y="508"/><ellipse cx="460.5" cy="524" fill="#ADD1B2" rx="11" ry="11" style="stroke:#181818;stroke-width:1;"/><path d="M463.4688,529.6406 Q462.8906,529.9375 462.25,530.0781 Q461.6094,530.2344 460.9063,530.2344 Q458.4063,530.2344 457.0781,528.5938 Q455.7656,526.9375 455.7656,523.8125 Q455.7656,520.6875 457.0781,519.0313 Q458.4063,517.375 460.9063,517.375 Q461.6094,517.375 462.25,517.5313 Q462.9063,517.6875 463.4688,517.9844 L463.4688,520.7031 Q462.8438,520.125 462.25,519.8594 Q461.6563,519.5781 461.0313,519.5781 Q459.6875,519.5781 459,520.6563 Q458.3125,521.7188 458.3125,523.8125 Q458.3125,525.9063 459,526.9844 Q459.6875,528.0469 461.0313,528.0469 Q461.6563,528.0469 462.25,527.7813 Q462.8438,527.5 463.4688,526.9219 L463.4688,529.6406 Z " fill="#000000"/><text fill="#000000" font-family="sans-serif" font-size="14" lengthAdjust="spacing" textLength="171.2607" x="474.5" y="528.8467">JuniperL2circuitCollector</text><line style="stroke:#555555;stroke-width:0.5;" x1="446.5" x2="647.7607" y1="540" y2="540"/><line style="stroke:#555555;stroke-width:0.5;" x1="446.5" x2="647.7607" y1="548" y2="548"/><text fill="#000000" font-family="sans-serif" font-size="14" lengthAdjust="spacing" textLength="81.8467" x="451.5" y="564.9951">+collect(...)</text></g><!--class JuniperBridgedomainsCollector--><g class="entity" data-entity="JuniperBridgedomainsCollector" data-source-line="43" data-uid="ent0007" id="entity_JuniperBridgedomainsCollector"><rect fill="#FFFFFF" height="64.2969" rx="2.5" ry="2.5" style="stroke:#555555;stroke-width:0.5;" width="248.624" x="683.5" y="508"/><ellipse cx="698.5" cy="524" fill="#ADD1B2" rx="11" ry="11" style="stroke:#181818;stroke-width:1;"/><path d="M701.4688,529.6406 Q700.8906,529.9375 700.25,530.0781 Q699.6094,530.2344 698.9063,530.2344 Q696.4063,530.2344 695.0781,528.5938 Q693.7656,526.9375 693.7656,523.8125 Q693.7656,520.6875 695.0781,519.0313 Q696.4063,517.375 698.9063,517.375 Q699.6094,517.375 700.25,517.5313 Q700.9063,517.6875 701.4688,517.9844 L701.4688,520.7031 Q700.8438,520.125 700.25,519.8594 Q699.6563,519.5781 699.0313,519.5781 Q697.6875,519.5781 697,520.6563 Q696.3125,521.7188 696.3125,523.8125 Q696.3125,525.9063 697,526.9844 Q697.6875,528.0469 699.0313,528.0469 Q699.6563,528.0469 700.25,527.7813 Q700.8438,527.5 701.4688,526.9219 L701.4688,529.6406 Z " fill="#000000"/><text fill="#000000" font-family="sans-serif" font-size="14" lengthAdjust="spacing" textLength="216.624" x="712.5" y="528.8467">JuniperBridgedomainsCollector</text><line style="stroke:#555555;stroke-width:0.5;" x1="684.5" x2="931.124" y1="540" y2="540"/><line style="stroke:#555555;stroke-width:0.5;" x1="684.5" x2="931.124" y1="548" y2="548"/><text fill="#000000" font-family="sans-serif" font-size="14" lengthAdjust="spacing" textLength="81.8467" x="689.5" y="564.9951">+collect(...)</text></g><!--class CiscoCollector--><g class="entity" data-entity="CiscoCollector" data-source-line="47" data-uid="ent0008" id="entity_CiscoCollector"><rect fill="#FFFFFF" height="113.1875" rx="2.5" ry="2.5" style="stroke:#555555;stroke-width:0.5;" width="147.0645" x="751.5" y="205.5"/><ellipse cx="773.5207" cy="221.5" fill="#ADD1B2" rx="11" ry="11" style="stroke:#181818;stroke-width:1;"/><path d="M776.4895,227.1406 Q775.9113,227.4375 775.2707,227.5781 Q774.6301,227.7344 773.927,227.7344 Q771.427,227.7344 770.0988,226.0938 Q768.7863,224.4375 768.7863,221.3125 Q768.7863,218.1875 770.0988,216.5313 Q771.427,214.875 773.927,214.875 Q774.6301,214.875 775.2707,215.0313 Q775.927,215.1875 776.4895,215.4844 L776.4895,218.2031 Q775.8645,217.625 775.2707,217.3594 Q774.677,217.0781 774.052,217.0781 Q772.7082,217.0781 772.0207,218.1563 Q771.3332,219.2188 771.3332,221.3125 Q771.3332,223.4063 772.0207,224.4844 Q772.7082,225.5469 774.052,225.5469 Q774.677,225.5469 775.2707,225.2813 Q775.8645,225 776.4895,224.4219 L776.4895,227.1406 Z " fill="#000000"/><text fill="#000000" font-family="sans-serif" font-size="14" lengthAdjust="spacing" textLength="99.4629" x="789.0809" y="226.3467">CiscoCollector</text><line style="stroke:#555555;stroke-width:0.5;" x1="752.5" x2="897.5645" y1="237.5" y2="237.5"/><text fill="#000000" font-family="sans-serif" font-size="14" lengthAdjust="spacing" textLength="90.1045" x="757.5" y="254.4951">-login: String</text><text fill="#000000" font-family="sans-serif" font-size="14" lengthAdjust="spacing" textLength="88.0537" x="757.5" y="270.792">-pass: String</text><text fill="#000000" font-family="sans-serif" font-size="14" lengthAdjust="spacing" textLength="135.0645" x="757.5" y="287.0889">-enablePass: String</text><line style="stroke:#555555;stroke-width:1;" x1="752.5" x2="897.5645" y1="294.3906" y2="294.3906"/><text fill="#000000" font-family="sans-serif" font-size="14" lengthAdjust="spacing" textLength="81.8467" x="757.5" y="311.3857">+collect(...)</text></g><!--class RouterOSCollector--><g class="entity" data-entity="RouterOSCollector" data-source-line="55" data-uid="ent0009" id="entity_RouterOSCollector"><rect fill="#FFFFFF" height="96.8906" rx="2.5" ry="2.5" style="stroke:#555555;stroke-width:0.5;" width="161.1719" x="933.5" y="213.5"/><ellipse cx="948.5" cy="229.5" fill="#ADD1B2" rx="11" ry="11" style="stroke:#181818;stroke-width:1;"/><path d="M951.4688,235.1406 Q950.8906,235.4375 950.25,235.5781 Q949.6094,235.7344 948.9063,235.7344 Q946.4063,235.7344 945.0781,234.0938 Q943.7656,232.4375 943.7656,229.3125 Q943.7656,226.1875 945.0781,224.5313 Q946.4063,222.875 948.9063,222.875 Q949.6094,222.875 950.25,223.0313 Q950.9063,223.1875 951.4688,223.4844 L951.4688,226.2031 Q950.8438,225.625 950.25,225.3594 Q949.6563,225.0781 949.0313,225.0781 Q947.6875,225.0781 947,226.1563 Q946.3125,227.2188 946.3125,229.3125 Q946.3125,231.4063 947,232.4844 Q947.6875,233.5469 949.0313,233.5469 Q949.6563,233.5469 950.25,233.2813 Q950.8438,233 951.4688,232.4219 L951.4688,235.1406 Z " fill="#000000"/><text fill="#000000" font-family="sans-serif" font-size="14" lengthAdjust="spacing" textLength="129.1719" x="962.5" y="234.3467">RouterOSCollector</text><line style="stroke:#555555;stroke-width:0.5;" x1="934.5" x2="1093.6719" y1="245.5" y2="245.5"/><text fill="#000000" font-family="sans-serif" font-size="14" lengthAdjust="spacing" textLength="90.1045" x="939.5" y="262.4951">-login: String</text><text fill="#000000" font-family="sans-serif" font-size="14" lengthAdjust="spacing" textLength="88.0537" x="939.5" y="278.792">-pass: String</text><line style="stroke:#555555;stroke-width:1;" x1="934.5" x2="1093.6719" y1="286.0938" y2="286.0938"/><text fill="#000000" font-family="sans-serif" font-size="14" lengthAdjust="spacing" textLength="81.8467" x="939.5" y="303.0889">+collect(...)</text></g><!--class RoutingInstance--><g class="entity" data-entity="RoutingInstance" data-source-line="62" data-uid="ent0010" id="entity_RoutingInstance"><rect fill="#FFFFFF" height="178.375" rx="2.5" ry="2.5" style="stroke:#555555;stroke-width:0.5;" width="227.7422" x="694" y="649"/><ellipse cx="746.6948" cy="665" fill="#ADD1B2" rx="11" ry="11" style="stroke:#181818;stroke-width:1;"/><path d="M749.6636,670.6406 Q749.0854,670.9375 748.4448,671.0781 Q747.8042,671.2344 747.1011,671.2344 Q744.6011,671.2344 743.2729,669.5938 Q741.9604,667.9375 741.9604,664.8125 Q741.9604,661.6875 743.2729,660.0313 Q744.6011,658.375 747.1011,658.375 Q747.8042,658.375 748.4448,658.5313 Q749.1011,658.6875 749.6636,658.9844 L749.6636,661.7031 Q749.0386,661.125 748.4448,660.8594 Q747.8511,660.5781 747.2261,660.5781 Q745.8823,660.5781 745.1948,661.6563 Q744.5073,662.7188 744.5073,664.8125 Q744.5073,666.9063 745.1948,667.9844 Q745.8823,669.0469 747.2261,669.0469 Q747.8511,669.0469 748.4448,668.7813 Q749.0386,668.5 749.6636,667.9219 L749.6636,670.6406 Z " fill="#000000"/><text fill="#000000" font-family="sans-serif" font-size="14" lengthAdjust="spacing" textLength="113.8525" x="767.1948" y="669.8467">RoutingInstance</text><line style="stroke:#555555;stroke-width:0.5;" x1="695" x2="920.7422" y1="681" y2="681"/><text fill="#000000" font-family="sans-serif" font-size="14" lengthAdjust="spacing" textLength="95.7031" x="700" y="697.9951">-name: String</text><text fill="#000000" font-family="sans-serif" font-size="14" lengthAdjust="spacing" textLength="87.2744" x="700" y="714.292">-type: String</text><text fill="#000000" font-family="sans-serif" font-size="14" lengthAdjust="spacing" textLength="70.6426" x="700" y="730.5889">-rd: String</text><text fill="#000000" font-family="sans-serif" font-size="14" lengthAdjust="spacing" textLength="123.874" x="700" y="746.8857">-hrefname: String</text><text fill="#000000" font-family="sans-serif" font-size="14" lengthAdjust="spacing" textLength="141.4492" x="700" y="763.1826">-hosts: List&lt;String&gt;</text><line style="stroke:#555555;stroke-width:1;" x1="695" x2="920.7422" y1="770.4844" y2="770.4844"/><text fill="#000000" font-family="sans-serif" font-size="14" lengthAdjust="spacing" text-decoration="underline" textLength="215.7422" x="700" y="787.4795">+merge(instances, vrfVplsList,</text><text fill="#000000" font-family="sans-serif" font-size="14" lengthAdjust="spacing" text-decoration="underline" textLength="107.8711" x="771.2031" y="803.7764">name, type, rd,</text><text fill="#000000" font-family="sans-serif" font-size="14" lengthAdjust="spacing" text-decoration="underline" textLength="111.7266" x="771.2031" y="820.0732">hostEntry): void</text></g><!--class HashUtils--><g class="entity" data-entity="HashUtils" data-source-line="72" data-uid="ent0011" id="entity_HashUtils"><rect fill="#FFFFFF" height="80.5938" rx="2.5" ry="2.5" style="stroke:#555555;stroke-width:0.5;" width="266.4746" x="675" y="904"/><ellipse cx="770.9458" cy="920" fill="#ADD1B2" rx="11" ry="11" style="stroke:#181818;stroke-width:1;"/><path d="M773.9146,925.6406 Q773.3364,925.9375 772.6958,926.0781 Q772.0552,926.2344 771.3521,926.2344 Q768.8521,926.2344 767.5239,924.5938 Q766.2114,922.9375 766.2114,919.8125 Q766.2114,916.6875 767.5239,915.0313 Q768.8521,913.375 771.3521,913.375 Q772.0552,913.375 772.6958,913.5313 Q773.3521,913.6875 773.9146,913.9844 L773.9146,916.7031 Q773.2896,916.125 772.6958,915.8594 Q772.1021,915.5781 771.4771,915.5781 Q770.1333,915.5781 769.4458,916.6563 Q768.7583,917.7188 768.7583,919.8125 Q768.7583,921.9063 769.4458,922.9844 Q770.1333,924.0469 771.4771,924.0469 Q772.1021,924.0469 772.6958,923.7813 Q773.2896,923.5 773.9146,922.9219 L773.9146,925.6406 Z " fill="#000000"/><text fill="#000000" font-family="sans-serif" font-size="14" lengthAdjust="spacing" textLength="66.083" x="791.4458" y="924.8467">HashUtils</text><line style="stroke:#555555;stroke-width:0.5;" x1="676" x2="940.4746" y1="936" y2="936"/><line style="stroke:#555555;stroke-width:0.5;" x1="676" x2="940.4746" y1="944" y2="944"/><text fill="#000000" font-family="sans-serif" font-size="14" lengthAdjust="spacing" text-decoration="underline" textLength="254.4746" x="681" y="960.9951">+computeKey(paddedName: String,</text><text fill="#000000" font-family="sans-serif" font-size="14" lengthAdjust="spacing" text-decoration="underline" textLength="138.6328" x="783.3545" y="977.292">type: String): String</text></g><!--class LoAddressMapper--><g class="entity" data-entity="LoAddressMapper" data-source-line="76" data-uid="ent0012" id="entity_LoAddressMapper"><rect fill="#FFFFFF" height="64.2969" rx="2.5" ry="2.5" style="stroke:#555555;stroke-width:0.5;" width="360.1133" x="1130" y="230"/><ellipse cx="1243.0698" cy="246" fill="#ADD1B2" rx="11" ry="11" style="stroke:#181818;stroke-width:1;"/><path d="M1246.0386,251.6406 Q1245.4604,251.9375 1244.8198,252.0781 Q1244.1792,252.2344 1243.4761,252.2344 Q1240.9761,252.2344 1239.6479,250.5938 Q1238.3354,248.9375 1238.3354,245.8125 Q1238.3354,242.6875 1239.6479,241.0313 Q1240.9761,239.375 1243.4761,239.375 Q1244.1792,239.375 1244.8198,239.5313 Q1245.4761,239.6875 1246.0386,239.9844 L1246.0386,242.7031 Q1245.4136,242.125 1244.8198,241.8594 Q1244.2261,241.5781 1243.6011,241.5781 Q1242.2573,241.5781 1241.5698,242.6563 Q1240.8823,243.7188 1240.8823,245.8125 Q1240.8823,247.9063 1241.5698,248.9844 Q1242.2573,250.0469 1243.6011,250.0469 Q1244.2261,250.0469 1244.8198,249.7813 Q1245.4136,249.5 1246.0386,248.9219 L1246.0386,251.6406 Z " fill="#000000"/><text fill="#000000" font-family="sans-serif" font-size="14" lengthAdjust="spacing" textLength="125.4736" x="1263.5698" y="250.8467">LoAddressMapper</text><line style="stroke:#555555;stroke-width:0.5;" x1="1131" x2="1489.1133" y1="262" y2="262"/><line style="stroke:#555555;stroke-width:0.5;" x1="1131" x2="1489.1133" y1="270" y2="270"/><text fill="#000000" font-family="sans-serif" font-size="14" lengthAdjust="spacing" text-decoration="underline" textLength="348.1133" x="1136" y="286.9951">+build(hosts: List&lt;String&gt;): Map&lt;String, String&gt;</text></g><!--class ReportGenerator--><g class="entity" data-entity="ReportGenerator" data-source-line="80" data-uid="ent0013" id="entity_ReportGenerator"><rect fill="#FFFFFF" height="113.1875" rx="2.5" ry="2.5" style="stroke:#555555;stroke-width:0.5;" width="277.542" x="1277" y="365"/><ellipse cx="1352.4551" cy="381" fill="#ADD1B2" rx="11" ry="11" style="stroke:#181818;stroke-width:1;"/><path d="M1355.4238,386.6406 Q1354.8457,386.9375 1354.2051,387.0781 Q1353.5645,387.2344 1352.8613,387.2344 Q1350.3613,387.2344 1349.0332,385.5938 Q1347.7207,383.9375 1347.7207,380.8125 Q1347.7207,377.6875 1349.0332,376.0313 Q1350.3613,374.375 1352.8613,374.375 Q1353.5645,374.375 1354.2051,374.5313 Q1354.8613,374.6875 1355.4238,374.9844 L1355.4238,377.7031 Q1354.7988,377.125 1354.2051,376.8594 Q1353.6113,376.5781 1352.9863,376.5781 Q1351.6426,376.5781 1350.9551,377.6563 Q1350.2676,378.7188 1350.2676,380.8125 Q1350.2676,382.9063 1350.9551,383.9844 Q1351.6426,385.0469 1352.9863,385.0469 Q1353.6113,385.0469 1354.2051,384.7813 Q1354.7988,384.5 1355.4238,383.9219 L1355.4238,386.6406 Z " fill="#000000"/><text fill="#000000" font-family="sans-serif" font-size="14" lengthAdjust="spacing" textLength="118.1318" x="1372.9551" y="385.8467">ReportGenerator</text><line style="stroke:#555555;stroke-width:0.5;" x1="1278" x2="1553.542" y1="397" y2="397"/><line style="stroke:#555555;stroke-width:0.5;" x1="1278" x2="1553.542" y1="405" y2="405"/><text fill="#000000" font-family="sans-serif" font-size="14" lengthAdjust="spacing" text-decoration="underline" textLength="190.3809" x="1283" y="421.9951">+generate(instances: Map,</text><text fill="#000000" font-family="sans-serif" font-size="14" lengthAdjust="spacing" text-decoration="underline" textLength="116.252" x="1380.9043" y="438.292">vrfVplsList: Map,</text><text fill="#000000" font-family="sans-serif" font-size="14" lengthAdjust="spacing" text-decoration="underline" textLength="132.959" x="1380.9043" y="454.5889">outputPath: String,</text><text fill="#000000" font-family="sans-serif" font-size="14" lengthAdjust="spacing" text-decoration="underline" textLength="167.6377" x="1380.9043" y="470.8857">loAddresses: Map): void</text></g><!--class RoutingInstancesReport--><g class="entity" data-entity="RoutingInstancesReport" data-source-line="84" data-uid="ent0014" id="entity_RoutingInstancesReport"><rect fill="#FFFFFF" height="64.2969" rx="2.5" ry="2.5" style="stroke:#555555;stroke-width:0.5;" width="200.8154" x="958.5" y="27.5"/><ellipse cx="973.7839" cy="43.5" fill="#ADD1B2" rx="11" ry="11" style="stroke:#181818;stroke-width:1;"/><path d="M976.7526,49.1406 Q976.1745,49.4375 975.5339,49.5781 Q974.8933,49.7344 974.1901,49.7344 Q971.6901,49.7344 970.362,48.0938 Q969.0495,46.4375 969.0495,43.3125 Q969.0495,40.1875 970.362,38.5313 Q971.6901,36.875 974.1901,36.875 Q974.8933,36.875 975.5339,37.0313 Q976.1901,37.1875 976.7526,37.4844 L976.7526,40.2031 Q976.1276,39.625 975.5339,39.3594 Q974.9401,39.0781 974.3151,39.0781 Q972.9714,39.0781 972.2839,40.1563 Q971.5964,41.2188 971.5964,43.3125 Q971.5964,45.4063 972.2839,46.4844 Q972.9714,47.5469 974.3151,47.5469 Q974.9401,47.5469 975.5339,47.2813 Q976.1276,47 976.7526,46.4219 L976.7526,49.1406 Z " fill="#000000"/><text fill="#000000" font-family="sans-serif" font-size="14" lengthAdjust="spacing" textLength="168.1846" x="987.847" y="48.3467">RoutingInstancesReport</text><line style="stroke:#555555;stroke-width:0.5;" x1="959.5" x2="1158.3154" y1="59.5" y2="59.5"/><line style="stroke:#555555;stroke-width:0.5;" x1="959.5" x2="1158.3154" y1="67.5" y2="67.5"/><text fill="#000000" font-family="sans-serif" font-size="14" lengthAdjust="spacing" text-decoration="underline" textLength="188.8154" x="964.5" y="84.4951">+main(args: String[]): void</text></g><g class="entity" data-entity="GMN35" data-source-line="115" data-uid="ent0036" id="entity_GMN35"><path d="M6,718 L6,758.2656 A0,0 0 0 0 6,758.2656 L220.2163,758.2656 A0,0 0 0 0 220.2163,758.2656 L220.2163,728 L210.2163,718 L117,718 L113,572.06 L109,718 L6,718 A0,0 0 0 0 6,718" fill="#FEFFDD" style="stroke:#181818;stroke-width:0.5;"/><path d="M210.2163,718 L210.2163,728 L220.2163,728 L210.2163,718" fill="#FEFFDD" style="stroke:#181818;stroke-width:0.5;"/><text fill="#000000" font-family="sans-serif" font-size="13" lengthAdjust="spacing" textLength="193.2163" x="12" y="735.0669">Reads /tmp/juniper-HOST.xml</text><text fill="#000000" font-family="sans-serif" font-size="13" lengthAdjust="spacing" textLength="180.6162" x="12" y="750.1997">from JuniperCollector cache</text></g><!--reverse link Collector to AbstractJuniperCollector--><g class="link" data-entity-1="Collector" data-entity-2="AbstractJuniperCollector" data-source-line="88" data-uid="lnk15" id="link_Collector_AbstractJuniperCollector"><path codeLine="88" d="M706.3565,123.8712 C679.2465,147.2012 660.41,163.41 630.95,188.76" fill="none" id="Collector-backto-AbstractJuniperCollector" style="stroke:#555555;stroke-width:1;stroke-dasharray:7.0,7.0;"/><polygon fill="none" points="720,112.13,702.4428,119.3233,710.2702,128.419,720,112.13" style="stroke:#555555;stroke-width:1;"/></g><!--reverse link Collector to CiscoCollector--><g class="link" data-entity-1="Collector" data-entity-2="CiscoCollector" data-source-line="89" data-uid="lnk16" id="link_Collector_CiscoCollector"><path codeLine="89" d="M795.4418,129.7053 C798.8218,144.8053 798.59,143.78 802,159 C805.38,174.06 809.05,190.36 812.45,205.42" fill="none" id="Collector-backto-CiscoCollector" style="stroke:#555555;stroke-width:1;stroke-dasharray:7.0,7.0;"/><polygon fill="none" points="791.51,112.14,789.5867,131.0159,801.2969,128.3947,791.51,112.14" style="stroke:#555555;stroke-width:1;"/></g><!--reverse link Collector to RouterOSCollector--><g class="link" data-entity-1="Collector" data-entity-2="RouterOSCollector" data-source-line="90" data-uid="lnk17" id="link_Collector_RouterOSCollector"><path codeLine="90" d="M814.1877,127.6008 C824.1877,144.2508 827.73,146.25 843,159 C869.92,181.49 885.42,171.82 916,189 C928.79,196.19 941.86,204.78 954.12,213.48" fill="none" id="Collector-backto-RouterOSCollector" style="stroke:#555555;stroke-width:1;stroke-dasharray:7.0,7.0;"/><polygon fill="none" points="804.92,112.17,809.0441,130.69,819.3313,124.5115,804.92,112.17" style="stroke:#555555;stroke-width:1;"/></g><!--reverse link AbstractJuniperCollector to JuniperCollector--><g class="link" data-entity-1="AbstractJuniperCollector" data-entity-2="JuniperCollector" data-source-line="92" data-uid="lnk18" id="link_AbstractJuniperCollector_JuniperCollector"><path codeLine="92" d="M397.3009,344.2042 C380.3409,353.9442 378.97,355.05 363,365 C287.82,411.83 203.99,471.87 155.02,507.78" fill="none" id="AbstractJuniperCollector-backto-JuniperCollector" style="stroke:#555555;stroke-width:1;"/><polygon fill="none" points="412.91,335.24,394.3129,339.0012,400.289,349.4072,412.91,335.24" style="stroke:#555555;stroke-width:1;"/></g><!--reverse link AbstractJuniperCollector to JuniperSwitchCollector--><g class="link" data-entity-1="AbstractJuniperCollector" data-entity-2="JuniperSwitchCollector" data-source-line="93" data-uid="lnk19" id="link_AbstractJuniperCollector_JuniperSwitchCollector"><path codeLine="93" d="M474.7668,348.9379 C427.6368,404.9979 376.18,466.21 341.19,507.84" fill="none" id="AbstractJuniperCollector-backto-JuniperSwitchCollector" style="stroke:#555555;stroke-width:1;"/><polygon fill="none" points="486.35,335.16,470.1742,345.0768,479.3595,352.7989,486.35,335.16" style="stroke:#555555;stroke-width:1;"/></g><!--reverse link AbstractJuniperCollector to JuniperL2circuitCollector--><g class="link" data-entity-1="AbstractJuniperCollector" data-entity-2="JuniperL2circuitCollector" data-source-line="94" data-uid="lnk20" id="link_AbstractJuniperCollector_JuniperL2circuitCollector"><path codeLine="94" d="M547,353.16 C547,409.22 547,466.21 547,507.84" fill="none" id="AbstractJuniperCollector-backto-JuniperL2circuitCollector" style="stroke:#555555;stroke-width:1;"/><polygon fill="none" points="547,335.16,541,353.16,553,353.16,547,335.16" style="stroke:#555555;stroke-width:1;"/></g><!--reverse link AbstractJuniperCollector to JuniperBridgedomainsCollector--><g class="link" data-entity-1="AbstractJuniperCollector" data-entity-2="JuniperBridgedomainsCollector" data-source-line="95" data-uid="lnk21" id="link_AbstractJuniperCollector_JuniperBridgedomainsCollector"><path codeLine="95" d="M627.5984,348.2376 C680.6184,404.2976 739.17,466.21 778.53,507.84" fill="none" id="AbstractJuniperCollector-backto-JuniperBridgedomainsCollector" style="stroke:#555555;stroke-width:1;"/><polygon fill="none" points="615.23,335.16,623.2392,352.3604,631.9576,344.1148,615.23,335.16" style="stroke:#555555;stroke-width:1;"/></g><!--link RoutingInstancesReport to AbstractJuniperCollector--><g class="link" data-entity-1="RoutingInstancesReport" data-entity-2="AbstractJuniperCollector" data-source-line="97" data-uid="lnk22" id="link_RoutingInstancesReport_AbstractJuniperCollector"><path codeLine="97" d="M979.56,91.61 C909.55,119.02 810.7767,157.7018 722.1067,192.4318" fill="none" id="RoutingInstancesReport-to-AbstractJuniperCollector" style="stroke:#555555;stroke-width:1;"/><polygon fill="#555555" points="716.52,194.62,726.3589,195.0622,721.1756,192.7965,723.4413,187.6132,716.52,194.62" style="stroke:#555555;stroke-width:1;"/><text fill="#000000" font-family="sans-serif" font-size="13" lengthAdjust="spacing" textLength="48.3247" x="849" y="155.0669">creates</text><text fill="#000000" font-family="sans-serif" font-size="13" lengthAdjust="spacing" textLength="8.271" x="723.8562" y="188.5353">4</text></g><!--link RoutingInstancesReport to CiscoCollector--><g class="link" data-entity-1="RoutingInstancesReport" data-entity-2="CiscoCollector" data-source-line="98" data-uid="lnk23" id="link_RoutingInstancesReport_CiscoCollector"><path codeLine="98" d="M1022.69,91.61 C987.39,121.86 937.5363,164.5761 894.7263,201.2561" fill="none" id="RoutingInstancesReport-to-CiscoCollector" style="stroke:#555555;stroke-width:1;"/><polygon fill="#555555" points="890.17,205.16,899.607,202.3417,893.9669,201.9068,894.4019,196.2667,890.17,205.16" style="stroke:#555555;stroke-width:1;"/><text fill="#000000" font-family="sans-serif" font-size="13" lengthAdjust="spacing" textLength="48.3247" x="963" y="155.0669">creates</text></g><!--link RoutingInstancesReport to RouterOSCollector--><g class="link" data-entity-1="RoutingInstancesReport" data-entity-2="RouterOSCollector" data-source-line="99" data-uid="lnk24" id="link_RoutingInstancesReport_RouterOSCollector"><path codeLine="99" d="M1051.97,91.83 C1044.65,124.43 1034.4141,170.0257 1025.9741,207.6257" fill="none" id="RoutingInstancesReport-to-RouterOSCollector" style="stroke:#555555;stroke-width:1;"/><polygon fill="#555555" points="1024.66,213.48,1030.534,205.5746,1025.7551,208.6014,1022.7283,203.8224,1024.66,213.48" style="stroke:#555555;stroke-width:1;"/><text fill="#000000" font-family="sans-serif" font-size="13" lengthAdjust="spacing" textLength="48.3247" x="1041" y="155.0669">creates</text></g><!--link RoutingInstancesReport to LoAddressMapper--><g class="link" data-entity-1="RoutingInstancesReport" data-entity-2="LoAddressMapper" data-source-line="100" data-uid="lnk25" id="link_RoutingInstancesReport_LoAddressMapper"><path codeLine="100" d="M1097.94,91.61 C1145.04,129.23 1219.1418,188.4256 1266.2818,226.0756" fill="none" id="RoutingInstancesReport-to-LoAddressMapper" style="stroke:#555555;stroke-width:1;"/><polygon fill="#555555" points="1270.97,229.82,1266.4339,221.0779,1267.0632,226.6997,1261.4414,227.3289,1270.97,229.82" style="stroke:#555555;stroke-width:1;"/><text fill="#000000" font-family="sans-serif" font-size="13" lengthAdjust="spacing" textLength="29.7832" x="1177" y="155.0669">uses</text></g><!--link RoutingInstancesReport to ReportGenerator--><g class="link" data-entity-1="RoutingInstancesReport" data-entity-2="ReportGenerator" data-source-line="101" data-uid="lnk26" id="link_RoutingInstancesReport_ReportGenerator"><path codeLine="101" d="M1159.52,75.07 C1278.59,94.62 1466.11,133.44 1508,189 C1547.06,240.81 1533.92,275.51 1508,335 C1503.3,345.79 1500.3831,351.2831 1492.5631,360.4131" fill="none" id="RoutingInstancesReport-to-ReportGenerator" style="stroke:#555555;stroke-width:1;"/><polygon fill="#555555" points="1488.66,364.97,1497.5526,360.7366,1491.9126,361.1725,1491.4767,355.5325,1488.66,364.97" style="stroke:#555555;stroke-width:1;"/><text fill="#000000" font-family="sans-serif" font-size="13" lengthAdjust="spacing" textLength="29.7832" x="1470" y="155.0669">uses</text></g><!--link ReportGenerator to RoutingInstance--><g class="link" data-entity-1="ReportGenerator" data-entity-2="RoutingInstance" data-source-line="103" data-uid="lnk27" id="link_ReportGenerator_RoutingInstance"><path codeLine="103" d="M1353.34,478.21 C1302.3,521.31 1226.85,580.03 1153,619 C1079.8,657.63 997.1415,685.905 928.1415,705.965" fill="none" id="ReportGenerator-to-RoutingInstance" style="stroke:#555555;stroke-width:1;"/><polygon fill="#555555" points="922.38,707.64,932.1389,708.9685,927.1812,706.2442,929.9055,701.2865,922.38,707.64" style="stroke:#555555;stroke-width:1;"/><text fill="#000000" font-family="sans-serif" font-size="13" lengthAdjust="spacing" textLength="36.334" x="1316" y="544.5669">reads</text></g><!--link JuniperCollector to RoutingInstance--><g class="link" data-entity-1="JuniperCollector" data-entity-2="RoutingInstance" data-source-line="105" data-uid="lnk28" id="link_JuniperCollector_RoutingInstance"><path codeLine="105" d="M184.75,566.47 C190.57,568.39 196.37,570.26 202,572 C372.03,624.69 565.826,675.7975 688.146,706.9875" fill="none" id="JuniperCollector-to-RoutingInstance" style="stroke:#555555;stroke-width:1;stroke-dasharray:7.0,7.0;"/><polygon fill="#555555" points="693.96,708.47,686.2274,702.3703,689.115,707.2346,684.2507,710.1223,693.96,708.47" style="stroke:#555555;stroke-width:1;"/><text fill="#000000" font-family="sans-serif" font-size="13" lengthAdjust="spacing" textLength="52.3999" x="352" y="615.0669">merge()</text></g><!--link JuniperSwitchCollector to RoutingInstance--><g class="link" data-entity-1="JuniperSwitchCollector" data-entity-2="RoutingInstance" data-source-line="106" data-uid="lnk29" id="link_JuniperSwitchCollector_RoutingInstance"><path codeLine="106" d="M393.12,572.06 C474.03,604.22 595.7246,652.6031 687.9746,689.2831" fill="none" id="JuniperSwitchCollector-to-RoutingInstance" style="stroke:#555555;stroke-width:1;stroke-dasharray:7.0,7.0;"/><polygon fill="#555555" points="693.55,691.5,686.6648,684.4577,688.9038,689.6526,683.7089,691.8916,693.55,691.5" style="stroke:#555555;stroke-width:1;"/><text fill="#000000" font-family="sans-serif" font-size="13" lengthAdjust="spacing" textLength="52.3999" x="503" y="615.0669">merge()</text></g><!--link JuniperL2circuitCollector to RoutingInstance--><g class="link" data-entity-1="JuniperL2circuitCollector" data-entity-2="RoutingInstance" data-source-line="107" data-uid="lnk30" id="link_JuniperL2circuitCollector_RoutingInstance"><path codeLine="107" d="M588.36,572.06 C616.89,593.48 651.5121,619.4871 689.0921,647.7071" fill="none" id="JuniperL2circuitCollector-to-RoutingInstance" style="stroke:#555555;stroke-width:1;stroke-dasharray:7.0,7.0;"/><polygon fill="#555555" points="693.89,651.31,689.0951,642.7071,689.8918,648.3076,684.2913,649.1043,693.89,651.31" style="stroke:#555555;stroke-width:1;"/><text fill="#000000" font-family="sans-serif" font-size="13" lengthAdjust="spacing" textLength="52.3999" x="647" y="615.0669">merge()</text></g><!--link JuniperBridgedomainsCollector to RoutingInstance--><g class="link" data-entity-1="JuniperBridgedomainsCollector" data-entity-2="RoutingInstance" data-source-line="108" data-uid="lnk31" id="link_JuniperBridgedomainsCollector_RoutingInstance"><path codeLine="108" d="M808,572.06 C808,592.89 808,615.45 808,642.96" fill="none" id="JuniperBridgedomainsCollector-to-RoutingInstance" style="stroke:#555555;stroke-width:1;stroke-dasharray:7.0,7.0;"/><polygon fill="#555555" points="808,648.96,812,639.96,808,643.96,804,639.96,808,648.96" style="stroke:#555555;stroke-width:1;"/><text fill="#000000" font-family="sans-serif" font-size="13" lengthAdjust="spacing" textLength="52.3999" x="809" y="615.0669">merge()</text></g><!--link CiscoCollector to RoutingInstance--><g class="link" data-entity-1="CiscoCollector" data-entity-2="RoutingInstance" data-source-line="109" data-uid="lnk32" id="link_CiscoCollector_RoutingInstance"><path codeLine="109" d="M873.96,318.72 C921.87,380.3 983.17,482.62 950,572 C939.74,599.64 926.3802,621.1234 907.4302,644.0734" fill="none" id="CiscoCollector-to-RoutingInstance" style="stroke:#555555;stroke-width:1;stroke-dasharray:7.0,7.0;"/><polygon fill="#555555" points="903.61,648.7,912.4248,644.3069,906.7935,644.8445,906.2559,639.2132,903.61,648.7" style="stroke:#555555;stroke-width:1;"/><text fill="#000000" font-family="sans-serif" font-size="13" lengthAdjust="spacing" textLength="52.3999" x="960" y="544.5669">merge()</text></g><!--link RouterOSCollector to RoutingInstance--><g class="link" data-entity-1="RouterOSCollector" data-entity-2="RoutingInstance" data-source-line="110" data-uid="lnk33" id="link_RouterOSCollector_RoutingInstance"><path codeLine="110" d="M1028.01,310.63 C1043.84,373.92 1062.4,487.56 1021,572 C999.69,615.47 965.7367,647.3644 926.9567,673.9844" fill="none" id="RouterOSCollector-to-RoutingInstance" style="stroke:#555555;stroke-width:1;stroke-dasharray:7.0,7.0;"/><polygon fill="#555555" points="922.01,677.38,931.6938,675.5844,926.1323,674.5503,927.1663,668.9888,922.01,677.38" style="stroke:#555555;stroke-width:1;"/><text fill="#000000" font-family="sans-serif" font-size="13" lengthAdjust="spacing" textLength="52.3999" x="1041" y="544.5669">merge()</text></g><!--link RoutingInstance to HashUtils--><g class="link" data-entity-1="RoutingInstance" data-entity-2="HashUtils" data-source-line="112" data-uid="lnk34" id="link_RoutingInstance_HashUtils"><path codeLine="112" d="M808,827.21 C808,853.91 808,875.91 808,897.75" fill="none" id="RoutingInstance-to-HashUtils" style="stroke:#555555;stroke-width:1;stroke-dasharray:7.0,7.0;"/><polygon fill="#555555" points="808,903.75,812,894.75,808,898.75,804,894.75,808,903.75" style="stroke:#555555;stroke-width:1;"/><text fill="#000000" font-family="sans-serif" font-size="13" lengthAdjust="spacing" textLength="91.7109" x="809" y="870.0669">computeKey()</text></g><!--SRC=[fLPjJzim4FwUNs7HBwtM1ZGn2LLLfSBQmSO0hNkJjdrmxKlYaTYHxV8ouB_FYTFMIPeIDdy0vUwUk_EzFAwwPZp54YU8n5YfYTQIBPOQpeZWS_O7q86drYOgmbJSCXwY0CSA74qEHWyUCkSOa-jGYYMd9o8M4dsBc0Qh4PA2jDBEc_payecKuhOiVdASCwv11fX0Gu3Ez6XsE3rg3E7wmWkb9IQwoTLiDZkQ7knmvMsoCQeOY3RgqMWj7OyBrw-8LNSZeJJ72GpHt1INX_sV7AqEuqfZJa0DqKUSkfeR6NnDOtNEbCvrlI6w4Onc6QplOAi-AJxVBpbByuIBh6mUWrY4ZA-2Mr5gS6N98F_NaO3ffPo19b4jxru9qJ7rLF0zYRjtIUoOl1LacG3NrWZkyjG-2JDIyi8uwr91-kWkxMSZ52zC-IjkWopsXVaZUB0Z1LC6U_k6Mw-hx_j-hsOzlsKcoiimvwy9asJ9zCjWnvBH4AX8iEbrI-W9KqJyMn-1uqKCLmtzROXdstCv_v_HsU7QM9uLSxvox3RLIlHzMf58MlwE90HrN3OY9g5iJqPMFYwbzM02QqQUK08oXEvwuVhkXhcBLvmiKXzbMVMHf5iCii1JhkMzivdspgTOHLyqYrU4kCc1Y2GrfVu0zzqKKmhqee4NoiUjpPOLE1SJIYKePMZ2J5mjwcB9OjhTKgXUpYp5Ln-johTf7gH2wdV0GM9dQDUEGwjngbgZiTAfSbgZeHaQKwShhADdYnElBby4htMZCe7ANgfsbsm_krY6w-7-ySjnvL3ze-ytKcxLhhp8LMrjxJolaSj7ZuD1ZUlQcLV8hXsepdRjSDlfplCQkZ0OZD7UuLxp6pP4nBn96jGk3nM-R8MfSruhM7NNXcYfdWbKMQ82uLNbgwHSjXoYx44snhMw-FusQyjnFQ_XcMi5slBEjS8rF7IxiPNExJQkjsotVRKhkVc6d8Sk7HjhBZIWXT1Q94W4zML3ffMc6MXV9-d-RwiTd5xEF_lc5v3H1j80QuqYc4JW0QSey-_z1G00]--></g></svg>