<svg xmlns="http://www.w3.org/2000/svg" xmlns:xlink="http://www.w3.org/1999/xlink" contentStyleType="text/css" data-diagram-type="CLASS" height="1073px" preserveAspectRatio="none" style="width:1658px;height:1073px;background:#FFFFFF;" version="1.1" viewBox="0 0 1658 1073" width="1658px" zoomAndPan="magnify"><defs/><g><!--class Collector--><g class="entity" data-entity="Collector" data-source-line="21" data-uid="ent0002" id="entity_Collector"><rect fill="#FFFFFF" height="105.1563" rx="2.5" ry="2.5" style="stroke:#555555;stroke-width:0.5;" width="208.1094" x="1425.5" y="7"/><ellipse cx="1493.2031" cy="27.1328" fill="#B4A7E5" rx="11" ry="11" style="stroke:#181818;stroke-width:1;"/><path d="M1489.125,22.8984 L1489.125,20.7422 L1496.5156,20.7422 L1496.5156,22.8984 L1494.0469,22.8984 L1494.0469,30.9766 L1496.5156,30.9766 L1496.5156,33.1328 L1489.125,33.1328 L1489.125,30.9766 L1491.5938,30.9766 L1491.5938,22.8984 L1489.125,22.8984 Z " fill="#000000"/><text fill="#000000" font-family="sans-serif" font-size="12" font-style="italic" lengthAdjust="spacing" textLength="68.2031" x="1511.7031" y="23.1387">&#171;interface&#187;</text><text fill="#000000" font-family="sans-serif" font-size="14" font-style="italic" lengthAdjust="spacing" textLength="62.2412" x="1514.6841" y="38.9639">Collector</text><line style="stroke:#555555;stroke-width:0.5;" x1="1426.5" x2="1632.6094" y1="47.2656" y2="47.2656"/><line style="stroke:#555555;stroke-width:0.5;" x1="1426.5" x2="1632.6094" y1="55.2656" y2="55.2656"/><text fill="#000000" font-family="sans-serif" font-size="14" lengthAdjust="spacing" textLength="188.3574" x="1431.5" y="72.2607">+collect(hostname: String,</text><text fill="#000000" font-family="sans-serif" font-size="14" lengthAdjust="spacing" textLength="109.7646" x="1471.5518" y="88.5576">instances: Map,</text><text fill="#000000" font-family="sans-serif" font-size="14" lengthAdjust="spacing" textLength="156.0576" x="1471.5518" y="104.8545">vrfVplsList: Map): void</text></g><!--class AbstractJuniperCollector--><g class="entity" data-entity="AbstractJuniperCollector" data-source-line="25" data-uid="ent0003" id="entity_AbstractJuniperCollector"><rect fill="#FFFFFF" height="178.375" rx="2.5" ry="2.5" style="stroke:#555555;stroke-width:0.5;" width="338.5186" x="657" y="189"/><ellipse cx="736.9941" cy="205" fill="#A9DCDF" rx="11" ry="11" style="stroke:#181818;stroke-width:1;"/><path d="M737.1035,200.3438 L735.9473,205.4219 L738.2754,205.4219 L737.1035,200.3438 Z M735.6191,198.1094 L738.6035,198.1094 L741.9629,210.5 L739.5098,210.5 L738.7441,207.4375 L735.4629,207.4375 L734.7129,210.5 L732.2754,210.5 L735.6191,198.1094 Z " fill="#000000"/><text fill="#000000" font-family="sans-serif" font-size="14" font-style="italic" lengthAdjust="spacing" textLength="170.0303" x="757.4941" y="209.8467">AbstractJuniperCollector</text><line style="stroke:#555555;stroke-width:0.5;" x1="658" x2="994.5186" y1="221" y2="221"/><text fill="#000000" font-family="sans-serif" font-size="14" lengthAdjust="spacing" textLength="90.1045" x="663" y="237.9951">-login: String</text><text fill="#000000" font-family="sans-serif" font-size="14" lengthAdjust="spacing" textLength="88.0537" x="663" y="254.292">-pass: String</text><line style="stroke:#555555;stroke-width:1;" x1="658" x2="994.5186" y1="261.5938" y2="261.5938"/><text fill="#000000" font-family="sans-serif" font-size="14" lengthAdjust="spacing" textLength="281.8115" x="663" y="278.5889">#readOrFetch(hostname: String): String</text><text fill="#000000" font-family="sans-serif" font-size="14" lengthAdjust="spacing" textLength="247.3584" x="663" y="294.8857">#parseXml(xml: String): Document</text><text fill="#000000" font-family="sans-serif" font-size="14" lengthAdjust="spacing" textLength="326.5186" x="663" y="311.1826">#extractRouterName(doc, xp, fallback): String</text><text fill="#000000" font-family="sans-serif" font-size="14" lengthAdjust="spacing" textLength="284.7168" x="663" y="327.4795">#fetchNetconf(hostname: String): String</text><text fill="#000000" font-family="sans-serif" font-size="14" lengthAdjust="spacing" textLength="211.7227" x="663" y="343.7764">#fetchRpcs(hostname: String,</text><text fill="#000000" font-family="sans-serif" font-size="14" lengthAdjust="spacing" textLength="232.8594" x="711.9521" y="360.0732">rpcs: List&lt;String&gt;): List&lt;String&gt;</text></g><!--class JuniperCollector--><g class="entity" data-entity="JuniperCollector" data-source-line="36" data-uid="ent0004" id="entity_JuniperCollector"><rect fill="#FFFFFF" height="64.2969" rx="2.5" ry="2.5" style="stroke:#555555;stroke-width:0.5;" width="143.2617" x="1125" y="581.5"/><ellipse cx="1140" cy="597.5" fill="#ADD1B2" rx="11" ry="11" style="stroke:#181818;stroke-width:1;"/><path d="M1142.9688,603.1406 Q1142.3906,603.4375 1141.75,603.5781 Q1141.1094,603.7344 1140.4063,603.7344 Q1137.9063,603.7344 1136.5781,602.0938 Q1135.2656,600.4375 1135.2656,597.3125 Q1135.2656,594.1875 1136.5781,592.5313 Q1137.9063,590.875 1140.4063,590.875 Q1141.1094,590.875 1141.75,591.0313 Q1142.4063,591.1875 1142.9688,591.4844 L1142.9688,594.2031 Q1142.3438,593.625 1141.75,593.3594 Q1141.1563,593.0781 1140.5313,593.0781 Q1139.1875,593.0781 1138.5,594.1563 Q1137.8125,595.2188 1137.8125,597.3125 Q1137.8125,599.4063 1138.5,600.4844 Q1139.1875,601.5469 1140.5313,601.5469 Q1141.1563,601.5469 1141.75,601.2813 Q1142.3438,601 1142.9688,600.4219 L1142.9688,603.1406 Z " fill="#000000"/><text fill="#000000" font-family="sans-serif" font-size="14" lengthAdjust="spacing" textLength="111.2617" x="1154" y="602.3467">JuniperCollector</text><line style="stroke:#555555;stroke-width:0.5;" x1="1126" x2="1267.2617" y1="613.5" y2="613.5"/><line style="stroke:#555555;stroke-width:0.5;" x1="1126" x2="1267.2617" y1="621.5" y2="621.5"/><text fill="#000000" font-family="sans-serif" font-size="14" lengthAdjust="spacing" textLength="81.8467" x="1131" y="638.4951">+collect(...)</text></g><!--class JuniperSwitchCollector--><g class="entity" data-entity="JuniperSwitchCollector" data-source-line="40" data-uid="ent0005" id="entity_JuniperSwitchCollector"><rect fill="#FFFFFF" height="64.2969" rx="2.5" ry="2.5" style="stroke:#555555;stroke-width:0.5;" width="189.5479" x="377.5" y="581.5"/><ellipse cx="392.5" cy="597.5" fill="#ADD1B2" rx="11" ry="11" style="stroke:#181818;stroke-width:1;"/><path d="M395.4688,603.1406 Q394.8906,603.4375 394.25,603.5781 Q393.6094,603.7344 392.9063,603.7344 Q390.4063,603.7344 389.0781,602.0938 Q387.7656,600.4375 387.7656,597.3125 Q387.7656,594.1875 389.0781,592.5313 Q390.4063,590.875 392.9063,590.875 Q393.6094,590.875 394.25,591.0313 Q394.9063,591.1875 395.4688,591.4844 L395.4688,594.2031 Q394.8438,593.625 394.25,593.3594 Q393.6563,593.0781 393.0313,593.0781 Q391.6875,593.0781 391,594.1563 Q390.3125,595.2188 390.3125,597.3125 Q390.3125,599.4063 391,600.4844 Q391.6875,601.5469 393.0313,601.5469 Q393.6563,601.5469 394.25,601.2813 Q394.8438,601 395.4688,600.4219 L395.4688,603.1406 Z " fill="#000000"/><text fill="#000000" font-family="sans-serif" font-size="14" lengthAdjust="spacing" textLength="157.5479" x="406.5" y="602.3467">JuniperSwitchCollector</text><line style="stroke:#555555;stroke-width:0.5;" x1="378.5" x2="566.0479" y1="613.5" y2="613.5"/><line style="stroke:#555555;stroke-width:0.5;" x1="378.5" x2="566.0479" y1="621.5" y2="621.5"/><text fill="#000000" font-family="sans-serif" font-size="14" lengthAdjust="spacing" textLength="81.8467" x="383.5" y="638.4951">+collect(...)</text></g><!--class JuniperL2circuitCollector--><g class="entity" data-entity="JuniperL2circuitCollector" data-source-line="44" data-uid="ent0006" id="entity_JuniperL2circuitCollector"><rect fill="#FFFFFF" height="64.2969" rx="2.5" ry="2.5" style="stroke:#555555;stroke-width:0.5;" width="203.2607" x="603" y="581.5"/><ellipse cx="618" cy="597.5" fill="#ADD1B2" rx="11" ry="11" style="stroke:#181818;stroke-width:1;"/><path d="M620.9688,603.1406 Q620.3906,603.4375 619.75,603.5781 Q619.1094,603.7344 618.4063,603.7344 Q615.9063,603.7344 614.5781,602.0938 Q613.2656,600.4375 613.2656,597.3125 Q613.2656,594.1875 614.5781,592.5313 Q615.9063,590.875 618.4063,590.875 Q619.1094,590.875 619.75,591.0313 Q620.4063,591.1875 620.9688,591.4844 L620.9688,594.2031 Q620.3438,593.625 619.75,593.3594 Q619.1563,593.0781 618.5313,593.0781 Q617.1875,593.0781 616.5,594.1563 Q615.8125,595.2188 615.8125,597.3125 Q615.8125,599.4063 616.5,600.4844 Q617.1875,601.5469 618.5313,601.5469 Q619.1563,601.5469 619.75,601.2813 Q620.3438,601 620.9688,600.4219 L620.9688,603.1406 Z " fill="#000000"/><text fill="#000000" font-family="sans-serif" font-size="14" lengthAdjust="spacing" textLength="171.2607" x="632" y="602.3467">JuniperL2circuitCollector</text><line style="stroke:#555555;stroke-width:0.5;" x1="604" x2="805.2607" y1="613.5" y2="613.5"/><line style="stroke:#555555;stroke-width:0.5;" x1="604" x2="805.2607" y1="621.5" y2="621.5"/><text fill="#000000" font-family="sans-serif" font-size="14" lengthAdjust="spacing" textLength="81.8467" x="609" y="638.4951">+collect(...)</text></g><!--class JuniperBridgedomainsCollector--><g class="entity" data-entity="JuniperBridgedomainsCollector" data-source-line="48" data-uid="ent0007" id="entity_JuniperBridgedomainsCollector"><rect fill="#FFFFFF" height="64.2969" rx="2.5" ry="2.5" style="stroke:#555555;stroke-width:0.5;" width="248.624" x="841" y="581.5"/><ellipse cx="856" cy="597.5" fill="#ADD1B2" rx="11" ry="11" style="stroke:#181818;stroke-width:1;"/><path d="M858.9688,603.1406 Q858.3906,603.4375 857.75,603.5781 Q857.1094,603.7344 856.4063,603.7344 Q853.9063,603.7344 852.5781,602.0938 Q851.2656,600.4375 851.2656,597.3125 Q851.2656,594.1875 852.5781,592.5313 Q853.9063,590.875 856.4063,590.875 Q857.1094,590.875 857.75,591.0313 Q858.4063,591.1875 858.9688,591.4844 L858.9688,594.2031 Q858.3438,593.625 857.75,593.3594 Q857.1563,593.0781 856.5313,593.0781 Q855.1875,593.0781 854.5,594.1563 Q853.8125,595.2188 853.8125,597.3125 Q853.8125,599.4063 854.5,600.4844 Q855.1875,601.5469 856.5313,601.5469 Q857.1563,601.5469 857.75,601.2813 Q858.3438,601 858.9688,600.4219 L858.9688,603.1406 Z " fill="#000000"/><text fill="#000000" font-family="sans-serif" font-size="14" lengthAdjust="spacing" textLength="216.624" x="870" y="602.3467">JuniperBridgedomainsCollector</text><line style="stroke:#555555;stroke-width:0.5;" x1="842" x2="1088.624" y1="613.5" y2="613.5"/><line style="stroke:#555555;stroke-width:0.5;" x1="842" x2="1088.624" y1="621.5" y2="621.5"/><text fill="#000000" font-family="sans-serif" font-size="14" lengthAdjust="spacing" textLength="81.8467" x="847" y="638.4951">+collect(...)</text></g><!--class JuniperDownStateCollector--><g class="entity" data-entity="JuniperDownStateCollector" data-source-line="52" data-uid="ent0008" id="entity_JuniperDownStateCollector"><rect fill="#FFFFFF" height="80.5938" rx="2.5" ry="2.5" style="stroke:#555555;stroke-width:0.5;" width="335.2031" x="7" y="573"/><ellipse cx="76.3574" cy="589" fill="#ADD1B2" rx="11" ry="11" style="stroke:#181818;stroke-width:1;"/><path d="M79.3262,594.6406 Q78.748,594.9375 78.1074,595.0781 Q77.4668,595.2344 76.7637,595.2344 Q74.2637,595.2344 72.9355,593.5938 Q71.623,591.9375 71.623,588.8125 Q71.623,585.6875 72.9355,584.0313 Q74.2637,582.375 76.7637,582.375 Q77.4668,582.375 78.1074,582.5313 Q78.7637,582.6875 79.3262,582.9844 L79.3262,585.7031 Q78.7012,585.125 78.1074,584.8594 Q77.5137,584.5781 76.8887,584.5781 Q75.5449,584.5781 74.8574,585.6563 Q74.1699,586.7188 74.1699,588.8125 Q74.1699,590.9063 74.8574,591.9844 Q75.5449,593.0469 76.8887,593.0469 Q77.5137,593.0469 78.1074,592.7813 Q78.7012,592.5 79.3262,591.9219 L79.3262,594.6406 Z " fill="#000000"/><text fill="#000000" font-family="sans-serif" font-size="14" lengthAdjust="spacing" textLength="187.9883" x="96.8574" y="593.8467">JuniperDownStateCollector</text><line style="stroke:#555555;stroke-width:0.5;" x1="8" x2="341.2031" y1="605" y2="605"/><line style="stroke:#555555;stroke-width:0.5;" x1="8" x2="341.2031" y1="613" y2="613"/><text fill="#000000" font-family="sans-serif" font-size="14" lengthAdjust="spacing" textLength="265.084" x="13" y="629.9951">+collectDownState(hostname: String,</text><text fill="#000000" font-family="sans-serif" font-size="14" lengthAdjust="spacing" textLength="238.6494" x="97.5537" y="646.292">loAddresses: Map): List&lt;String[]&gt;</text></g><!--class CiscoCollector--><g class="entity" data-entity="CiscoCollector" data-source-line="56" data-uid="ent0009" id="entity_CiscoCollector"><rect fill="#FFFFFF" height="113.1875" rx="2.5" ry="2.5" style="stroke:#555555;stroke-width:0.5;" width="147.0645" x="1308" y="221.5"/><ellipse cx="1330.0207" cy="237.5" fill="#ADD1B2" rx="11" ry="11" style="stroke:#181818;stroke-width:1;"/><path d="M1332.9895,243.1406 Q1332.4113,243.4375 1331.7707,243.5781 Q1331.1301,243.7344 1330.427,243.7344 Q1327.927,243.7344 1326.5988,242.0938 Q1325.2863,240.4375 1325.2863,237.3125 Q1325.2863,234.1875 1326.5988,232.5313 Q1327.927,230.875 1330.427,230.875 Q1331.1301,230.875 1331.7707,231.0313 Q1332.427,231.1875 1332.9895,231.4844 L1332.9895,234.2031 Q1332.3645,233.625 1331.7707,233.3594 Q1331.177,233.0781 1330.552,233.0781 Q1329.2082,233.0781 1328.5207,234.1563 Q1327.8332,235.2188 1327.8332,237.3125 Q1327.8332,239.4063 1328.5207,240.4844 Q1329.2082,241.5469 1330.552,241.5469 Q1331.177,241.5469 1331.7707,241.2813 Q1332.3645,241 1332.9895,240.4219 L1332.9895,243.1406 Z " fill="#000000"/><text fill="#000000" font-family="sans-serif" font-size="14" lengthAdjust="spacing" textLength="99.4629" x="1345.5809" y="242.3467">CiscoCollector</text><line style="stroke:#555555;stroke-width:0.5;" x1="1309" x2="1454.0645" y1="253.5" y2="253.5"/><text fill="#000000" font-family="sans-serif" font-size="14" lengthAdjust="spacing" textLength="90.1045" x="1314" y="270.4951">-login: String</text><text fill="#000000" font-family="sans-serif" font-size="14" lengthAdjust="spacing" textLength="88.0537" x="1314" y="286.792">-pass: String</text><text fill="#000000" font-family="sans-serif" font-size="14" lengthAdjust="spacing" textLength="135.0645" x="1314" y="303.0889">-enablePass: String</text><line style="stroke:#555555;stroke-width:1;" x1="1309" x2="1454.0645" y1="310.3906" y2="310.3906"/><text fill="#000000" font-family="sans-serif" font-size="14" lengthAdjust="spacing" textLength="81.8467" x="1314" y="327.3857">+collect(...)</text></g><!--class RouterOSCollector--><g class="entity" data-entity="RouterOSCollector" data-source-line="64" data-uid="ent0010" id="entity_RouterOSCollector"><rect fill="#FFFFFF" height="96.8906" rx="2.5" ry="2.5" style="stroke:#555555;stroke-width:0.5;" width="161.1719" x="1490" y="229.5"/><ellipse cx="1505" cy="245.5" fill="#ADD1B2" rx="11" ry="11" style="stroke:#181818;stroke-width:1;"/><path d="M1507.9688,251.1406 Q1507.3906,251.4375 1506.75,251.5781 Q1506.1094,251.7344 1505.4063,251.7344 Q1502.9063,251.7344 1501.5781,250.0938 Q1500.2656,248.4375 1500.2656,245.3125 Q1500.2656,242.1875 1501.5781,240.5313 Q1502.9063,238.875 1505.4063,238.875 Q1506.1094,238.875 1506.75,239.0313 Q1507.4063,239.1875 1507.9688,239.4844 L1507.9688,242.2031 Q1507.3438,241.625 1506.75,241.3594 Q1506.1563,241.0781 1505.5313,241.0781 Q1504.1875,241.0781 1503.5,242.1563 Q1502.8125,243.2188 1502.8125,245.3125 Q1502.8125,247.4063 1503.5,248.4844 Q1504.1875,249.5469 1505.5313,249.5469 Q1506.1563,249.5469 1506.75,249.2813 Q1507.3438,249 1507.9688,248.4219 L1507.9688,251.1406 Z " fill="#000000"/><text fill="#000000" font-family="sans-serif" font-size="14" lengthAdjust="spacing" textLength="129.1719" x="1519" y="250.3467">RouterOSCollector</text><line style="stroke:#555555;stroke-width:0.5;" x1="1491" x2="1650.1719" y1="261.5" y2="261.5"/><text fill="#000000" font-family="sans-serif" font-size="14" lengthAdjust="spacing" textLength="90.1045" x="1496" y="278.4951">-login: String</text><text fill="#000000" font-family="sans-serif" font-size="14" lengthAdjust="spacing" textLength="88.0537" x="1496" y="294.792">-pass: String</text><line style="stroke:#555555;stroke-width:1;" x1="1491" x2="1650.1719" y1="302.0938" y2="302.0938"/><text fill="#000000" font-family="sans-serif" font-size="14" lengthAdjust="spacing" textLength="81.8467" x="1496" y="319.0889">+collect(...)</text></g><!--class RoutingInstance--><g class="entity" data-entity="RoutingInstance" data-source-line="71" data-uid="ent0011" id="entity_RoutingInstance"><rect fill="#FFFFFF" height="178.375" rx="2.5" ry="2.5" style="stroke:#555555;stroke-width:0.5;" width="227.7422" x="1082.5" y="731"/><ellipse cx="1135.1948" cy="747" fill="#ADD1B2" rx="11" ry="11" style="stroke:#181818;stroke-width:1;"/><path d="M1138.1636,752.6406 Q1137.5854,752.9375 1136.9448,753.0781 Q1136.3042,753.2344 1135.6011,753.2344 Q1133.1011,753.2344 1131.7729,751.5938 Q1130.4604,749.9375 1130.4604,746.8125 Q1130.4604,743.6875 1131.7729,742.0313 Q1133.1011,740.375 1135.6011,740.375 Q1136.3042,740.375 1136.9448,740.5313 Q1137.6011,740.6875 1138.1636,740.9844 L1138.1636,743.7031 Q1137.5386,743.125 1136.9448,742.8594 Q1136.3511,742.5781 1135.7261,742.5781 Q1134.3823,742.5781 1133.6948,743.6563 Q1133.0073,744.7188 1133.0073,746.8125 Q1133.0073,748.9063 1133.6948,749.9844 Q1134.3823,751.0469 1135.7261,751.0469 Q1136.3511,751.0469 1136.9448,750.7813 Q1137.5386,750.5 1138.1636,749.9219 L1138.1636,752.6406 Z " fill="#000000"/><text fill="#000000" font-family="sans-serif" font-size="14" lengthAdjust="spacing" textLength="113.8525" x="1155.6948" y="751.8467">RoutingInstance</text><line style="stroke:#555555;stroke-width:0.5;" x1="1083.5" x2="1309.2422" y1="763" y2="763"/><text fill="#000000" font-family="sans-serif" font-size="14" lengthAdjust="spacing" textLength="95.7031" x="1088.5" y="779.9951">-name: String</text><text fill="#000000" font-family="sans-serif" font-size="14" lengthAdjust="spacing" textLength="87.2744" x="1088.5" y="796.292">-type: String</text><text fill="#000000" font-family="sans-serif" font-size="14" lengthAdjust="spacing" textLength="70.6426" x="1088.5" y="812.5889">-rd: String</text><text fill="#000000" font-family="sans-serif" font-size="14" lengthAdjust="spacing" textLength="123.874" x="1088.5" y="828.8857">-hrefname: String</text><text fill="#000000" font-family="sans-serif" font-size="14" lengthAdjust="spacing" textLength="141.4492" x="1088.5" y="845.1826">-hosts: List&lt;String&gt;</text><line style="stroke:#555555;stroke-width:1;" x1="1083.5" x2="1309.2422" y1="852.4844" y2="852.4844"/><text fill="#000000" font-family="sans-serif" font-size="14" lengthAdjust="spacing" text-decoration="underline" textLength="215.7422" x="1088.5" y="869.4795">+merge(instances, vrfVplsList,</text><text fill="#000000" font-family="sans-serif" font-size="14" lengthAdjust="spacing" text-decoration="underline" textLength="107.8711" x="1159.7031" y="885.7764">name, type, rd,</text><text fill="#000000" font-family="sans-serif" font-size="14" lengthAdjust="spacing" text-decoration="underline" textLength="111.7266" x="1159.7031" y="902.0732">hostEntry): void</text></g><!--class HashUtils--><g class="entity" data-entity="HashUtils" data-source-line="81" data-uid="ent0012" id="entity_HashUtils"><rect fill="#FFFFFF" height="80.5938" rx="2.5" ry="2.5" style="stroke:#555555;stroke-width:0.5;" width="266.4746" x="1063.5" y="986"/><ellipse cx="1159.4458" cy="1002" fill="#ADD1B2" rx="11" ry="11" style="stroke:#181818;stroke-width:1;"/><path d="M1162.4146,1007.6406 Q1161.8364,1007.9375 1161.1958,1008.0781 Q1160.5552,1008.2344 1159.8521,1008.2344 Q1157.3521,1008.2344 1156.0239,1006.5938 Q1154.7114,1004.9375 1154.7114,1001.8125 Q1154.7114,998.6875 1156.0239,997.0313 Q1157.3521,995.375 1159.8521,995.375 Q1160.5552,995.375 1161.1958,995.5313 Q1161.8521,995.6875 1162.4146,995.9844 L1162.4146,998.7031 Q1161.7896,998.125 1161.1958,997.8594 Q1160.6021,997.5781 1159.9771,997.5781 Q1158.6333,997.5781 1157.9458,998.6563 Q1157.2583,999.7188 1157.2583,1001.8125 Q1157.2583,1003.9063 1157.9458,1004.9844 Q1158.6333,1006.0469 1159.9771,1006.0469 Q1160.6021,1006.0469 1161.1958,1005.7813 Q1161.7896,1005.5 1162.4146,1004.9219 L1162.4146,1007.6406 Z " fill="#000000"/><text fill="#000000" font-family="sans-serif" font-size="14" lengthAdjust="spacing" textLength="66.083" x="1179.9458" y="1006.8467">HashUtils</text><line style="stroke:#555555;stroke-width:0.5;" x1="1064.5" x2="1328.9746" y1="1018" y2="1018"/><line style="stroke:#555555;stroke-width:0.5;" x1="1064.5" x2="1328.9746" y1="1026" y2="1026"/><text fill="#000000" font-family="sans-serif" font-size="14" lengthAdjust="spacing" text-decoration="underline" textLength="254.4746" x="1069.5" y="1042.9951">+computeKey(paddedName: String,</text><text fill="#000000" font-family="sans-serif" font-size="14" lengthAdjust="spacing" text-decoration="underline" textLength="138.6328" x="1171.8545" y="1059.292">type: String): String</text></g><!--class LoAddressMapper--><g class="entity" data-entity="LoAddressMapper" data-source-line="85" data-uid="ent0013" id="entity_LoAddressMapper"><rect fill="#FFFFFF" height="64.2969" rx="2.5" ry="2.5" style="stroke:#555555;stroke-width:0.5;" width="360.1133" x="261.5" y="246"/><ellipse cx="374.5698" cy="262" fill="#ADD1B2" rx="11" ry="11" style="stroke:#181818;stroke-width:1;"/><path d="M377.5386,267.6406 Q376.9604,267.9375 376.3198,268.0781 Q375.6792,268.2344 374.9761,268.2344 Q372.4761,268.2344 371.1479,266.5938 Q369.8354,264.9375 369.8354,261.8125 Q369.8354,258.6875 371.1479,257.0313 Q372.4761,255.375 374.9761,255.375 Q375.6792,255.375 376.3198,255.5313 Q376.9761,255.6875 377.5386,255.9844 L377.5386,258.7031 Q376.9136,258.125 376.3198,257.8594 Q375.7261,257.5781 375.1011,257.5781 Q373.7573,257.5781 373.0698,258.6563 Q372.3823,259.7188 372.3823,261.8125 Q372.3823,263.9063 373.0698,264.9844 Q373.7573,266.0469 375.1011,266.0469 Q375.7261,266.0469 376.3198,265.7813 Q376.9136,265.5 377.5386,264.9219 L377.5386,267.6406 Z " fill="#000000"/><text fill="#000000" font-family="sans-serif" font-size="14" lengthAdjust="spacing" textLength="125.4736" x="395.0698" y="266.8467">LoAddressMapper</text><line style="stroke:#555555;stroke-width:0.5;" x1="262.5" x2="620.6133" y1="278" y2="278"/><line style="stroke:#555555;stroke-width:0.5;" x1="262.5" x2="620.6133" y1="286" y2="286"/><text fill="#000000" font-family="sans-serif" font-size="14" lengthAdjust="spacing" text-decoration="underline" textLength="348.1133" x="267.5" y="302.9951">+build(hosts: List&lt;String&gt;): Map&lt;String, String&gt;</text></g><!--class ConnectionStatus--><g class="entity" data-entity="ConnectionStatus" data-source-line="89" data-uid="ent0014" id="entity_ConnectionStatus"><rect fill="#FFFFFF" height="96.8906" rx="2.5" ry="2.5" style="stroke:#555555;stroke-width:0.5;" width="229.9502" x="59.5" y="771.5"/><ellipse cx="108.312" cy="787.5" fill="#EB937F" rx="11" ry="11" style="stroke:#181818;stroke-width:1;"/><path d="M112.4214,793.5 L104.7026,793.5 L104.7026,781.1094 L112.4214,781.1094 L112.4214,783.2656 L107.1558,783.2656 L107.1558,785.9375 L111.9214,785.9375 L111.9214,788.0938 L107.1558,788.0938 L107.1558,791.3438 L112.4214,791.3438 L112.4214,793.5 Z " fill="#000000"/><text fill="#000000" font-family="sans-serif" font-size="14" lengthAdjust="spacing" textLength="123.8262" x="128.812" y="792.3467">ConnectionStatus</text><line style="stroke:#555555;stroke-width:0.5;" x1="60.5" x2="288.4502" y1="803.5" y2="803.5"/><text fill="#000000" font-family="sans-serif" font-size="14" lengthAdjust="spacing" textLength="158.457" x="65.5" y="820.4951">EI, NP, MM, OL, RD, LD</text><text fill="#000000" font-family="sans-serif" font-size="14" lengthAdjust="spacing" textLength="125.7471" x="69.9502" y="836.792">NP, VM, BK, ST, ...</text><line style="stroke:#555555;stroke-width:1;" x1="60.5" x2="288.4502" y1="844.0938" y2="844.0938"/><text fill="#000000" font-family="sans-serif" font-size="14" lengthAdjust="spacing" text-decoration="underline" textLength="217.9502" x="65.5" y="861.0889">+describe(code: String): String</text></g><!--class ReportGenerator--><g class="entity" data-entity="ReportGenerator" data-source-line="95" data-uid="ent0015" id="entity_ReportGenerator"><rect fill="#FFFFFF" height="145.7813" rx="2.5" ry="2.5" style="stroke:#555555;stroke-width:0.5;" width="312.084" x="1104.5" y="397"/><ellipse cx="1197.2261" cy="413" fill="#ADD1B2" rx="11" ry="11" style="stroke:#181818;stroke-width:1;"/><path d="M1200.1948,418.6406 Q1199.6167,418.9375 1198.9761,419.0781 Q1198.3354,419.2344 1197.6323,419.2344 Q1195.1323,419.2344 1193.8042,417.5938 Q1192.4917,415.9375 1192.4917,412.8125 Q1192.4917,409.6875 1193.8042,408.0313 Q1195.1323,406.375 1197.6323,406.375 Q1198.3354,406.375 1198.9761,406.5313 Q1199.6323,406.6875 1200.1948,406.9844 L1200.1948,409.7031 Q1199.5698,409.125 1198.9761,408.8594 Q1198.3823,408.5781 1197.7573,408.5781 Q1196.4136,408.5781 1195.7261,409.6563 Q1195.0386,410.7188 1195.0386,412.8125 Q1195.0386,414.9063 1195.7261,415.9844 Q1196.4136,417.0469 1197.7573,417.0469 Q1198.3823,417.0469 1198.9761,416.7813 Q1199.5698,416.5 1200.1948,415.9219 L1200.1948,418.6406 Z " fill="#000000"/><text fill="#000000" font-family="sans-serif" font-size="14" lengthAdjust="spacing" textLength="118.1318" x="1217.7261" y="417.8467">ReportGenerator</text><line style="stroke:#555555;stroke-width:0.5;" x1="1105.5" x2="1415.584" y1="429" y2="429"/><line style="stroke:#555555;stroke-width:0.5;" x1="1105.5" x2="1415.584" y1="437" y2="437"/><text fill="#000000" font-family="sans-serif" font-size="14" lengthAdjust="spacing" text-decoration="underline" textLength="190.3809" x="1110.5" y="453.9951">+generate(instances: Map,</text><text fill="#000000" font-family="sans-serif" font-size="14" lengthAdjust="spacing" text-decoration="underline" textLength="116.252" x="1208.4043" y="470.292">vrfVplsList: Map,</text><text fill="#000000" font-family="sans-serif" font-size="14" lengthAdjust="spacing" text-decoration="underline" textLength="132.959" x="1208.4043" y="486.5889">outputPath: String,</text><text fill="#000000" font-family="sans-serif" font-size="14" lengthAdjust="spacing" text-decoration="underline" textLength="127.832" x="1208.4043" y="502.8857">loAddresses: Map,</text><text fill="#000000" font-family="sans-serif" font-size="14" lengthAdjust="spacing" text-decoration="underline" textLength="94.917" x="1208.4043" y="519.1826">orphans: List,</text><text fill="#000000" font-family="sans-serif" font-size="14" lengthAdjust="spacing" text-decoration="underline" textLength="202.1797" x="1208.4043" y="535.4795">downConnections: List): void</text></g><!--class RoutingInstancesReport--><g class="entity" data-entity="RoutingInstancesReport" data-source-line="99" data-uid="ent0016" id="entity_RoutingInstancesReport"><rect fill="#FFFFFF" height="96.8906" rx="2.5" ry="2.5" style="stroke:#555555;stroke-width:0.5;" width="353.0039" x="844" y="11"/><ellipse cx="932.1597" cy="27" fill="#ADD1B2" rx="11" ry="11" style="stroke:#181818;stroke-width:1;"/><path d="M935.1284,32.6406 Q934.5503,32.9375 933.9097,33.0781 Q933.269,33.2344 932.5659,33.2344 Q930.0659,33.2344 928.7378,31.5938 Q927.4253,29.9375 927.4253,26.8125 Q927.4253,23.6875 928.7378,22.0313 Q930.0659,20.375 932.5659,20.375 Q933.269,20.375 933.9097,20.5313 Q934.5659,20.6875 935.1284,20.9844 L935.1284,23.7031 Q934.5034,23.125 933.9097,22.8594 Q933.3159,22.5781 932.6909,22.5781 Q931.3472,22.5781 930.6597,23.6563 Q929.9722,24.7188 929.9722,26.8125 Q929.9722,28.9063 930.6597,29.9844 Q931.3472,31.0469 932.6909,31.0469 Q933.3159,31.0469 933.9097,30.7813 Q934.5034,30.5 935.1284,29.9219 L935.1284,32.6406 Z " fill="#000000"/><text fill="#000000" font-family="sans-serif" font-size="14" lengthAdjust="spacing" textLength="168.1846" x="952.6597" y="31.8467">RoutingInstancesReport</text><line style="stroke:#555555;stroke-width:0.5;" x1="845" x2="1196.0039" y1="43" y2="43"/><line style="stroke:#555555;stroke-width:0.5;" x1="845" x2="1196.0039" y1="51" y2="51"/><text fill="#000000" font-family="sans-serif" font-size="14" lengthAdjust="spacing" text-decoration="underline" textLength="188.8154" x="850" y="67.9951">+main(args: String[]): void</text><text fill="#000000" font-family="sans-serif" font-size="14" lengthAdjust="spacing" text-decoration="underline" textLength="206.1377" x="850" y="84.292">-findOrphans(instances: Map,</text><text fill="#000000" font-family="sans-serif" font-size="14" lengthAdjust="spacing" text-decoration="underline" textLength="238.6494" x="952.3545" y="100.5889">loAddresses: Map): List&lt;String[]&gt;</text></g><g class="entity" data-entity="GMN40" data-source-line="135" data-uid="ent0041" id="entity_GMN40"><path d="M1031.5,250.5 L1031.5,274 L996.14,278 L1031.5,282 L1031.5,305.8984 A0,0 0 0 0 1031.5,305.8984 L1201.562,305.8984 A0,0 0 0 0 1201.562,305.8984 L1201.562,260.5 L1191.562,250.5 L1031.5,250.5 A0,0 0 0 0 1031.5,250.5" fill="#FEFFDD" style="stroke:#181818;stroke-width:0.5;"/><path d="M1191.562,250.5 L1191.562,260.5 L1201.562,260.5 L1191.562,250.5" fill="#FEFFDD" style="stroke:#181818;stroke-width:0.5;"/><text fill="#000000" font-family="sans-serif" font-size="13" lengthAdjust="spacing" textLength="108.2974" x="1037.5" y="267.5669">Caches config to</text><text fill="#000000" font-family="sans-serif" font-size="13" lengthAdjust="spacing" textLength="149.062" x="1037.5" y="282.6997">/tmp/juniper-HOST.xml</text><text fill="#000000" font-family="sans-serif" font-size="13" lengthAdjust="spacing" textLength="91.2412" x="1037.5" y="297.8325">(readOrFetch)</text></g><!--reverse link Collector to AbstractJuniperCollector--><g class="link" data-entity-1="Collector" data-entity-2="AbstractJuniperCollector" data-source-line="104" data-uid="lnk17" id="link_Collector_AbstractJuniperCollector"><path codeLine="104" d="M1442.8371,121.7754 C1414.4371,139.6954 1395.85,148.34 1362.5,159 C1214.21,206.39 1163.84,148.56 1013.5,189 C1007.78,190.54 1002.03,192.24 996.26,194.09" fill="none" id="Collector-backto-AbstractJuniperCollector" style="stroke:#555555;stroke-width:1;stroke-dasharray:7.0,7.0;"/><polygon fill="none" points="1458.06,112.17,1439.6353,116.7011,1446.0389,126.8497,1458.06,112.17" style="stroke:#555555;stroke-width:1;"/></g><!--reverse link Collector to CiscoCollector--><g class="link" data-entity-1="Collector" data-entity-2="CiscoCollector" data-source-line="105" data-uid="lnk18" id="link_Collector_CiscoCollector"><path codeLine="105" d="M1520.7828,129.841 C1517.5728,145.671 1515.94,144.96 1507.5,159 C1496.95,176.56 1487.65,175.21 1472.5,189 C1461.29,199.21 1449.51,210.31 1438.28,221.08" fill="none" id="Collector-backto-CiscoCollector" style="stroke:#555555;stroke-width:1;stroke-dasharray:7.0,7.0;"/><polygon fill="none" points="1524.36,112.2,1514.9025,128.6486,1526.6631,131.0334,1524.36,112.2" style="stroke:#555555;stroke-width:1;"/></g><!--reverse link Collector to RouterOSCollector--><g class="link" data-entity-1="Collector" data-entity-2="RouterOSCollector" data-source-line="106" data-uid="lnk19" id="link_Collector_RouterOSCollector"><path codeLine="106" d="M1546.083,129.6715 C1548.333,139.5615 1546.58,132.31 1548.5,142 C1554.21,170.89 1559.55,203.46 1563.54,229.38" fill="none" id="Collector-backto-RouterOSCollector" style="stroke:#555555;stroke-width:1;stroke-dasharray:7.0,7.0;"/><polygon fill="none" points="1542.09,112.12,1540.2325,131.0025,1551.9335,128.3405,1542.09,112.12" style="stroke:#555555;stroke-width:1;"/></g><!--reverse link AbstractJuniperCollector to JuniperCollector--><g class="link" data-entity-1="AbstractJuniperCollector" data-entity-2="JuniperCollector" data-source-line="108" data-uid="lnk20" id="link_AbstractJuniperCollector_JuniperCollector"><path codeLine="108" d="M921.4021,380.0751 C982.9021,444.8651 1049.93,513.54 1086.5,543 C1103.65,556.82 1123.69,570.19 1141.94,581.46" fill="none" id="AbstractJuniperCollector-backto-JuniperCollector" style="stroke:#555555;stroke-width:1;"/><polygon fill="none" points="909.01,367.02,917.0505,384.2058,925.7538,375.9444,909.01,367.02" style="stroke:#555555;stroke-width:1;"/></g><!--reverse link AbstractJuniperCollector to JuniperSwitchCollector--><g class="link" data-entity-1="AbstractJuniperCollector" data-entity-2="JuniperSwitchCollector" data-source-line="109" data-uid="lnk21" id="link_AbstractJuniperCollector_JuniperSwitchCollector"><path codeLine="109" d="M719.9277,379.4022 C644.9477,450.0322 557.14,532.76 505.68,581.24" fill="none" id="AbstractJuniperCollector-backto-JuniperSwitchCollector" style="stroke:#555555;stroke-width:1;"/><polygon fill="none" points="733.03,367.06,715.8136,375.0347,724.0417,383.7696,733.03,367.06" style="stroke:#555555;stroke-width:1;"/></g><!--reverse link AbstractJuniperCollector to JuniperL2circuitCollector--><g class="link" data-entity-1="AbstractJuniperCollector" data-entity-2="JuniperL2circuitCollector" data-source-line="110" data-uid="lnk22" id="link_AbstractJuniperCollector_JuniperL2circuitCollector"><path codeLine="110" d="M788.1056,383.9642 C762.2656,454.5942 733.67,532.76 715.94,581.24" fill="none" id="AbstractJuniperCollector-backto-JuniperL2circuitCollector" style="stroke:#555555;stroke-width:1;"/><polygon fill="none" points="794.29,367.06,782.4708,381.9028,793.7403,386.0257,794.29,367.06" style="stroke:#555555;stroke-width:1;"/></g><!--reverse link AbstractJuniperCollector to JuniperBridgedomainsCollector--><g class="link" data-entity-1="AbstractJuniperCollector" data-entity-2="JuniperBridgedomainsCollector" data-source-line="111" data-uid="lnk23" id="link_AbstractJuniperCollector_JuniperBridgedomainsCollector"><path codeLine="111" d="M870.1252,383.6745 C899.5652,454.3045 932.27,532.76 952.47,581.24" fill="none" id="AbstractJuniperCollector-backto-JuniperBridgedomainsCollector" style="stroke:#555555;stroke-width:1;"/><polygon fill="none" points="863.2,367.06,864.5871,385.9829,875.6634,381.3661,863.2,367.06" style="stroke:#555555;stroke-width:1;"/></g><!--reverse link AbstractJuniperCollector to JuniperDownStateCollector--><g class="link" data-entity-1="AbstractJuniperCollector" data-entity-2="JuniperDownStateCollector" data-source-line="112" data-uid="lnk24" id="link_AbstractJuniperCollector_JuniperDownStateCollector"><path codeLine="112" d="M640.1957,366.5191 C634.0257,369.0491 644.55,364.66 638.5,367 C596.41,383.27 582.79,378.79 541.5,397 C426.74,447.62 302.81,525.86 232.33,572.84" fill="none" id="AbstractJuniperCollector-backto-JuniperDownStateCollector" style="stroke:#555555;stroke-width:1;"/><polygon fill="none" points="656.85,359.69,637.9194,360.9676,642.4721,372.0705,656.85,359.69" style="stroke:#555555;stroke-width:1;"/></g><!--link RoutingInstancesReport to AbstractJuniperCollector--><g class="link" data-entity-1="RoutingInstancesReport" data-entity-2="AbstractJuniperCollector" data-source-line="114" data-uid="lnk25" id="link_RoutingInstancesReport_AbstractJuniperCollector"><path codeLine="114" d="M977.93,108.01 C956.73,131.66 934.4238,156.5613 909.7038,184.1513" fill="none" id="RoutingInstancesReport-to-AbstractJuniperCollector" style="stroke:#555555;stroke-width:1;"/><polygon fill="#555555" points="905.7,188.62,914.6849,184.5862,909.0365,184.8961,908.7266,179.2477,905.7,188.62" style="stroke:#555555;stroke-width:1;"/><text fill="#000000" font-family="sans-serif" font-size="13" lengthAdjust="spacing" textLength="48.3247" x="948.5" y="155.0669">creates</text><text fill="#000000" font-family="sans-serif" font-size="13" lengthAdjust="spacing" textLength="8.271" x="903.7225" y="177.9571">4</text></g><!--link RoutingInstancesReport to JuniperDownStateCollector--><g class="link" data-entity-1="RoutingInstancesReport" data-entity-2="JuniperDownStateCollector" data-source-line="115" data-uid="lnk26" id="link_RoutingInstancesReport_JuniperDownStateCollector"><path codeLine="115" d="M843.94,62.7 C627.08,69.52 277.57,95.2 193.5,189 C96.61,297.11 136.0822,484.2765 160.0622,567.1465" fill="none" id="RoutingInstancesReport-to-JuniperDownStateCollector" style="stroke:#555555;stroke-width:1;"/><polygon fill="#555555" points="161.73,572.91,163.0707,563.1528,160.3402,568.107,155.3859,565.3765,161.73,572.91" style="stroke:#555555;stroke-width:1;"/><text fill="#000000" font-family="sans-serif" font-size="13" lengthAdjust="spacing" textLength="48.3247" x="194.5" y="282.5669">creates</text></g><!--link RoutingInstancesReport to CiscoCollector--><g class="link" data-entity-1="RoutingInstancesReport" data-entity-2="CiscoCollector" data-source-line="116" data-uid="lnk27" id="link_RoutingInstancesReport_CiscoCollector"><path codeLine="116" d="M1197.15,96.61 C1228.68,107.93 1259.91,122.72 1286.5,142 C1314.69,162.44 1334.465,188.726 1350.675,216.126" fill="none" id="RoutingInstancesReport-to-CiscoCollector" style="stroke:#555555;stroke-width:1;"/><polygon fill="#555555" points="1353.73,221.29,1352.5901,211.5073,1351.1841,216.9867,1345.7048,215.5807,1353.73,221.29" style="stroke:#555555;stroke-width:1;"/><text fill="#000000" font-family="sans-serif" font-size="13" lengthAdjust="spacing" textLength="48.3247" x="1305.5" y="155.0669">creates</text></g><!--link RoutingInstancesReport to RouterOSCollector--><g class="link" data-entity-1="RoutingInstancesReport" data-entity-2="RouterOSCollector" data-source-line="117" data-uid="lnk28" id="link_RoutingInstancesReport_RouterOSCollector"><path codeLine="117" d="M1197.23,86.08 C1285.05,104.7 1389.79,136.25 1472.5,189 C1490.43,200.44 1503.8437,211.1293 1519.2837,225.2593" fill="none" id="RoutingInstancesReport-to-RouterOSCollector" style="stroke:#555555;stroke-width:1;"/><polygon fill="#555555" points="1523.71,229.31,1519.7711,220.2831,1520.0215,225.9344,1514.3701,226.1848,1523.71,229.31" style="stroke:#555555;stroke-width:1;"/><text fill="#000000" font-family="sans-serif" font-size="13" lengthAdjust="spacing" textLength="48.3247" x="1417.5" y="155.0669">creates</text></g><!--link RoutingInstancesReport to LoAddressMapper--><g class="link" data-entity-1="RoutingInstancesReport" data-entity-2="LoAddressMapper" data-source-line="118" data-uid="lnk29" id="link_RoutingInstancesReport_LoAddressMapper"><path codeLine="118" d="M868.69,108.12 C798.41,131.07 714.13,159.9 639.5,189 C594.81,206.42 550.9807,225.8121 512.7507,243.4021" fill="none" id="RoutingInstancesReport-to-LoAddressMapper" style="stroke:#555555;stroke-width:1;"/><polygon fill="#555555" points="507.3,245.91,517.148,245.7819,511.8423,243.8201,513.8041,238.5143,507.3,245.91" style="stroke:#555555;stroke-width:1;"/><text fill="#000000" font-family="sans-serif" font-size="13" lengthAdjust="spacing" textLength="29.7832" x="765.5" y="155.0669">uses</text></g><!--link RoutingInstancesReport to ReportGenerator--><g class="link" data-entity-1="RoutingInstancesReport" data-entity-2="ReportGenerator" data-source-line="119" data-uid="lnk30" id="link_RoutingInstancesReport_ReportGenerator"><path codeLine="119" d="M1128.31,108.03 C1162.3,128.21 1196.65,155.06 1218.5,189 C1258.48,251.1 1266.0608,330.7603 1265.4508,390.9303" fill="none" id="RoutingInstancesReport-to-ReportGenerator" style="stroke:#555555;stroke-width:1;"/><polygon fill="#555555" points="1265.39,396.93,1269.481,387.971,1265.4407,391.9303,1261.4814,387.8899,1265.39,396.93" style="stroke:#555555;stroke-width:1;"/><text fill="#000000" font-family="sans-serif" font-size="13" lengthAdjust="spacing" textLength="29.7832" x="1194.5" y="155.0669">uses</text></g><!--link ReportGenerator to RoutingInstance--><g class="link" data-entity-1="ReportGenerator" data-entity-2="RoutingInstance" data-source-line="121" data-uid="lnk31" id="link_ReportGenerator_RoutingInstance"><path codeLine="121" d="M1283.02,543.41 C1290.36,577.33 1294.57,618.09 1285.5,654 C1278.89,680.19 1270.0348,701.4466 1257.2648,725.3766" fill="none" id="ReportGenerator-to-RoutingInstance" style="stroke:#555555;stroke-width:1;"/><polygon fill="#555555" points="1254.44,730.67,1262.2062,724.613,1256.794,726.2588,1255.1482,720.8466,1254.44,730.67" style="stroke:#555555;stroke-width:1;"/><text fill="#000000" font-family="sans-serif" font-size="13" lengthAdjust="spacing" textLength="36.334" x="1292.5" y="618.0669">reads</text></g><!--link JuniperCollector to RoutingInstance--><g class="link" data-entity-1="JuniperCollector" data-entity-2="RoutingInstance" data-source-line="123" data-uid="lnk32" id="link_JuniperCollector_RoutingInstance"><path codeLine="123" d="M1196.5,645.56 C1196.5,668.35 1196.5,694.52 1196.5,724.97" fill="none" id="JuniperCollector-to-RoutingInstance" style="stroke:#555555;stroke-width:1;stroke-dasharray:7.0,7.0;"/><polygon fill="#555555" points="1196.5,730.97,1200.5,721.97,1196.5,725.97,1192.5,721.97,1196.5,730.97" style="stroke:#555555;stroke-width:1;"/><text fill="#000000" font-family="sans-serif" font-size="13" lengthAdjust="spacing" textLength="52.3999" x="1197.5" y="697.0669">merge()</text></g><!--link JuniperSwitchCollector to RoutingInstance--><g class="link" data-entity-1="JuniperSwitchCollector" data-entity-2="RoutingInstance" data-source-line="124" data-uid="lnk33" id="link_JuniperSwitchCollector_RoutingInstance"><path codeLine="124" d="M559.28,645.55 C568.11,648.49 576.96,651.36 585.5,654 C757.25,707.13 953.2418,758.2841 1076.5218,789.3441" fill="none" id="JuniperSwitchCollector-to-RoutingInstance" style="stroke:#555555;stroke-width:1;stroke-dasharray:7.0,7.0;"/><polygon fill="#555555" points="1082.34,790.81,1074.59,784.7324,1077.4915,789.5884,1072.6355,792.49,1082.34,790.81" style="stroke:#555555;stroke-width:1;"/><text fill="#000000" font-family="sans-serif" font-size="13" lengthAdjust="spacing" textLength="52.3999" x="736.5" y="697.0669">merge()</text></g><!--link JuniperL2circuitCollector to RoutingInstance--><g class="link" data-entity-1="JuniperL2circuitCollector" data-entity-2="RoutingInstance" data-source-line="125" data-uid="lnk34" id="link_JuniperL2circuitCollector_RoutingInstance"><path codeLine="125" d="M779.22,645.56 C859.74,679.02 983.2994,730.3874 1076.5894,769.1574" fill="none" id="JuniperL2circuitCollector-to-RoutingInstance" style="stroke:#555555;stroke-width:1;stroke-dasharray:7.0,7.0;"/><polygon fill="#555555" points="1082.13,771.46,1075.3542,764.3124,1077.5128,769.5412,1072.2841,771.6998,1082.13,771.46" style="stroke:#555555;stroke-width:1;"/><text fill="#000000" font-family="sans-serif" font-size="13" lengthAdjust="spacing" textLength="52.3999" x="907.5" y="697.0669">merge()</text></g><!--link JuniperBridgedomainsCollector to RoutingInstance--><g class="link" data-entity-1="JuniperBridgedomainsCollector" data-entity-2="RoutingInstance" data-source-line="126" data-uid="lnk35" id="link_JuniperBridgedomainsCollector_RoutingInstance"><path codeLine="126" d="M1000.58,645.56 C1026.33,668.35 1058.1673,696.5431 1092.5673,726.9931" fill="none" id="JuniperBridgedomainsCollector-to-RoutingInstance" style="stroke:#555555;stroke-width:1;stroke-dasharray:7.0,7.0;"/><polygon fill="#555555" points="1097.06,730.97,1092.9721,722.0096,1093.3161,727.656,1087.6697,727.9999,1097.06,730.97" style="stroke:#555555;stroke-width:1;"/><text fill="#000000" font-family="sans-serif" font-size="13" lengthAdjust="spacing" textLength="52.3999" x="1061.5" y="697.0669">merge()</text></g><!--link CiscoCollector to RoutingInstance--><g class="link" data-entity-1="CiscoCollector" data-entity-2="RoutingInstance" data-source-line="127" data-uid="lnk36" id="link_CiscoCollector_RoutingInstance"><path codeLine="127" d="M1406.01,334.69 C1426.38,389.07 1448.48,473.54 1424.5,543 C1399.66,614.97 1350.5893,676.9843 1301.7893,726.5543" fill="none" id="CiscoCollector-to-RoutingInstance" style="stroke:#555555;stroke-width:1;stroke-dasharray:7.0,7.0;"/><polygon fill="#555555" points="1297.58,730.83,1306.7444,727.2226,1301.0878,727.2669,1301.0435,721.6102,1297.58,730.83" style="stroke:#555555;stroke-width:1;"/><text fill="#000000" font-family="sans-serif" font-size="13" lengthAdjust="spacing" textLength="52.3999" x="1410.5" y="618.0669">merge()</text></g><!--link RouterOSCollector to RoutingInstance--><g class="link" data-entity-1="RouterOSCollector" data-entity-2="RoutingInstance" data-source-line="128" data-uid="lnk37" id="link_RouterOSCollector_RoutingInstance"><path codeLine="128" d="M1569.14,326.55 C1564.7,402.92 1546.32,554.4 1471.5,654 C1430.87,708.09 1372.265,745.3949 1316.225,772.4049" fill="none" id="RouterOSCollector-to-RoutingInstance" style="stroke:#555555;stroke-width:1;stroke-dasharray:7.0,7.0;"/><polygon fill="#555555" points="1310.82,775.01,1320.6642,774.7057,1315.3241,772.8391,1317.1907,767.4991,1310.82,775.01" style="stroke:#555555;stroke-width:1;"/><text fill="#000000" font-family="sans-serif" font-size="13" lengthAdjust="spacing" textLength="52.3999" x="1515.5" y="618.0669">merge()</text></g><!--link JuniperDownStateCollector to ConnectionStatus--><g class="link" data-entity-1="JuniperDownStateCollector" data-entity-2="ConnectionStatus" data-source-line="130" data-uid="lnk38" id="link_JuniperDownStateCollector_ConnectionStatus"><path codeLine="130" d="M174.5,654.42 C174.5,687.89 174.5,729.78 174.5,765.28" fill="none" id="JuniperDownStateCollector-to-ConnectionStatus" style="stroke:#555555;stroke-width:1;stroke-dasharray:7.0,7.0;"/><polygon fill="#555555" points="174.5,771.28,178.5,762.28,174.5,766.28,170.5,762.28,174.5,771.28" style="stroke:#555555;stroke-width:1;"/><text fill="#000000" font-family="sans-serif" font-size="13" lengthAdjust="spacing" textLength="65.5205" x="175.5" y="697.0669">describe()</text></g><!--link RoutingInstance to HashUtils--><g class="link" data-entity-1="RoutingInstance" data-entity-2="HashUtils" data-source-line="132" data-uid="lnk39" id="link_RoutingInstance_HashUtils"><path codeLine="132" d="M1196.5,909.21 C1196.5,935.91 1196.5,957.91 1196.5,979.75" fill="none" id="RoutingInstance-to-HashUtils" style="stroke:#555555;stroke-width:1;stroke-dasharray:7.0,7.0;"/><polygon fill="#555555" points="1196.5,985.75,1200.5,976.75,1196.5,980.75,1192.5,976.75,1196.5,985.75" style="stroke:#555555;stroke-width:1;"/><text fill="#000000" font-family="sans-serif" font-size="13" lengthAdjust="spacing" textLength="91.7109" x="1197.5" y="952.0669">computeKey()</text></g><!--SRC=[fLTRRzis57xNho2Q5ncJtM3eW4080kHYhrcT2-9U1dHze4bQuYgH0aaroTh-znrTJKcchMnyIA33S-Dt3iz7wwzSP5ZX5944QtrkZEBhtB1h8iMA_yFGiQTR5HrZAX-vYD069vfPEwKn-kuXM1UOV8sKp0Mzb8bKw5FC3QjsfA9CLTAZtyfLoi-LaezTyK_BEHU6gGqcp17WQ7woU3C_SOQmVU6rDWeJutArM2nEviUZN36Hfqutnv3JOeyRRties4eOCR1zUjfApyvgrx-GQjkFfJO2fon4AwYHY8A_16eM5zfWGPWEqGtEx9rlQlCnI_IIQrFkJKBqJN9QPD12KHNllFxy8nSyAnEkiwhoc2Ooug89NeaoiEjAfkM_8yKmlLCBPaWyo7lIiJW2B3NxCqtyfpInLAuaoLCcJAN4dihK7YHqfhe5PpwL941FML1qOh86-7jkDqNiM_WZnUPG2gNkGqRqNemHKg0IeWBAqshxRDBzB52jm7I0s1PpDfjD1jghHmw9lCnc-IlXYkJSlCpiGd4QCIfJ3AtpCjCh-IXM1XlcCciL3i3Ph4IUKwgOrdNxTa7z_CM2zP9h8lzRPpA1rmcxTtIiuyXLmzsj_izbsECQDA_hcziujk6g9EOvwqaKxNx7Ycs6TWNulNRjfFKT0XjEVgAKgOZvxGW9x9cnes95f00LMGL8qHqAHU2vCEhPcZNLcTzY7NymF6cOOfi3aMa6KBzZptw6AMNqzc3R5Cl6PdkfstZBfhEWgw1p1r7NEK-elmEeITc8zLU0hEjT3lrBAGHKbCkop_FcEFFh0DtU1-Zc9a1tom0zN0LeUGN95yAF8Bnu1xxU1mWwONSfADC4-9VvHD9z1tjWcLJcToQOmjO5RFr4rOvLrG4nT5QV9PoAqBHGftjiueF5wLzhjq-LnLZK5N1gmSD3R76ljGSTrhjLkW9gW4ynzdoielR2VlxIk2hhqYfkk00YA_CRY-MuUMQH_e_Pp4c-VRtk0Epl3iQLvpbP_VJ7T3gWgN7gFPuQPpGagd5skvbgdEsGgZpFqI7JwHbwzUQL-nKK8WAl6iFqFWzkYXnbtgEtKJP3YXfbrX-D8ShrWK2zcLDRU7rvavHDRY4gNeIWF81rDjkbNL7In7CyZ4OPxNWPZR9pF8tss_OgjrzvMBBz-fwxhGh30Hk5MnwP31g-DDaISMXJBsWBQHXIF8eDaXltM4Be4fEOQLIyhtc4Z0JHQvDch_-kLATlxrRlP_2c1xbl_HoO08DIL4Jn_WK0]--></g></svg>
